<svg id="el_CEfAvoSNn" data-name="Layer 1" xmlns="http://www.w3.org/2000/svg" viewBox="0 0 260 258"><style>@-webkit-keyframes el_wPpvvugWWd_Animation{20%{opacity: 0;}28.00%{opacity: 1;}72%{opacity: 1;}80%{opacity: 0;}0%{opacity: 0;}100%{opacity: 0;}}@keyframes el_wPpvvugWWd_Animation{20%{opacity: 0;}28.00%{opacity: 1;}72%{opacity: 1;}80%{opacity: 0;}0%{opacity: 0;}100%{opacity: 0;}}@-webkit-keyframes el_GI6eXqv-tvp_Ftk16evbuy_Animation{0%{-webkit-transform: translate(130.3300018310547px, 124.93499755859375px) scale(0, 0) translate(-130.3300018310547px, -124.93499755859375px);transform: translate(130.3300018310547px, 124.93499755859375px) scale(0, 0) translate(-130.3300018310547px, -124.93499755859375px);}8%{-webkit-transform: translate(130.3300018310547px, 124.93499755859375px) scale(1, 1) translate(-130.3300018310547px, -124.93499755859375px);transform: translate(130.3300018310547px, 124.93499755859375px) scale(1, 1) translate(-130.3300018310547px, -124.93499755859375px);}92%{-webkit-transform: translate(130.3300018310547px, 124.93499755859375px) scale(1, 1) translate(-130.3300018310547px, -124.93499755859375px);transform: translate(130.3300018310547px, 124.93499755859375px) scale(1, 1) translate(-130.3300018310547px, -124.93499755859375px);}100%{-webkit-transform: translate(130.3300018310547px, 124.93499755859375px) scale(0, 0) translate(-130.3300018310547px, -124.93499755859375px);transform: translate(130.3300018310547px, 124.93499755859375px) scale(0, 0) translate(-130.3300018310547px, -124.93499755859375px);}}@keyframes el_GI6eXqv-tvp_Ftk16evbuy_Animation{0%{-webkit-transform: translate(130.3300018310547px, 124.93499755859375px) scale(0, 0) translate(-130.3300018310547px, -124.93499755859375px);transform: translate(130.3300018310547px, 124.93499755859375px) scale(0, 0) translate(-130.3300018310547px, -124.93499755859375px);}8%{-webkit-transform: translate(130.3300018310547px, 124.93499755859375px) scale(1, 1) translate(-130.3300018310547px, -124.93499755859375px);transform: translate(130.3300018310547px, 124.93499755859375px) scale(1, 1) translate(-130.3300018310547px, -124.93499755859375px);}92%{-webkit-transform: translate(130.3300018310547px, 124.93499755859375px) scale(1, 1) translate(-130.3300018310547px, -124.93499755859375px);transform: translate(130.3300018310547px, 124.93499755859375px) scale(1, 1) translate(-130.3300018310547px, -124.93499755859375px);}100%{-webkit-transform: translate(130.3300018310547px, 124.93499755859375px) scale(0, 0) translate(-130.3300018310547px, -124.93499755859375px);transform: translate(130.3300018310547px, 124.93499755859375px) scale(0, 0) translate(-130.3300018310547px, -124.93499755859375px);}}@-webkit-keyframes el_GI6eXqv-tvp_Animation{0%{opacity: 0;}8%{opacity: 1;}92%{opacity: 1;}100%{opacity: 0;}}@keyframes el_GI6eXqv-tvp_Animation{0%{opacity: 0;}8%{opacity: 1;}92%{opacity: 1;}100%{opacity: 0;}}@-webkit-keyframes el_P4u0RmAPe4t_3TXYu2nLx9a_Animation{0%{-webkit-transform: translate(130.29499626159668px, 118.61143493652344px) scale(0, 0) translate(-130.29499626159668px, -118.61143493652344px);transform: translate(130.29499626159668px, 118.61143493652344px) scale(0, 0) translate(-130.29499626159668px, -118.61143493652344px);}16%{-webkit-transform: translate(130.29499626159668px, 118.61143493652344px) scale(1, 1) translate(-130.29499626159668px, -118.61143493652344px);transform: translate(130.29499626159668px, 118.61143493652344px) scale(1, 1) translate(-130.29499626159668px, -118.61143493652344px);}84%{-webkit-transform: translate(130.29499626159668px, 118.61143493652344px) scale(1, 1) translate(-130.29499626159668px, -118.61143493652344px);transform: translate(130.29499626159668px, 118.61143493652344px) scale(1, 1) translate(-130.29499626159668px, -118.61143493652344px);}100%{-webkit-transform: translate(130.29499626159668px, 118.61143493652344px) scale(0, 0) translate(-130.29499626159668px, -118.61143493652344px);transform: translate(130.29499626159668px, 118.61143493652344px) scale(0, 0) translate(-130.29499626159668px, -118.61143493652344px);}}@keyframes el_P4u0RmAPe4t_3TXYu2nLx9a_Animation{0%{-webkit-transform: translate(130.29499626159668px, 118.61143493652344px) scale(0, 0) translate(-130.29499626159668px, -118.61143493652344px);transform: translate(130.29499626159668px, 118.61143493652344px) scale(0, 0) translate(-130.29499626159668px, -118.61143493652344px);}16%{-webkit-transform: translate(130.29499626159668px, 118.61143493652344px) scale(1, 1) translate(-130.29499626159668px, -118.61143493652344px);transform: translate(130.29499626159668px, 118.61143493652344px) scale(1, 1) translate(-130.29499626159668px, -118.61143493652344px);}84%{-webkit-transform: translate(130.29499626159668px, 118.61143493652344px) scale(1, 1) translate(-130.29499626159668px, -118.61143493652344px);transform: translate(130.29499626159668px, 118.61143493652344px) scale(1, 1) translate(-130.29499626159668px, -118.61143493652344px);}100%{-webkit-transform: translate(130.29499626159668px, 118.61143493652344px) scale(0, 0) translate(-130.29499626159668px, -118.61143493652344px);transform: translate(130.29499626159668px, 118.61143493652344px) scale(0, 0) translate(-130.29499626159668px, -118.61143493652344px);}}@-webkit-keyframes el_P4u0RmAPe4t_Animation{0%{opacity: 0;}16%{opacity: 1;}84%{opacity: 1;}100%{opacity: 0;}}@keyframes el_P4u0RmAPe4t_Animation{0%{opacity: 0;}16%{opacity: 1;}84%{opacity: 1;}100%{opacity: 0;}}@-webkit-keyframes el_I22PARFK6rS_ydOY0Wlzmqi_Animation{12%{-webkit-transform: translate(130.0400047302246px, 118.46240997314453px) scale(0, 0) translate(-130.0400047302246px, -118.46240997314453px);transform: translate(130.0400047302246px, 118.46240997314453px) scale(0, 0) translate(-130.0400047302246px, -118.46240997314453px);}30%{-webkit-transform: translate(130.0400047302246px, 118.46240997314453px) scale(1, 1) translate(-130.0400047302246px, -118.46240997314453px);transform: translate(130.0400047302246px, 118.46240997314453px) scale(1, 1) translate(-130.0400047302246px, -118.46240997314453px);}70%{-webkit-transform: translate(130.0400047302246px, 118.46240997314453px) scale(1, 1) translate(-130.0400047302246px, -118.46240997314453px);transform: translate(130.0400047302246px, 118.46240997314453px) scale(1, 1) translate(-130.0400047302246px, -118.46240997314453px);}88%{-webkit-transform: translate(130.0400047302246px, 118.46240997314453px) scale(0, 0) translate(-130.0400047302246px, -118.46240997314453px);transform: translate(130.0400047302246px, 118.46240997314453px) scale(0, 0) translate(-130.0400047302246px, -118.46240997314453px);}0%{-webkit-transform: translate(130.0400047302246px, 118.46240997314453px) scale(0, 0) translate(-130.0400047302246px, -118.46240997314453px);transform: translate(130.0400047302246px, 118.46240997314453px) scale(0, 0) translate(-130.0400047302246px, -118.46240997314453px);}100%{-webkit-transform: translate(130.0400047302246px, 118.46240997314453px) scale(0, 0) translate(-130.0400047302246px, -118.46240997314453px);transform: translate(130.0400047302246px, 118.46240997314453px) scale(0, 0) translate(-130.0400047302246px, -118.46240997314453px);}}@keyframes el_I22PARFK6rS_ydOY0Wlzmqi_Animation{12%{-webkit-transform: translate(130.0400047302246px, 118.46240997314453px) scale(0, 0) translate(-130.0400047302246px, -118.46240997314453px);transform: translate(130.0400047302246px, 118.46240997314453px) scale(0, 0) translate(-130.0400047302246px, -118.46240997314453px);}30%{-webkit-transform: translate(130.0400047302246px, 118.46240997314453px) scale(1, 1) translate(-130.0400047302246px, -118.46240997314453px);transform: translate(130.0400047302246px, 118.46240997314453px) scale(1, 1) translate(-130.0400047302246px, -118.46240997314453px);}70%{-webkit-transform: translate(130.0400047302246px, 118.46240997314453px) scale(1, 1) translate(-130.0400047302246px, -118.46240997314453px);transform: translate(130.0400047302246px, 118.46240997314453px) scale(1, 1) translate(-130.0400047302246px, -118.46240997314453px);}88%{-webkit-transform: translate(130.0400047302246px, 118.46240997314453px) scale(0, 0) translate(-130.0400047302246px, -118.46240997314453px);transform: translate(130.0400047302246px, 118.46240997314453px) scale(0, 0) translate(-130.0400047302246px, -118.46240997314453px);}0%{-webkit-transform: translate(130.0400047302246px, 118.46240997314453px) scale(0, 0) translate(-130.0400047302246px, -118.46240997314453px);transform: translate(130.0400047302246px, 118.46240997314453px) scale(0, 0) translate(-130.0400047302246px, -118.46240997314453px);}100%{-webkit-transform: translate(130.0400047302246px, 118.46240997314453px) scale(0, 0) translate(-130.0400047302246px, -118.46240997314453px);transform: translate(130.0400047302246px, 118.46240997314453px) scale(0, 0) translate(-130.0400047302246px, -118.46240997314453px);}}@-webkit-keyframes el_I22PARFK6rS_Animation{12%{opacity: 0;}30%{opacity: 1;}70%{opacity: 1;}88%{opacity: 0;}0%{opacity: 0;}100%{opacity: 0;}}@keyframes el_I22PARFK6rS_Animation{12%{opacity: 0;}30%{opacity: 1;}70%{opacity: 1;}88%{opacity: 0;}0%{opacity: 0;}100%{opacity: 0;}}@-webkit-keyframes el_RGLfW2redKD_Animation{20%{opacity: 0;}34%{opacity: 1;}66%{opacity: 1;}80%{opacity: 0;}0%{opacity: 0;}100%{opacity: 0;}}@keyframes el_RGLfW2redKD_Animation{20%{opacity: 0;}34%{opacity: 1;}66%{opacity: 1;}80%{opacity: 0;}0%{opacity: 0;}100%{opacity: 0;}}@-webkit-keyframes el_VeqfkMjZyN_Animation{12%{opacity: 0;}24%{opacity: 1;}76%{opacity: 1;}88%{opacity: 0;}0%{opacity: 0;}100%{opacity: 0;}}@keyframes el_VeqfkMjZyN_Animation{12%{opacity: 0;}24%{opacity: 1;}76%{opacity: 1;}88%{opacity: 0;}0%{opacity: 0;}100%{opacity: 0;}}#el_CEfAvoSNn *{-webkit-animation-duration: 5s;animation-duration: 5s;-webkit-animation-iteration-count: infinite;animation-iteration-count: infinite;-webkit-animation-timing-function: cubic-bezier(0, 0, 1, 1);animation-timing-function: cubic-bezier(0, 0, 1, 1);}#el_VHvaw6q7B4{fill: #50cb69;fill-opacity: 0.1;}#el_vNNGCp5gvp{fill: #ade5b8;}#el_3vLjTDVOol{fill: #ade5b8;}#el_qqozUdIHkF{fill: #ade5b8;}#el_euXSWoGUQo{fill: #ade5b8;}#el_0cegwg2o4f{fill: #3cb054;}#el_Fo8vZoiZ0v{fill: #3cb054;}#el_wuvht_diSz{fill: #3cb054;}#el_eiP8Kqolzi{fill: #3cb054;}#el_cOhKKyvB8c{fill: #fff;}#el_eJ7vSe6Xtaa{fill: #fff;}#el_qivmnIofVHI{fill: #3cb054;}#el_5Ky2x_7fm6v{fill: #3cb054;}#el_STrtfeaTNOW{fill: #3cb054;}#el_RymN3qeMNGY{fill: #3cb054;}#el_IrtEjICafEv{fill: #fff;}#el_6K7IdK1MGDp{fill: #3cb054;}#el_QSH4Pjktl_p{fill: #3cb054;}#el_yrRiA_qjp-v{fill: #3cb054;}#el_wj5iKVi5zfl{fill: #3cb054;}#el_Duu4fZ7XyUP{fill: #fff;}#el_PKd_QUdRrOi{fill: #3cb054;}#el_wFycjINuDJg{fill: #3cb054;}#el_dpHjXBFFSyA{fill: #3cb054;}#el_PDd0uxsO17i{fill: #3cb054;}#el_xdMVECr2C0M{fill: #fff;}#el_iuuFY55ytj7{fill: #fff;}#el_zuNrV4CgWZc{fill: #3cb054;}#el_Zfo8_z6I3mU{fill: #3cb054;}#el_BQ5DJd7D1do{fill: #3cb054;}#el_zep19GgscRn{fill: #fff;}#el_U77NojEb9cz{fill: #3cb054;}#el_x5X-CgfEvqT{fill: #fff;}#el_hDcitrH32Cn{fill: #3cb054;}#el_vyc8GNALZJ3{fill: #3cb054;}#el_LNOtpNi3RDt{fill: #fff;}#el_J4sF2DnH13g{fill: #3cb054;}#el_A-SNMp9KUJO{fill: #fff;}#el_WBBErKl_eKT{fill: #3cb054;}#el_t-th9c9JwqC{fill: #3cb054;}#el_0CX0ZfwQnr9{fill: #3cb054;-webkit-transform: translate(-3.16px, 65.1px) rotate(-45deg);transform: translate(-3.16px, 65.1px) rotate(-45deg);}#el_jyS43l82J2-{fill: #3cb054;}#el_iZoRIi-RAXE{fill: #3cb054;-webkit-transform: translate(27.93px, 140.46px) rotate(-45deg);transform: translate(27.93px, 140.46px) rotate(-45deg);}#el_8TRSKPHoGcq{fill: #3cb054;}#el_150MjQsFTqn{fill: #3cb054;}#el_jCzUvJ-bQuC{fill: #3cb054;}#el_-L-6xE5oGgc{fill: #fff;}#el_44N2rpoFezA{fill: #3cb054;}#el_AGQcWc6pXvc{fill: #fff;}#el_YUHea7V8abw{fill: #3cb054;}#el_bqWvpq55W-x{fill: #3cb054;}#el_x8H94XFnjDU{fill: #fff;}#el_52TbeTs2pfH{fill: #3cb054;}#el_6tAoCvVOUDn{fill: #3cb054;}#el_RXDu-8sJ_em{fill: #fff;}#el_ZcTvDHtg1-8{fill: #3cb054;}#el_i4b-X6MMXgU{fill: #3cb054;}#el_ewihfpBl1gY{fill: #3cb054;}#el_FaeWo6E5tTH{fill: #fff;}#el_1Yyp_UD9bKJ{fill: #fff;}#el_K0YpfkhAgTo{fill: #3cb054;}#el_lea-uXAMZWa{fill: #3cb054;}#el_v5BOI-BMfe0{fill: #3cb054;}#el_vltaOWufs1m{fill: #3cb054;}#el_gD9aGr0wHRh{fill: #3cb054;}#el_zINc8ivygAN{fill: #3cb054;}#el_EiilfqfQ1x-{fill: #3cb054;}#el_zQMGBLLCAay{fill: #3cb054;}#el_VeqfkMjZyN{-webkit-animation-name: el_VeqfkMjZyN_Animation;animation-name: el_VeqfkMjZyN_Animation;-webkit-animation-timing-function: cubic-bezier(0.42, 0, 0.58, 1);animation-timing-function: cubic-bezier(0.42, 0, 0.58, 1);opacity: 0;}#el_RGLfW2redKD{-webkit-animation-name: el_RGLfW2redKD_Animation;animation-name: el_RGLfW2redKD_Animation;opacity: 0;-webkit-animation-timing-function: cubic-bezier(0.42, 0, 0.58, 1);animation-timing-function: cubic-bezier(0.42, 0, 0.58, 1);}#el_I22PARFK6rS{-webkit-animation-name: el_I22PARFK6rS_Animation;animation-name: el_I22PARFK6rS_Animation;-webkit-animation-timing-function: cubic-bezier(0.42, 0, 0.58, 1);animation-timing-function: cubic-bezier(0.42, 0, 0.58, 1);opacity: 0;}#el_I22PARFK6rS_ydOY0Wlzmqi{-webkit-animation-name: el_I22PARFK6rS_ydOY0Wlzmqi_Animation;animation-name: el_I22PARFK6rS_ydOY0Wlzmqi_Animation;-webkit-animation-timing-function: cubic-bezier(0.42, 0, 0.58, 1);animation-timing-function: cubic-bezier(0.42, 0, 0.58, 1);-webkit-transform: translate(130.0400047302246px, 118.46240997314453px) scale(0, 0) translate(-130.0400047302246px, -118.46240997314453px);transform: translate(130.0400047302246px, 118.46240997314453px) scale(0, 0) translate(-130.0400047302246px, -118.46240997314453px);}#el_P4u0RmAPe4t{-webkit-animation-name: el_P4u0RmAPe4t_Animation;animation-name: el_P4u0RmAPe4t_Animation;-webkit-animation-timing-function: cubic-bezier(0.42, 0, 0.58, 1);animation-timing-function: cubic-bezier(0.42, 0, 0.58, 1);opacity: 0;}#el_P4u0RmAPe4t_3TXYu2nLx9a{-webkit-animation-name: el_P4u0RmAPe4t_3TXYu2nLx9a_Animation;animation-name: el_P4u0RmAPe4t_3TXYu2nLx9a_Animation;-webkit-animation-timing-function: cubic-bezier(0.42, 0, 0.58, 1);animation-timing-function: cubic-bezier(0.42, 0, 0.58, 1);-webkit-transform: translate(130.29499626159668px, 118.61143493652344px) scale(0, 0) translate(-130.29499626159668px, -118.61143493652344px);transform: translate(130.29499626159668px, 118.61143493652344px) scale(0, 0) translate(-130.29499626159668px, -118.61143493652344px);}#el_GI6eXqv-tvp{-webkit-animation-name: el_GI6eXqv-tvp_Animation;animation-name: el_GI6eXqv-tvp_Animation;-webkit-animation-timing-function: cubic-bezier(0.42, 0, 0.58, 1);animation-timing-function: cubic-bezier(0.42, 0, 0.58, 1);opacity: 0;}#el_GI6eXqv-tvp_Ftk16evbuy{-webkit-animation-name: el_GI6eXqv-tvp_Ftk16evbuy_Animation;animation-name: el_GI6eXqv-tvp_Ftk16evbuy_Animation;-webkit-animation-timing-function: cubic-bezier(0.42, 0, 0.58, 1);animation-timing-function: cubic-bezier(0.42, 0, 0.58, 1);-webkit-transform: translate(130.3300018310547px, 124.93499755859375px) scale(0, 0) translate(-130.3300018310547px, -124.93499755859375px);transform: translate(130.3300018310547px, 124.93499755859375px) scale(0, 0) translate(-130.3300018310547px, -124.93499755859375px);}#el_wPpvvugWWd{-webkit-animation-name: el_wPpvvugWWd_Animation;animation-name: el_wPpvvugWWd_Animation;opacity: 0;}</style><defs/><title>pos-security-and-distribution</title><g id="el_X654b0EQ5y"><circle cx="130.33" cy="125.82" r="125.82" id="el_VHvaw6q7B4"/></g><g id="el_wPpvvugWWd"><path d="M102.34,233.61c9.79,5.65,9.81,14.81,0,20.45S76.75,259.69,67,254s-9.81-14.81,0-20.45S92.55,228,102.34,233.61Z" id="el_vNNGCp5gvp"/><path d="M42.74,81.9c9.79,5.65,9.81,14.81,0,20.45s-25.63,5.63-35.42,0-9.81-14.81,0-20.45S32.95,76.24,42.74,81.9Z" id="el_3vLjTDVOol"/><g id="el_pBEFweJ_he" data-name="Bottom Right person shadow"><path d="M158.31,233.61c-9.79,5.65-9.81,14.81,0,20.45s25.63,5.63,35.42,0,9.81-14.81,0-20.45S168.1,228,158.31,233.61Z" id="el_qqozUdIHkF"/></g><g id="el_a4FP_Z_3mu" data-name="Right person shadow"><path d="M217.91,81.9c-9.79,5.65-9.81,14.81,0,20.45s25.63,5.63,35.42,0,9.81-14.81,0-20.45S227.71,76.24,217.91,81.9Z" id="el_euXSWoGUQo"/></g></g><g id="el_VeqfkMjZyN"><path d="M87.43,170c2.33,0,4.41,1.62,6.59,2.89,3.29,1.91,3.58,6.81,2.63,10.38a17.18,17.18,0,0,1-.68,2,20.8,20.8,0,0,1-1.09,2.28l.19.12,3.53,2a5.69,5.69,0,0,1,1.52,1.4,6.8,6.8,0,0,1,1.06,3.79q0,9.59,0,19.18a8.13,8.13,0,0,1-4,6.66l-1.07.62c0,6,0,12,0,18a8.1,8.1,0,0,1-3.9,6.62c-2.71,1.58-5.43,3.14-8.15,4.71a4.06,4.06,0,0,1-4,.17c-2.29-1.39-5.26-2.4-5.33-5.4V231.2c-1.34-.77-2.73-1.16-4-2.44a4.12,4.12,0,0,1-1-2.84q-.05-9.59,0-19.18a14.27,14.27,0,0,1,7-11.71l1.39-.8a2.74,2.74,0,0,1,.33-.15c-1.49-.85-3-1.66-3.82-3.33-1.93-3.84-.64-8.64,1.58-12.51C78.65,173.88,83,169.94,87.43,170Zm5.71,20.91a1.72,1.72,0,0,0-1.27-.15c-1.66-.05-2.27-1.93-1.16-3.55,1.82-2.68,3.24-6,2.57-9.25-.41-2-2.9-2.9-4.81-3.95-1.49-.78-3.23.24-4.43,1-4.15,2.7-7.15,7.75-6.5,12.7,0,.13,0,.25.06.38.39,2,2.86,2.89,4.78,4a3.45,3.45,0,0,0,1.54.28,1.91,1.91,0,0,1,.58,3.62,13.61,13.61,0,0,1-4.75,1.7,16.5,16.5,0,0,0-1.64.9,10.37,10.37,0,0,0-4.65,8.22c0,6.38-.16,12.77,0,19.15,0,.09,0,.22,0,.22l3.44,2A2.36,2.36,0,0,1,78.47,230c0,5.14-.13,10.27,0,15.41,0,.09,0,.22,0,.22l3.39,2a1.74,1.74,0,0,0,.37-.16c2.72-1.56,5.47-3.07,8.14-4.7a4.19,4.19,0,0,0,2-3.4v-19A2.54,2.54,0,0,1,93,218.9a1.76,1.76,0,0,1,.35-.26c1.92-1.11,4.05-2.48,4.09-4.61q0-9.55,0-19.1c0-.13,0-.25,0-.38a2,2,0,0,0-.71-1.61l-.08,0-3.45-2Z" id="el_0cegwg2o4f"/><path d="M83.64,173q3.39-2,5.72-.72t2.32,5a15.18,15.18,0,0,1-2.32,7.71,16,16,0,0,1-5.72,5.88q-3.39,2-5.72.72t-2.32-5a15.18,15.18,0,0,1,2.32-7.71A16,16,0,0,1,83.64,173Zm6,16.65c1.68-1,3.1-1.15,4.27-.51s1.76,1.87,1.76,3.73v19a5.6,5.6,0,0,1-.88,2.87A5.89,5.89,0,0,1,92.69,217l-2,1.16v19a5.68,5.68,0,0,1-.88,2.89,6.06,6.06,0,0,1-2.14,2.21l-8,4.64a2.16,2.16,0,0,1-2.14.26,1.93,1.93,0,0,1-.88-1.88v-19l-2,1.16a2.11,2.11,0,0,1-2.14.26,1.89,1.89,0,0,1-.88-1.85v-19a11.26,11.26,0,0,1,1.76-5.76,11.94,11.94,0,0,1,4.27-4.42l1.38-.8a11.24,11.24,0,0,0,4.65-1.56,20.53,20.53,0,0,0,4.65-3.81Z" id="el_Fo8vZoiZ0v"/><path d="M81.52,193.73l-3.61-2.08,11.44-19.32,3.72,2.14Z" id="el_wuvht_diSz"/><path d="M81.08,249.26l-3.61-2.08.19-17.38H76.06l-3.6-2.08.92-15.25,20.75-23.2,3.43,2-14.69,35.4Z" id="el_eiP8Kqolzi"/><path d="M87.24,175.12q3.39-2,5.72-.72t2.32,5A15.18,15.18,0,0,1,93,187.14,16,16,0,0,1,87.24,193q-3.39,2-5.72.72t-2.32-5A15.18,15.18,0,0,1,81.52,181,16,16,0,0,1,87.24,175.12Zm6,16.65c1.68-1,3.1-1.15,4.27-.51s1.76,1.87,1.76,3.73v19a5.6,5.6,0,0,1-.88,2.87,5.89,5.89,0,0,1-2.14,2.21l-2,1.16v19a5.68,5.68,0,0,1-.88,2.89,6.06,6.06,0,0,1-2.14,2.21l-8,4.64a2.16,2.16,0,0,1-2.14.26,1.93,1.93,0,0,1-.88-1.88v-19l-2,1.16a2.11,2.11,0,0,1-2.14.26,1.89,1.89,0,0,1-.88-1.85v-19a11.26,11.26,0,0,1,1.76-5.76,11.94,11.94,0,0,1,4.27-4.42l1.38-.8a11.24,11.24,0,0,0,4.65-1.56,20.53,20.53,0,0,0,4.65-3.81Z" id="el_cOhKKyvB8c"/><rect x="96.26" y="197.12" width="9.95" height="16.69" id="el_eJ7vSe6Xtaa"/><g id="el_PxaFqSFiWc2" data-name="Bottom Right person"><path d="M173.35,170c5.62.06,10.24,5.43,12.41,10.82,1.73,4.3,2.42,10-2.1,12.5l-1.38.79a26.81,26.81,0,0,1,2.63,1.53A14.27,14.27,0,0,1,191,206.74q0,9.58,0,19.18a3.89,3.89,0,0,1-1.84,3.44l-3.19,1.84c0,4.73,0,9.45,0,14.18a3.94,3.94,0,0,1-1.75,3.39c-2.44,1.39-5,3.39-7.63,1.89s-5.44-3.13-8.15-4.71a8.08,8.08,0,0,1-3.9-6.62v-18c-2.66-1.53-5-4.13-5-7.28q0-9.59,0-19.18a5.91,5.91,0,0,1,2.72-5.26c1.19-.69,2.37-1.39,3.57-2.06,0,0-2.26-5-2.26-8.14,0-2.54.86-5.23,3.1-6.55s4.23-2.87,6.57-2.91Zm-9.38,23c-.62.36-.73,1.25-.75,2,0,6.38-.16,12.77,0,19.15a4.26,4.26,0,0,0,2.05,3.38l2,1.18a2.56,2.56,0,0,1,.89,1.19,1.88,1.88,0,0,1,.05.43c0,6.37-.16,12.73,0,19.09a4.25,4.25,0,0,0,2.05,3.38c2.71,1.57,5.39,3.2,8.14,4.7a2.7,2.7,0,0,0,.33.14l3.39-2a1.7,1.7,0,0,0,0-.3V230a1.78,1.78,0,0,1,1.57-1.85l3.44-2a1.52,1.52,0,0,0,0-.22c.16-6.38,0-12.77,0-19.15a10.35,10.35,0,0,0-5.1-8.5l-1-.6-.25,0a13,13,0,0,1-3.91-1.28c-1.17-.59-2.42-1.66-1.7-3,.58-1.11,2.29-.8,3.19-1.35,2.6-1.5,5.42-2.5,4.62-7.17s-4.1-9.48-8.59-10.89c-1.93-.6-4,1-6,2.21-1.1.68-1.22,2.17-1.22,3.3a14.35,14.35,0,0,0,3.11,8.32,2.26,2.26,0,0,1,.31,1.55c-.3,1.27-2.28,1.2-3,1.49C166.46,191.3,165.25,192.22,164,192.92Z" id="el_qivmnIofVHI"/><g id="el_DfCDtYgnnsg" data-name="Bottom right person"><path d="M177,173q-3.39-2-5.72-.72t-2.32,5a15.18,15.18,0,0,0,2.32,7.71,16,16,0,0,0,5.72,5.88q3.39,2,5.72.72t2.32-5a15.18,15.18,0,0,0-2.32-7.71A16,16,0,0,0,177,173Zm-6,16.65c-1.68-1-3.1-1.15-4.27-.51s-1.76,1.87-1.76,3.73v19a5.6,5.6,0,0,0,.88,2.87A5.89,5.89,0,0,0,168,217l2,1.16v19a5.68,5.68,0,0,0,.88,2.89,6.06,6.06,0,0,0,2.14,2.21l8,4.64a2.16,2.16,0,0,0,2.14.26,1.93,1.93,0,0,0,.88-1.88v-19l2,1.16a2.11,2.11,0,0,0,2.14.26,1.89,1.89,0,0,0,.88-1.85v-19a11.26,11.26,0,0,0-1.76-5.76,11.94,11.94,0,0,0-4.27-4.42l-1.38-.8A11.24,11.24,0,0,1,177,194.3a20.53,20.53,0,0,1-4.65-3.81Z" id="el_5Ky2x_7fm6v"/><path d="M179.13,193.73l3.61-2.08L171.3,172.33l-3.72,2.14Z" id="el_STrtfeaTNOW"/><path d="M179.57,249.26l3.61-2.08L183,229.81h1.61l3.6-2.08-.92-15.25-20.75-23.2-3.43,2,14.69,35.4Z" id="el_RymN3qeMNGY"/><path d="M173.41,175.12q-3.39-2-5.72-.72t-2.32,5a15.18,15.18,0,0,0,2.32,7.71,16,16,0,0,0,5.72,5.88q3.39,2,5.72.72t2.32-5a15.18,15.18,0,0,0-2.32-7.71A16,16,0,0,0,173.41,175.12Zm-6,16.65c-1.68-1-3.1-1.15-4.27-.51s-1.76,1.87-1.76,3.73v19a5.6,5.6,0,0,0,.88,2.87,5.89,5.89,0,0,0,2.14,2.21l2,1.16v19a5.68,5.68,0,0,0,.88,2.89,6.06,6.06,0,0,0,2.14,2.21l8,4.64a2.16,2.16,0,0,0,2.14.26,1.93,1.93,0,0,0,.88-1.88v-19l2,1.16a2.11,2.11,0,0,0,2.14.26,1.89,1.89,0,0,0,.88-1.85v-19a11.26,11.26,0,0,0-1.76-5.76,11.94,11.94,0,0,0-4.27-4.42l-1.38-.8a11.24,11.24,0,0,1-4.65-1.56,20.53,20.53,0,0,1-4.65-3.81Z" id="el_IrtEjICafEv"/></g></g><g id="el_zYBoCGZWn3u" data-name="Left Person"><path d="M27.83,18.26a6.13,6.13,0,0,1,3.05.84l0,0,3.49,2c1.7,1,1.69,1.41,2.07,2.05,2.32,3.9.74,9.1-1.21,12.64l.15.09c1.76,1.07,3.86,1.79,5,3.38a6.69,6.69,0,0,1,1.12,3.87q0,9.59,0,19.18a8.11,8.11,0,0,1-4,6.66l-1.07.62c0,6,0,12,0,18a8.12,8.12,0,0,1-3.84,6.6C30,95.83,27.24,97.39,24.5,99a4.09,4.09,0,0,1-4,.17c-2.29-1.39-5.26-2.43-5.33-5.4V79.49c-1.75-1-4.14-1.3-4.87-4a6.86,6.86,0,0,1-.16-1.23Q10,64.62,10.09,55a8.16,8.16,0,0,1,0-.85,14.32,14.32,0,0,1,6.92-10.86l1.39-.8a2.74,2.74,0,0,1,.33-.15c-1.49-.86-3-1.67-3.82-3.33-1.94-3.87-.63-8.71,1.66-12.64,2.46-4.21,6.45-8.06,11.08-8.14Zm5.71,20.91A2.15,2.15,0,0,0,32.26,39c-1.62-.06-2.33-1.85-1.16-3.56,1.75-2.58,3.09-5.63,2.63-8.89,0-.12,0-.24-.06-.37-.41-2-2.88-2.9-4.81-3.95-1.4-.75-3.18.21-4.43,1C20.27,26,17.28,31,17.93,36c0,.13,0,.25.06.38a2.6,2.6,0,0,0,1.19,1.9l.05,0c1.77,1,3.47,2.39,4.84,2.32a2.57,2.57,0,0,1,1.32.45,2,2,0,0,1-.51,3.18A13.39,13.39,0,0,1,20,46a15.43,15.43,0,0,0-2.2,1.41,10.51,10.51,0,0,0-3.93,7.68c0,6.38-.16,12.77,0,19.15,0,.09,0,.22,0,.22l3.44,2a2.36,2.36,0,0,1,1.57,1.85c0,5.14-.13,10.27,0,15.41,0,.09,0,.22,0,.22l3.39,2a1.63,1.63,0,0,0,.37-.16c2.72-1.55,5.46-3.08,8.14-4.7a4.21,4.21,0,0,0,2-3.4v-19a2.54,2.54,0,0,1,.59-1.36,1.76,1.76,0,0,1,.35-.26c1.91-1.11,4.05-2.48,4.09-4.61q0-9.55,0-19.1c0-.13,0-.26,0-.38a1.94,1.94,0,0,0-.71-1.61l-.08,0-3.45-2Z" id="el_6K7IdK1MGDp"/><path d="M24,21.33q3.39-2,5.72-.72t2.32,5a15.18,15.18,0,0,1-2.32,7.71A16,16,0,0,1,24,39.23q-3.39,2-5.72.72t-2.32-5a15.18,15.18,0,0,1,2.32-7.71A16,16,0,0,1,24,21.33Zm6,16.65c1.68-1,3.1-1.15,4.27-.51s1.76,1.87,1.76,3.73v19a5.6,5.6,0,0,1-.88,2.87,5.89,5.89,0,0,1-2.14,2.21l-2,1.16v19a5.68,5.68,0,0,1-.88,2.89,6.06,6.06,0,0,1-2.14,2.21l-8,4.64a2.16,2.16,0,0,1-2.14.26A1.93,1.93,0,0,1,17,93.6v-19l-2,1.16a2.11,2.11,0,0,1-2.14.26A1.89,1.89,0,0,1,12,74.15v-19a11.26,11.26,0,0,1,1.76-5.76A11.94,11.94,0,0,1,18,45l1.38-.8A11.24,11.24,0,0,0,24,42.59a20.53,20.53,0,0,0,4.65-3.81Z" id="el_QSH4Pjktl_p"/><path d="M21.92,42l-3.61-2.08L29.75,20.62l3.72,2.14Z" id="el_yrRiA_qjp-v"/><path d="M21.48,97.55l-3.61-2.08.19-17.38H16.45L12.85,76l.92-15.25,20.75-23.2,3.43,2L23.25,75Z" id="el_wj5iKVi5zfl"/><path d="M27.64,23.41q3.39-2,5.72-.72t2.32,5a15.18,15.18,0,0,1-2.32,7.71,16,16,0,0,1-5.72,5.88q-3.39,2-5.72.72t-2.32-5a15.18,15.18,0,0,1,2.32-7.71A16,16,0,0,1,27.64,23.41Zm6,16.65c1.68-1,3.1-1.15,4.27-.51s1.76,1.87,1.76,3.73v19a5.6,5.6,0,0,1-.88,2.87,5.89,5.89,0,0,1-2.14,2.21l-2,1.16v19a5.68,5.68,0,0,1-.88,2.89,6.06,6.06,0,0,1-2.14,2.21l-8,4.64a2.16,2.16,0,0,1-2.14.26,1.93,1.93,0,0,1-.88-1.88v-19l-2,1.16a2.11,2.11,0,0,1-2.14.26,1.89,1.89,0,0,1-.88-1.85v-19a11.26,11.26,0,0,1,1.76-5.76A11.94,11.94,0,0,1,21.6,47l1.38-.8a11.24,11.24,0,0,0,4.65-1.56,20.53,20.53,0,0,0,4.65-3.81Z" id="el_Duu4fZ7XyUP"/></g><g id="el_Q1e3af-SayF" data-name="Right person"><path d="M226.25,21.14c2.33-1.34,4.46-2.81,6.4-2.87,5.76-.2,10.69,5.42,12.86,11.22,1.58,4.22,2.08,9.7-2.24,12.08l-1.4.81a26.61,26.61,0,0,1,2.54,1.47A14.21,14.21,0,0,1,250.56,55q0,9.58,0,19.18a3.92,3.92,0,0,1-1.83,3.44l-3.19,1.85c0,4.73,0,9.45,0,14.18a3.93,3.93,0,0,1-1.81,3.43c-2.08,1.15-4.11,3-6.37,2.37a5.34,5.34,0,0,1-1.2-.51c-2.89-1.65-5.93-3.1-8.63-5a8.09,8.09,0,0,1-3.42-6.32v-18c-2.65-1.53-5-4.13-5-7.28q0-9.59,0-19.18a5.91,5.91,0,0,1,2.72-5.26c1.19-.69,2.37-1.39,3.57-2.06,0,0-2.26-5-2.26-8.14,0-2.47.75-5,2.95-6.45Zm-2.67,20.08c-.62.36-.73,1.25-.75,2,0,6.38-.16,12.77,0,19.15a4.26,4.26,0,0,0,2.05,3.38l2,1.18a2.56,2.56,0,0,1,.89,1.19,1.88,1.88,0,0,1,.05.43c0,6.37-.16,12.73,0,19.09A4.25,4.25,0,0,0,229.91,91c2.71,1.57,5.39,3.2,8.14,4.7.13.07.33.14.33.14l3.39-2a1.7,1.7,0,0,0,0-.3V78.27a1.78,1.78,0,0,1,1.57-1.85l3.44-2a1.52,1.52,0,0,0,0-.22c.16-6.38,0-12.77,0-19.15a10.37,10.37,0,0,0-5.1-8.5l-1-.6-.51-.08a14,14,0,0,1-4.57-1.74,2.43,2.43,0,0,1-1-1.85,2.11,2.11,0,0,1,2.25-1.68c1.5-.06,3.1-1.43,4.7-2.4,1.36-.85,1.29-2.75,1.19-4.1-.41-5.32-4.09-10.75-9-12-1.78-.45-3.76,1.11-5.71,2.29-1.09.68-1.21,2.16-1.21,3.3A14.35,14.35,0,0,0,230,36a2.27,2.27,0,0,1,.32,1.55A2.12,2.12,0,0,1,227.91,39a2.29,2.29,0,0,0-.83.22C225.91,39.87,224.76,40.57,223.57,41.22Z" id="el_PKd_QUdRrOi"/><path d="M236.62,21.33q-3.39-2-5.72-.72t-2.32,5a15.18,15.18,0,0,0,2.32,7.71,16,16,0,0,0,5.72,5.88q3.39,2,5.72.72t2.32-5a15.18,15.18,0,0,0-2.32-7.71A16,16,0,0,0,236.62,21.33Zm-6,16.65c-1.68-1-3.1-1.15-4.27-.51s-1.76,1.87-1.76,3.73v19a5.6,5.6,0,0,0,.88,2.87,5.89,5.89,0,0,0,2.14,2.21l2,1.16v19a5.68,5.68,0,0,0,.88,2.89,6.06,6.06,0,0,0,2.14,2.21l8,4.64a2.16,2.16,0,0,0,2.14.26,1.93,1.93,0,0,0,.88-1.88v-19l2,1.16a2.11,2.11,0,0,0,2.14.26,1.89,1.89,0,0,0,.88-1.85v-19a11.26,11.26,0,0,0-1.76-5.76A11.94,11.94,0,0,0,242.66,45l-1.38-.8a11.24,11.24,0,0,1-4.65-1.56A20.53,20.53,0,0,1,232,38.78Z" id="el_wFycjINuDJg"/><path d="M238.74,42l3.61-2.08L230.91,20.62l-3.72,2.14Z" id="el_dpHjXBFFSyA"/><path d="M239.18,97.55l3.61-2.08L242.6,78.1h1.61l3.6-2.08-.92-15.25-20.75-23.2-3.43,2L237.4,75Z" id="el_PDd0uxsO17i"/><path d="M233,23.41q-3.39-2-5.72-.72t-2.32,5a15.18,15.18,0,0,0,2.32,7.71A16,16,0,0,0,233,41.31q3.39,2,5.72.72t2.32-5a15.18,15.18,0,0,0-2.32-7.71A16,16,0,0,0,233,23.41Zm-6,16.65c-1.68-1-3.1-1.15-4.27-.51S221,41.42,221,43.29v19a5.6,5.6,0,0,0,.88,2.87A5.89,5.89,0,0,0,224,67.38l2,1.16v19a5.68,5.68,0,0,0,.88,2.89A6.06,6.06,0,0,0,229,92.66l8,4.64a2.16,2.16,0,0,0,2.14.26,1.93,1.93,0,0,0,.88-1.88v-19l2,1.16a2.11,2.11,0,0,0,2.14.26,1.89,1.89,0,0,0,.88-1.85v-19a11.26,11.26,0,0,0-1.76-5.76A11.94,11.94,0,0,0,239.05,47l-1.38-.8A11.24,11.24,0,0,1,233,44.67a20.53,20.53,0,0,1-4.65-3.81Z" id="el_xdMVECr2C0M"/></g></g><g id="el_RGLfW2redKD" data-name="Pickaxe coins computers"><path d="M87.51,206.66a12.06,12.06,0,0,1,2.92.33,6.55,6.55,0,0,1,2.13.88,1.52,1.52,0,0,1,.79,1.22v6.81c0,.53-.36,1-1.08,1.42a7.76,7.76,0,0,1-2.81.87v1.61a1.52,1.52,0,0,1-.79,1.22,6.55,6.55,0,0,1-2.13.88,12.94,12.94,0,0,1-5.84,0,6.55,6.55,0,0,1-2.13-.88,1.52,1.52,0,0,1-.79-1.22V213q0-.79,1.08-1.42a7.82,7.82,0,0,1,2.81-.87v-1.61a1.52,1.52,0,0,1,.79-1.22,6.55,6.55,0,0,1,2.13-.88A12.05,12.05,0,0,1,87.51,206.66Z" id="el_iuuFY55ytj7"/><path d="M87.51,206.66a12.29,12.29,0,0,1,2.92.33,6.58,6.58,0,0,1,2.13.88,1.53,1.53,0,0,1,.79,1.22v6.81q0,.79-1.08,1.42a7.89,7.89,0,0,1-2.82.87v1.61a1.53,1.53,0,0,1-.79,1.22,6.46,6.46,0,0,1-2.13.88,12.81,12.81,0,0,1-5.84,0,6.46,6.46,0,0,1-2.13-.88,1.53,1.53,0,0,1-.79-1.22V213q0-.79,1.08-1.42a7.8,7.8,0,0,1,2.82-.87V209.1a1.53,1.53,0,0,1,.79-1.22,6.58,6.58,0,0,1,2.13-.88A12.29,12.29,0,0,1,87.51,206.66Zm.49,13V218.5a7.72,7.72,0,0,1-2,.61,13.51,13.51,0,0,1-4.84,0,7.72,7.72,0,0,1-2-.61v1.19a3,3,0,0,0,1.34.7,11.93,11.93,0,0,0,6.09,0A3,3,0,0,0,88,219.69Zm0-2.92V215.4a6.81,6.81,0,0,1-2,.74,11.4,11.4,0,0,1-4.84,0,6.81,6.81,0,0,1-2-.74v1.37a3,3,0,0,0,1.34.7,11.93,11.93,0,0,0,6.09,0A3,3,0,0,0,88,216.76Zm-4.38-1.82a10,10,0,0,0,3.1-.43c.85-.29,1.28-.63,1.28-1s-.43-.75-1.28-1a11.52,11.52,0,0,0-6.21,0c-.85.29-1.28.63-1.28,1s.43.75,1.28,1A10,10,0,0,0,83.61,214.94Zm8.28.85V214.6a8.61,8.61,0,0,1-2.43.67v1.46a9.36,9.36,0,0,0,1.64-.45A1.94,1.94,0,0,0,91.89,215.79Zm0-2.92V211.5a7.48,7.48,0,0,1-2.65.85,1.2,1.2,0,0,1,.21.64v.82a9.34,9.34,0,0,0,1.64-.46A1.84,1.84,0,0,0,91.89,212.87ZM87.51,211a10,10,0,0,0,3.1-.43c.85-.29,1.28-.63,1.28-1s-.43-.75-1.28-1a11.52,11.52,0,0,0-6.21,0c-.85.29-1.28.62-1.28,1s.4.73,1.19,1A11.08,11.08,0,0,1,87,211l.12,0Z" id="el_zuNrV4CgWZc"/><path d="M105.16,196.24a1.73,1.73,0,0,1,1.73,1.73v15a1.73,1.73,0,0,1-1.73,1.73H97.09a1.73,1.73,0,0,1-1.73-1.73V198a1.73,1.73,0,0,1,1.73-1.73Zm-4,17.29a1.18,1.18,0,1,0-.81-.35A1.09,1.09,0,0,0,101.12,213.53Zm4-3.89V198.4a.42.42,0,0,0-.13-.31.43.43,0,0,0-.31-.13h-7.2a.43.43,0,0,0-.31.13.42.42,0,0,0-.13.31v11.24a.42.42,0,0,0,.13.31.43.43,0,0,0,.31.13h7.2a.43.43,0,0,0,.31-.13A.42.42,0,0,0,105.16,209.64Z" id="el_Zfo8_z6I3mU"/><path d="M99,203.77a.57.57,0,0,0-.58.58v2.3a.57.57,0,0,0,.58.58h4.23a.57.57,0,0,0,.58-.58v-2.3a.57.57,0,0,0-.58-.58h-.29v-.86a1.77,1.77,0,0,0-.25-.91,1.83,1.83,0,0,0-.67-.66,1.81,1.81,0,0,0-1.82,0,1.83,1.83,0,0,0-.67.66,1.77,1.77,0,0,0-.25.91v.86Zm1.25,0v-.86a.86.86,0,1,1,1.73,0v.86Z" id="el_BQ5DJd7D1do"/><g id="el_wuPY3XZf4YA" data-name="Money Right bottom"><path d="M173.15,206.66a12.06,12.06,0,0,0-2.92.33,6.55,6.55,0,0,0-2.13.88,1.52,1.52,0,0,0-.79,1.22v6.81c0,.53.36,1,1.08,1.42a7.76,7.76,0,0,0,2.81.87v1.61A1.52,1.52,0,0,0,172,221a6.55,6.55,0,0,0,2.13.88,12.94,12.94,0,0,0,5.84,0,6.55,6.55,0,0,0,2.13-.88,1.52,1.52,0,0,0,.79-1.22V213q0-.79-1.08-1.42a7.82,7.82,0,0,0-2.81-.87v-1.61a1.52,1.52,0,0,0-.79-1.22,6.55,6.55,0,0,0-2.13-.88A12.05,12.05,0,0,0,173.15,206.66Z" id="el_zep19GgscRn"/><path d="M173.15,206.66a12.29,12.29,0,0,0-2.92.33,6.58,6.58,0,0,0-2.13.88,1.53,1.53,0,0,0-.79,1.22v6.81q0,.79,1.08,1.42a7.89,7.89,0,0,0,2.82.87v1.61A1.53,1.53,0,0,0,172,221a6.46,6.46,0,0,0,2.13.88,12.81,12.81,0,0,0,5.84,0,6.46,6.46,0,0,0,2.13-.88,1.53,1.53,0,0,0,.79-1.22V213q0-.79-1.08-1.42a7.8,7.8,0,0,0-2.82-.87V209.1a1.53,1.53,0,0,0-.79-1.22,6.58,6.58,0,0,0-2.13-.88A12.29,12.29,0,0,0,173.15,206.66Zm-.49,13V218.5a7.72,7.72,0,0,0,2,.61,13.51,13.51,0,0,0,4.84,0,7.72,7.72,0,0,0,2-.61v1.19a3,3,0,0,1-1.34.7,11.93,11.93,0,0,1-6.09,0A3,3,0,0,1,172.66,219.69Zm0-2.92V215.4a6.81,6.81,0,0,0,2,.74,11.4,11.4,0,0,0,4.84,0,6.81,6.81,0,0,0,2-.74v1.37a3,3,0,0,1-1.34.7,11.93,11.93,0,0,1-6.09,0A3,3,0,0,1,172.66,216.76Zm4.38-1.82a10,10,0,0,1-3.1-.43c-.85-.29-1.28-.63-1.28-1s.43-.75,1.28-1a11.52,11.52,0,0,1,6.21,0c.85.29,1.28.63,1.28,1s-.43.75-1.28,1A10,10,0,0,1,177,214.94Zm-8.28.85V214.6a8.61,8.61,0,0,0,2.43.67v1.46a9.36,9.36,0,0,1-1.64-.45A1.94,1.94,0,0,1,168.77,215.79Zm0-2.92V211.5a7.48,7.48,0,0,0,2.65.85,1.2,1.2,0,0,0-.21.64v.82a9.34,9.34,0,0,1-1.64-.46A1.84,1.84,0,0,1,168.77,212.87Zm4.38-1.82a10,10,0,0,1-3.1-.43c-.85-.29-1.28-.63-1.28-1s.43-.75,1.28-1a11.52,11.52,0,0,1,6.21,0c.85.29,1.28.62,1.28,1s-.4.73-1.19,1a11.08,11.08,0,0,0-2.74.43l-.12,0Z" id="el_U77NojEb9cz"/></g><g id="el_8R7psOtqpBz"><rect x="146.75" y="197.11" width="15.34" height="16.69" id="el_x5X-CgfEvqT"/><g id="el_WTOhhqQ-GMI" data-name="Computer"><path d="M165.29,210.91a.56.56,0,0,1,.41.16.6.6,0,0,1,.16.42v.58a2.34,2.34,0,0,1-2.31,2.3H145.12a2.34,2.34,0,0,1-2.31-2.3v-.58a.59.59,0,0,1,.16-.42.56.56,0,0,1,.41-.16H152a1.13,1.13,0,0,0,.36.77,1.11,1.11,0,0,0,.83.38h2.2a1.2,1.2,0,0,0,.83-.3,1.23,1.23,0,0,0,.36-.85Zm-1.73-13.26v12.11H145.12V197.65a1.65,1.65,0,0,1,.5-1.22,1.69,1.69,0,0,1,1.23-.51h15a1.69,1.69,0,0,1,1.22.51A1.65,1.65,0,0,1,163.56,197.65Zm-2.31,9.8v-9.23H147.43v9.23Z" id="el_hDcitrH32Cn"/><path d="M152.23,202.6a.57.57,0,0,0-.58.58v2.3a.57.57,0,0,0,.58.58h4.23a.57.57,0,0,0,.58-.58v-2.3a.57.57,0,0,0-.58-.58h-.29v-.86a1.77,1.77,0,0,0-.25-.91,1.83,1.83,0,0,0-.67-.66,1.81,1.81,0,0,0-1.82,0,1.83,1.83,0,0,0-.67.66,1.77,1.77,0,0,0-.25.91v.86Zm1.25,0v-.86a.86.86,0,1,1,1.73,0v.86Z" id="el_vyc8GNALZJ3"/></g></g><g id="el_c35i-onjpxK" data-name="Money Left"><path d="M80.91,81.81a3.74,3.74,0,0,1,3.74,3.74V93a3.74,3.74,0,0,1-3.74,3.74H78.7v2.32a3.65,3.65,0,0,1-3.65,3.65H67a3.65,3.65,0,0,1-3.65-3.65v-7.3A3.65,3.65,0,0,1,67,88.12h2.33V85.54a3.74,3.74,0,0,1,3.74-3.74Z" id="el_LNOtpNi3RDt"/><g id="el_UZy9CaE2Iij" data-name="Money left"><path d="M76.9,80.37a19.14,19.14,0,0,1,4.55.52,10.24,10.24,0,0,1,3.32,1.37A2.38,2.38,0,0,1,86,84.16V94.77Q86,96,84.32,97a12.29,12.29,0,0,1-4.38,1.35v2.51a2.38,2.38,0,0,1-1.23,1.9,10.06,10.06,0,0,1-3.32,1.37,19.95,19.95,0,0,1-9.1,0A10.06,10.06,0,0,1,63,102.74a2.38,2.38,0,0,1-1.23-1.9V90.23q0-1.24,1.68-2.21a12.14,12.14,0,0,1,4.38-1.35V84.16A2.38,2.38,0,0,1,69,82.26a10.24,10.24,0,0,1,3.32-1.37A19.14,19.14,0,0,1,76.9,80.37Zm.76,20.28V98.8a12,12,0,0,1-3.06.95,21,21,0,0,1-7.53,0A12,12,0,0,1,64,98.8v1.85a4.72,4.72,0,0,0,2.08,1.09,18.57,18.57,0,0,0,9.47,0A4.71,4.71,0,0,0,77.66,100.65Zm0-4.55V94a10.6,10.6,0,0,1-3.06,1.16,17.75,17.75,0,0,1-7.53,0A10.6,10.6,0,0,1,64,94V96.1a4.72,4.72,0,0,0,2.08,1.09,18.57,18.57,0,0,0,9.47,0A4.72,4.72,0,0,0,77.66,96.1Zm-6.82-2.84a15.56,15.56,0,0,0,4.83-.66c1.33-.44,2-1,2-1.61s-.66-1.17-2-1.62a17.94,17.94,0,0,0-9.67,0c-1.33.44-2,1-2,1.62s.66,1.16,2,1.61A15.56,15.56,0,0,0,70.84,93.26Zm12.89,1.33V92.74a13.41,13.41,0,0,1-3.79,1v2.27a14.57,14.57,0,0,0,2.56-.7A3,3,0,0,0,83.73,94.59Zm0-4.55V87.91a11.65,11.65,0,0,1-4.12,1.33,1.87,1.87,0,0,1,.33,1v1.28a14.54,14.54,0,0,0,2.56-.71A2.86,2.86,0,0,0,83.73,90ZM76.9,87.2a15.56,15.56,0,0,0,4.83-.66c1.33-.44,2-1,2-1.61s-.66-1.17-2-1.62a17.94,17.94,0,0,0-9.67,0c-1.33.44-2,1-2,1.59s.62,1.14,1.85,1.58a17.26,17.26,0,0,1,4.26.66l.19,0Z" id="el_J4sF2DnH13g"/></g></g><g id="el_DJMKgTE7Uq1" data-name="Money Right"><path d="M180,81.81a3.74,3.74,0,0,0-3.74,3.74V93A3.74,3.74,0,0,0,180,96.75h2.21v2.32a3.65,3.65,0,0,0,3.65,3.65h8a3.65,3.65,0,0,0,3.65-3.65v-7.3a3.65,3.65,0,0,0-3.65-3.65h-2.33V85.54a3.74,3.74,0,0,0-3.74-3.74Z" id="el_A-SNMp9KUJO"/><g id="el_JcnNNDh0ZPr" data-name="Money right"><path d="M183.75,80.37a19.14,19.14,0,0,0-4.55.52,10.24,10.24,0,0,0-3.32,1.37,2.38,2.38,0,0,0-1.23,1.9V94.77q0,1.24,1.68,2.21a12.29,12.29,0,0,0,4.38,1.35v2.51a2.38,2.38,0,0,0,1.23,1.9,10.06,10.06,0,0,0,3.32,1.37,19.95,19.95,0,0,0,9.1,0,10.06,10.06,0,0,0,3.32-1.37,2.38,2.38,0,0,0,1.23-1.9V90.23q0-1.24-1.68-2.21a12.14,12.14,0,0,0-4.38-1.35V84.16a2.38,2.38,0,0,0-1.23-1.9,10.24,10.24,0,0,0-3.32-1.37A19.14,19.14,0,0,0,183.75,80.37ZM183,100.65V98.8a12,12,0,0,0,3.06.95,21,21,0,0,0,7.53,0,12,12,0,0,0,3.06-.95v1.85a4.72,4.72,0,0,1-2.08,1.09,18.57,18.57,0,0,1-9.47,0A4.71,4.71,0,0,1,183,100.65Zm0-4.55V94A10.6,10.6,0,0,0,186,95.13a17.75,17.75,0,0,0,7.53,0A10.6,10.6,0,0,0,196.64,94V96.1a4.72,4.72,0,0,1-2.08,1.09,18.57,18.57,0,0,1-9.47,0A4.72,4.72,0,0,1,183,96.1Zm6.82-2.84A15.56,15.56,0,0,1,185,92.6c-1.33-.44-2-1-2-1.61s.66-1.17,2-1.62a17.94,17.94,0,0,1,9.67,0c1.33.44,2,1,2,1.62s-.66,1.16-2,1.61A15.56,15.56,0,0,1,189.82,93.26Zm-12.89,1.33V92.74a13.41,13.41,0,0,0,3.79,1v2.27a14.57,14.57,0,0,1-2.56-.7A3,3,0,0,1,176.93,94.59Zm0-4.55V87.91a11.65,11.65,0,0,0,4.12,1.33,1.87,1.87,0,0,0-.33,1v1.28a14.54,14.54,0,0,1-2.56-.71A2.86,2.86,0,0,1,176.93,90Zm6.82-2.84a15.56,15.56,0,0,1-4.83-.66c-1.33-.44-2-1-2-1.61s.66-1.17,2-1.62a17.94,17.94,0,0,1,9.67,0c1.33.44,2,1,2,1.59S190,86,188.73,86.49a17.26,17.26,0,0,0-4.26.66l-.19,0Z" id="el_WBBErKl_eKT"/></g></g><path d="M68,29.66a.26.26,0,0,0,0-.36h0a.24.24,0,0,1,0-.34l1.64-1.64a.24.24,0,0,1,.34,0h0a.27.27,0,0,0,.36,0,21.08,21.08,0,0,1,8.46-4.41.35.35,0,0,1,.27.63A49.63,49.63,0,0,0,72.1,29a.35.35,0,0,0,0,.51l.45.45-2,2-.45-.45a.35.35,0,0,0-.51,0,49.29,49.29,0,0,0-5.41,6.92.35.35,0,0,1-.64-.27A21.16,21.16,0,0,1,68,29.66Z" id="el_t-th9c9JwqC"/><rect x="75.9" y="27.28" width="2.21" height="18.18" id="el_0CX0ZfwQnr9"/><path d="M192.7,29.66a.26.26,0,0,1,0-.36h0a.24.24,0,0,0,0-.34l-1.64-1.64a.24.24,0,0,0-.34,0h0a.27.27,0,0,1-.36,0,21.08,21.08,0,0,0-8.46-4.41.35.35,0,0,0-.27.63A49.63,49.63,0,0,1,188.56,29a.35.35,0,0,1,0,.51l-.45.45,2,2,.45-.45a.35.35,0,0,1,.51,0,49.29,49.29,0,0,1,5.41,6.92.35.35,0,0,0,.64-.27A21.16,21.16,0,0,0,192.7,29.66Z" id="el_jyS43l82J2-"/><rect x="174.63" y="35.41" width="17.76" height="2.21" id="el_iZoRIi-RAXE"/></g><g id="el_I22PARFK6rS_ydOY0Wlzmqi" data-animator-group="true" data-animator-type="2"><g id="el_I22PARFK6rS" data-name="Smaller arrows"><g id="el_WWyFhMuduh6" data-name="Smaller arrows"><g id="el_nqyRlv7na7k" data-name="Left bottom arrow"><path d="M124.15,179.81c1.39.2,1.7,2.64-.13,2.73a1.74,1.74,0,0,1-1.24-.8A1.36,1.36,0,0,1,124,179.8Zm-5.47,0c1.39.2,1.7,2.64-.13,2.73a1.74,1.74,0,0,1-1.24-.8,1.36,1.36,0,0,1,1.24-1.93Zm-5.47,0c1.36.2,1.76,2.64-.13,2.73a1.74,1.74,0,0,1-1.24-.8,1.36,1.36,0,0,1,1.24-1.93Zm-5.47,0c1.34.19,1.82,2.63-.13,2.73a1.74,1.74,0,0,1-1-.47,1.38,1.38,0,0,1,1-2.26Zm16.53-5.39a1.44,1.44,0,0,1,1.17,1.35,1.67,1.67,0,0,1-.8,1.24,1.43,1.43,0,0,1-1.93-1.24S123.08,174.3,124.28,174.41Zm0-5.47a1.44,1.44,0,0,1,1.17,1.35,1.56,1.56,0,0,1-.38.94,1.39,1.39,0,0,1-2.36-.94S123.08,168.83,124.28,168.95Zm0-5.47a1.44,1.44,0,0,1,1.17,1.35,1.56,1.56,0,0,1-.38.94,1.39,1.39,0,0,1-2.36-.94S123,163.36,124.28,163.48Zm0-5.47a1.44,1.44,0,0,1,1.17,1.35s-.46,1.63-1.69,1.33c-.71-.18-1-1.33-1-1.33A1.43,1.43,0,0,1,124.28,158Zm0-5.47a1.44,1.44,0,0,1,1.17,1.35s-.22,1.22-1.17,1.35a1.43,1.43,0,0,1-1.56-1.35S123,152.43,124.28,152.55Zm0-5.47a1.43,1.43,0,0,1,1.17,1.35,1.7,1.7,0,0,1-.68,1.18,1.37,1.37,0,0,1-2-1.18S123,147,124.28,147.08Z" id="el_8TRSKPHoGcq"/></g><g id="el_juteeMrJsGu" data-name="Bottom Right arrow"><g id="el_X1pzYJVJudM" data-name="Right bottom arrrow"><path d="M136.77,179.81c1.36.2,1.76,2.64-.13,2.73a1.58,1.58,0,0,1-.94-.38A1.38,1.38,0,0,1,136.77,179.81Zm5.47,0c1.4.2,1.62,2.64-.13,2.73a1.58,1.58,0,0,1-.94-.38A1.38,1.38,0,0,1,142.24,179.81Zm5.47,0c1.34.19,1.82,2.63-.13,2.73a1.74,1.74,0,0,1-1-.47,1.38,1.38,0,0,1,1-2.26Zm5.47,0c1.36.2,1.76,2.64-.13,2.73a1.74,1.74,0,0,1-1.24-.8A1.36,1.36,0,0,1,153,179.8Zm-16.4-5.39a1.44,1.44,0,0,1,1.17,1.35,1.7,1.7,0,0,1-.68,1.18,1.37,1.37,0,0,1-2-1.18S135.54,174.29,136.77,174.41Zm0-5.47a1.44,1.44,0,0,1,1.17,1.35,1.74,1.74,0,0,1-.8,1.24,1.36,1.36,0,0,1-1.93-1.24S135.54,168.83,136.77,168.95Zm0-5.47a1.44,1.44,0,0,1,1.17,1.35s-.3,1.32-1.3,1.37a1.43,1.43,0,0,1-1.43-1.37S135.54,163.36,136.77,163.48Zm0-5.47a1.44,1.44,0,0,1,1.17,1.35s-.46,1.63-1.69,1.33c-.71-.18-1-1.33-1-1.33A1.42,1.42,0,0,1,136.77,158Zm0-5.47a1.44,1.44,0,0,1,1.17,1.35s-.3,1.32-1.3,1.37a1.43,1.43,0,0,1-1.43-1.37S135.54,152.43,136.77,152.55Zm0-5.47a1.43,1.43,0,0,1,1.17,1.35,1.74,1.74,0,0,1-.8,1.25,1.36,1.36,0,0,1-1.93-1.25S135.54,147,136.77,147.08Z" id="el_150MjQsFTqn"/></g><path d="M146.45,176.39a1.06,1.06,0,0,1,.36.1l7.72,3.86a.83.83,0,0,1,.33.27.93.93,0,0,1-.33,1.41l-7.72,3.86a.8.8,0,0,1-.36.1.93.93,0,0,1-1-.94v-7.73a.78.78,0,0,1,.06-.31A.81.81,0,0,1,146.45,176.39Z" id="el_jCzUvJ-bQuC"/><path d="M147.32,183.53l4.7-2.35-4.7-2.35Z" id="el_-L-6xE5oGgc"/></g><g id="el_tAf0XvT_pmp" data-name="Right top arrow 2"><path d="M206.64,68.06c1.36.22,1.78,2.62-.15,2.72a1.83,1.83,0,0,1-.7-.2A1.38,1.38,0,0,1,206.64,68.06Zm-5.47,0c1.34.22,1.84,2.62-.15,2.72a1.83,1.83,0,0,1-.7-.2A1.38,1.38,0,0,1,201.18,68.06Zm-5.47,0c1.39.22,1.73,2.62-.15,2.72,0,0-1.31-.3-1.36-1.29a1.31,1.31,0,0,1,1.36-1.44Zm-5.47,0c1.39.22,1.72,2.62-.15,2.72,0,0-1.31-.3-1.36-1.29a1.31,1.31,0,0,1,1.36-1.44Zm-5.47,0c1.39.22,1.73,2.62-.15,2.72,0,0-1.31-.3-1.36-1.29a1.31,1.31,0,0,1,1.36-1.44Zm-5.47,0c1.39.22,1.72,2.62-.15,2.72,0,0-1.31-.3-1.36-1.29a1.31,1.31,0,0,1,1.36-1.44Zm-5.47,0c1.41.23,1.65,2.62-.15,2.72,0,0-1.31-.3-1.36-1.29a1.31,1.31,0,0,1,1.36-1.44Zm-5.47,0c1.41.23,1.65,2.62-.15,2.72,0,0-1.31-.3-1.36-1.29a1.31,1.31,0,0,1,1.36-1.44Z" id="el_44N2rpoFezA"/><path d="M207.7,69.42,200,65.55v7.73Z" id="el_AGQcWc6pXvc"/><path d="M200,64.62a1.07,1.07,0,0,1,.36.1l7.72,3.86a.83.83,0,0,1,.33.27.93.93,0,0,1-.33,1.41l-7.72,3.86a.69.69,0,0,1-.62.08.92.92,0,0,1-.74-.92V65.55a.78.78,0,0,1,.06-.31A.81.81,0,0,1,200,64.62Zm.87,7.15,4.7-2.35-4.7-2.35Z" id="el_YUHea7V8abw"/></g><g id="el_pn4Dw6AtaW_" data-name="Right top arrow"><path d="M206.64,54.38c.9.15,1,.51,1.12.85a1.44,1.44,0,0,1-1.27,1.88,1.83,1.83,0,0,1-.7-.2A1.38,1.38,0,0,1,206.64,54.38Zm-5.47,0c.9.15,1,.51,1.12.85A1.44,1.44,0,0,1,201,57.1s-1.2-.23-1.35-1.14A1.42,1.42,0,0,1,201.18,54.38Zm-5.47,0c.9.15,1,.51,1.12.85a1.44,1.44,0,0,1-1.27,1.88,1.75,1.75,0,0,1-1.27-.86,1.35,1.35,0,0,1,1.27-1.87Zm-5.47,0c1.58.26,1.34,1.1,1.17,1.72s-1.32,1-1.32,1C188.61,57,188.1,54.26,190.24,54.38Zm-5.47,0c1.58.26,1.34,1.1,1.17,1.72s-1.32,1-1.32,1C183.14,57,182.63,54.26,184.78,54.38Zm-5.47,0c.9.15,1,.51,1.12.85a1.44,1.44,0,0,1-1.27,1.88,1.75,1.75,0,0,1-1.27-.86,1.35,1.35,0,0,1,1.27-1.87Zm-5.47,0c1.58.26,1.34,1.1,1.17,1.72s-1.32,1-1.32,1C172.26,57,171.6,54.25,173.84,54.38Zm-5.47,0c1.39.22,1.72,2.62-.15,2.72a1.75,1.75,0,0,1-1.27-.86,1.35,1.35,0,0,1,1.27-1.87Z" id="el_bqWvpq55W-x"/><g id="el_URewBnwzbm7" data-name="Right top arrow"><path d="M166.4,55.73l7.73,3.86V51.87Z" id="el_x8H94XFnjDU"/><path d="M174.17,50.93a.85.85,0,0,1,.31.07.9.9,0,0,1,.59.87V59.6c0,1.37-.91,1-1.36.84L166,56.57a.83.83,0,0,1-.33-.27.93.93,0,0,1,.33-1.41L173.71,51A.76.76,0,0,1,174.17,50.93Zm-5.68,4.8,4.7,2.35V53.39Z" id="el_52TbeTs2pfH"/></g></g><path d="M53.78,68.06c1.39.22,1.72,2.62-.15,2.72a1.7,1.7,0,0,1-1.21-.73A1.42,1.42,0,0,1,53.78,68.06Zm5.47,0c1.36.22,1.78,2.62-.15,2.72a1.7,1.7,0,0,1-1.21-.73A1.42,1.42,0,0,1,59.25,68.06Zm5.47,0c1.36.22,1.78,2.62-.15,2.72,0,0-1.54-.41-1.35-1.59A1.41,1.41,0,0,1,64.71,68.06Zm5.47,0c1.39.22,1.73,2.62-.15,2.72,0,0-1.54-.41-1.35-1.59A1.41,1.41,0,0,1,70.18,68.06Zm5.47,0c1.39.22,1.72,2.62-.15,2.72,0,0-1.2-.23-1.35-1.14A1.42,1.42,0,0,1,75.65,68.06Zm5.47,0c1.39.22,1.73,2.62-.15,2.72a1.7,1.7,0,0,1-1.21-.73A1.42,1.42,0,0,1,81.11,68.06Zm5.47,0c1.39.22,1.72,2.62-.15,2.72a1.7,1.7,0,0,1-1.21-.73A1.42,1.42,0,0,1,86.58,68.06Zm5.47,0c1.34.22,1.84,2.62-.15,2.72a1.7,1.7,0,0,1-1.21-.73A1.42,1.42,0,0,1,92,68.06Z" id="el_6tAoCvVOUDn"/><path d="M52.42,69.42l7.73-3.86v7.73Z" id="el_RXDu-8sJ_em"/><path d="M60.19,64.62a.84.84,0,0,1,.31.07.9.9,0,0,1,.59.87v7.73c0,1.37-.91,1-1.36.84L52,70.26a.83.83,0,0,1-.33-.27A.93.93,0,0,1,52,68.58l7.72-3.86A.76.76,0,0,1,60.19,64.62Zm-5.68,4.8,4.7,2.35V67.07Z" id="el_ZcTvDHtg1-8"/><path d="M53.78,54.38c1.34.22,1.84,2.62-.15,2.72a1.7,1.7,0,0,1-1.21-.73A1.42,1.42,0,0,1,53.78,54.38Zm5.47,0C60.64,54.6,61,57,59.1,57.1a1.7,1.7,0,0,1-1.21-.73A1.42,1.42,0,0,1,59.25,54.38Zm5.47,0c1.39.22,1.72,2.62-.15,2.72a1.66,1.66,0,0,1-1-.48A1.37,1.37,0,0,1,64.71,54.38Zm5.47,0C71.52,54.59,72,57,70,57.1c0,0-1.2-.23-1.35-1.14A1.42,1.42,0,0,1,70.18,54.38Zm5.47,0c.9.15,1,.51,1.12.85A1.44,1.44,0,0,1,75.5,57.1s-1.31-.3-1.36-1.29a1.31,1.31,0,0,1,1.36-1.44Zm5.47,0c.9.15,1,.51,1.12.85A1.44,1.44,0,0,1,81,57.1a1.7,1.7,0,0,1-1.21-.73A1.42,1.42,0,0,1,81.11,54.38Zm5.47,0c.9.15,1,.51,1.12.85a1.44,1.44,0,0,1-1.27,1.88s-1.31-.3-1.36-1.29a1.31,1.31,0,0,1,1.36-1.44Zm5.47,0c1.36.22,1.78,2.62-.15,2.72,0,0-1.31-.3-1.36-1.29a1.31,1.31,0,0,1,1.36-1.44Z" id="el_i4b-X6MMXgU"/><path d="M86.06,50.93a1.07,1.07,0,0,1,.36.1l7.72,3.86a.83.83,0,0,1,.33.27.93.93,0,0,1-.33,1.41l-7.72,3.86a.69.69,0,0,1-.62.08.92.92,0,0,1-.74-.92V51.87a.78.78,0,0,1,.06-.31A.81.81,0,0,1,86.06,50.93Z" id="el_ewihfpBl1gY"/><path d="M86.94,58.08l4.7-2.35-4.7-2.35Z" id="el_FaeWo6E5tTH"/></g><path d="M106.54,181.19l7.73-3.86V185Z" id="el_1Yyp_UD9bKJ"/><path d="M114.32,176.39a.83.83,0,0,1,.31.07.9.9,0,0,1,.59.87V185c0,1.37-.91,1-1.36.84L106.13,182c-.38-.2-.39-.33-.45-.5a.92.92,0,0,1,.45-1.18l7.72-3.86A.76.76,0,0,1,114.32,176.39Zm-5.68,4.8,4.7,2.35v-4.69Z" id="el_K0YpfkhAgTo"/></g></g><g id="el_P4u0RmAPe4t_3TXYu2nLx9a" data-animator-group="true" data-animator-type="2"><g id="el_P4u0RmAPe4t" data-name="Big dots"><g id="el_7go--05s7q7" data-name="Left dots"><path d="M97,125.11a1.38,1.38,0,0,1-.2,2.72,1.64,1.64,0,0,1-1.18-.68A1.41,1.41,0,0,1,97,125.11Zm-10.93,0a1.38,1.38,0,0,1-.2,2.72,1.64,1.64,0,0,1-1.18-.68A1.41,1.41,0,0,1,86.09,125.11Zm-5.47,0a1.38,1.38,0,0,1-.2,2.72s-1.13-.17-1.33-1.06A1.41,1.41,0,0,1,80.62,125.11Zm-54.66,0a1.38,1.38,0,0,1-.2,2.72,1.64,1.64,0,0,1-1.18-.68A1.41,1.41,0,0,1,26,125.11Zm5.47,0a1.38,1.38,0,0,1-.2,2.72s-1.13-.17-1.33-1.06A1.41,1.41,0,0,1,31.43,125.11Zm5.47,0a1.38,1.38,0,0,1-.2,2.72,1.64,1.64,0,0,1-1.18-.68A1.41,1.41,0,0,1,36.9,125.11Zm5.47,0a1.38,1.38,0,0,1-.2,2.72s-1.13-.17-1.33-1.06A1.41,1.41,0,0,1,42.36,125.11Zm5.47,0a1.38,1.38,0,0,1-.2,2.72s-1.13-.17-1.33-1.06A1.41,1.41,0,0,1,47.83,125.11Zm5.47,0c1.32.3,1.68,2.58-.2,2.72a1.64,1.64,0,0,1-1.18-.68A1.41,1.41,0,0,1,53.29,125.11Zm5.47,0a1.38,1.38,0,0,1-.2,2.72,1.9,1.9,0,0,1-.93-.37A1.4,1.4,0,0,1,58.76,125.11Zm5.47,0a1.38,1.38,0,0,1-.2,2.72s-1.13-.17-1.33-1.06A1.41,1.41,0,0,1,64.23,125.11Zm5.47,0a1.38,1.38,0,0,1-.2,2.72,1.64,1.64,0,0,1-1.18-.68A1.41,1.41,0,0,1,69.69,125.11Zm5.47,0a1.38,1.38,0,0,1-.2,2.72,1.64,1.64,0,0,1-1.18-.68A1.41,1.41,0,0,1,75.16,125.11Zm16.4,0a1.38,1.38,0,0,1-.2,2.72s-1.13-.17-1.33-1.06A1.41,1.41,0,0,1,91.56,125.11Zm-66.2-4.73c.91.28,1,.45,1.06,1.33,0,0-.17,1.13-1.06,1.33a1.43,1.43,0,0,1-1.67-1.33A1.4,1.4,0,0,1,25.35,120.38Zm0-5.47c.91.28,1,.45,1.06,1.33,0,0-.17,1.13-1.06,1.33a1.43,1.43,0,0,1-1.67-1.33A1.4,1.4,0,0,1,25.35,114.91Zm0-5.47c.91.28,1,.45,1.06,1.33a1.65,1.65,0,0,1-.68,1.19,1.43,1.43,0,0,1-2-1.19A1.4,1.4,0,0,1,25.35,109.44Z" id="el_lea-uXAMZWa"/></g><g id="el_phFahJoHW8f" data-name="Right dots"><path d="M164,125.11a1.38,1.38,0,0,1-.2,2.72,1.87,1.87,0,0,1-.77-.24A1.4,1.4,0,0,1,164,125.11Zm10.93,0a1.38,1.38,0,0,1-.2,2.72,1.64,1.64,0,0,1-1.18-.68A1.41,1.41,0,0,1,175,125.11Zm5.47,0a1.38,1.38,0,0,1-.2,2.72,1.6,1.6,0,0,1-1.07-.52A1.41,1.41,0,0,1,180.44,125.11Zm54.66,0a1.38,1.38,0,0,1-.2,2.72,1.88,1.88,0,0,1-.77-.24A1.4,1.4,0,0,1,235.1,125.11Zm-5.47,0c1.32.3,1.68,2.58-.2,2.72a1.87,1.87,0,0,1-.77-.24A1.4,1.4,0,0,1,229.64,125.11Zm-5.47,0a1.38,1.38,0,0,1-.2,2.72,1.6,1.6,0,0,1-1.07-.52A1.41,1.41,0,0,1,224.17,125.11Zm-5.47,0a1.39,1.39,0,0,1-.2,2.72,1.6,1.6,0,0,1-1.07-.52A1.41,1.41,0,0,1,218.7,125.11Zm-5.47,0a1.38,1.38,0,0,1-.2,2.72,1.64,1.64,0,0,1-1.18-.68A1.41,1.41,0,0,1,213.24,125.11Zm-5.47,0a1.38,1.38,0,0,1-.2,2.72,1.88,1.88,0,0,1-.77-.24A1.4,1.4,0,0,1,207.77,125.11Zm-5.47,0a1.38,1.38,0,0,1-.2,2.72,1.87,1.87,0,0,1-.77-.24A1.4,1.4,0,0,1,202.31,125.11Zm-5.47,0c1.32.3,1.68,2.58-.2,2.72a1.88,1.88,0,0,1-.77-.24A1.4,1.4,0,0,1,196.84,125.11Zm-5.47,0a1.38,1.38,0,0,1-.2,2.72,1.6,1.6,0,0,1-1.07-.52A1.41,1.41,0,0,1,191.37,125.11Zm-5.47,0a1.38,1.38,0,0,1-.2,2.72,1.6,1.6,0,0,1-1.07-.52A1.41,1.41,0,0,1,185.91,125.11Zm-16.4,0a1.38,1.38,0,0,1-.2,2.72,1.88,1.88,0,0,1-.77-.24A1.4,1.4,0,0,1,169.51,125.11Zm66.4-4.73c.91.28,1,.45,1.06,1.33a1.59,1.59,0,0,1-.51,1.07,1.43,1.43,0,0,1-2.22-1.07A1.4,1.4,0,0,1,235.91,120.38Zm0-5.47c.91.28,1,.45,1.06,1.33a1.67,1.67,0,0,1-.87,1.27,1.43,1.43,0,0,1-1.87-1.27A1.4,1.4,0,0,1,235.91,114.91Zm0-5.47c.91.28,1,.45,1.06,1.33a1.69,1.69,0,0,1-.87,1.27,1.44,1.44,0,0,1-1.87-1.27A1.4,1.4,0,0,1,235.91,109.44Z" id="el_v5BOI-BMfe0"/></g></g></g><g id="el_GI6eXqv-tvp_Ftk16evbuy" data-animator-group="true" data-animator-type="2"><g id="el_GI6eXqv-tvp" data-name="Middle Big arrows"><path d="M106.89,118.56l9.74-9.69v19.38Z" id="el_vltaOWufs1m"/><rect x="113.39" y="115.46" width="30.6" height="6.2" id="el_gD9aGr0wHRh"/><path d="M153.77,131.35,144,121.66V141Z" id="el_zINc8ivygAN"/><rect x="116.63" y="128.25" width="30.65" height="6.2" id="el_EiilfqfQ1x-"/></g></g><g id="el_KOv1UXjowzN"><path d="M135.15,93.08c-1,.08-1.7.1-2.16.1a27.23,27.23,0,0,1-27.24-27.24c0-.12,0-.24,0-.36V65.2h0V36.32h0c9.12-.14,31.63,1.85,44,19.11A27.26,27.26,0,0,1,153,81.38h0a16.91,16.91,0,0,1-8.44,9.23,21.19,21.19,0,0,1-2.69,1.12c4-15.17-1.22-37.16-24.24-47.72C131.58,52.65,142.63,74.48,135.15,93.08Z" id="el_zQMGBLLCAay"/></g></svg>