<svg id="el_mKpgjxt_i" data-name="Layer 1" xmlns="http://www.w3.org/2000/svg" viewBox="0 0 251 272"><style>@-webkit-keyframes el_dpSNcVi1JvU_Animation{22%{opacity: 0;}27.33%{opacity: 1;}70%{opacity: 1;}76%{opacity: 0;}0%{opacity: 0;}100%{opacity: 0;}}@keyframes el_dpSNcVi1JvU_Animation{22%{opacity: 0;}27.33%{opacity: 1;}70%{opacity: 1;}76%{opacity: 0;}0%{opacity: 0;}100%{opacity: 0;}}@-webkit-keyframes el_veHIClMozl0_Animation{22%{opacity: 0;}27.33%{opacity: 1;}70%{opacity: 1;}76%{opacity: 0;}0%{opacity: 0;}100%{opacity: 0;}}@keyframes el_veHIClMozl0_Animation{22%{opacity: 0;}27.33%{opacity: 1;}70%{opacity: 1;}76%{opacity: 0;}0%{opacity: 0;}100%{opacity: 0;}}@-webkit-keyframes el_ckhE76LeYqG_Animation{26%{opacity: 0;}30%{opacity: 1;}70%{opacity: 1;}76%{opacity: 0;}0%{opacity: 0;}100%{opacity: 0;}}@keyframes el_ckhE76LeYqG_Animation{26%{opacity: 0;}30%{opacity: 1;}70%{opacity: 1;}76%{opacity: 0;}0%{opacity: 0;}100%{opacity: 0;}}@-webkit-keyframes el_2zX3l_A7Mof_Animation{26%{opacity: 0;}30%{opacity: 1;}70%{opacity: 1;}76%{opacity: 0;}0%{opacity: 0;}100%{opacity: 0;}}@keyframes el_2zX3l_A7Mof_Animation{26%{opacity: 0;}30%{opacity: 1;}70%{opacity: 1;}76%{opacity: 0;}0%{opacity: 0;}100%{opacity: 0;}}@-webkit-keyframes el_dQloVhny5a2_Animation{26%{opacity: 0;}30%{opacity: 1;}70%{opacity: 1;}76%{opacity: 0;}0%{opacity: 0;}100%{opacity: 0;}}@keyframes el_dQloVhny5a2_Animation{26%{opacity: 0;}30%{opacity: 1;}70%{opacity: 1;}76%{opacity: 0;}0%{opacity: 0;}100%{opacity: 0;}}@-webkit-keyframes el_QLqmqFqGZxx_Animation{26%{opacity: 0;}30%{opacity: 1;}70%{opacity: 1;}76%{opacity: 0;}0%{opacity: 0;}100%{opacity: 0;}}@keyframes el_QLqmqFqGZxx_Animation{26%{opacity: 0;}30%{opacity: 1;}70%{opacity: 1;}76%{opacity: 0;}0%{opacity: 0;}100%{opacity: 0;}}@-webkit-keyframes el_xX63GpANaPZ_Animation{26%{opacity: 0;}30%{opacity: 1;}50%{opacity: 1;}56.00%{opacity: 0;}100%{opacity: 0;}0%{opacity: 0;}}@keyframes el_xX63GpANaPZ_Animation{26%{opacity: 0;}30%{opacity: 1;}50%{opacity: 1;}56.00%{opacity: 0;}100%{opacity: 0;}0%{opacity: 0;}}@-webkit-keyframes el_WyYpQjYJaiJ_Animation{26%{opacity: 0;}30%{opacity: 1;}50%{opacity: 1;}56.00%{opacity: 0;}100%{opacity: 0;}0%{opacity: 0;}}@keyframes el_WyYpQjYJaiJ_Animation{26%{opacity: 0;}30%{opacity: 1;}50%{opacity: 1;}56.00%{opacity: 0;}100%{opacity: 0;}0%{opacity: 0;}}@-webkit-keyframes el_xXf-fM10HOG_HOT0VU87s_Animation{26%{-webkit-transform: translate(26.133996963500977px, 28.89999771118164px) translate(-26.133996963500977px, -28.89999771118164px) translate(0px, 30px);transform: translate(26.133996963500977px, 28.89999771118164px) translate(-26.133996963500977px, -28.89999771118164px) translate(0px, 30px);}31.33%{-webkit-transform: translate(26.133996963500977px, 28.89999771118164px) translate(-26.133996963500977px, -28.89999771118164px) translate(0px, 0px);transform: translate(26.133996963500977px, 28.89999771118164px) translate(-26.133996963500977px, -28.89999771118164px) translate(0px, 0px);}68%{-webkit-transform: translate(26.133996963500977px, 28.89999771118164px) translate(-26.133996963500977px, -28.89999771118164px) translate(0px, 0px);transform: translate(26.133996963500977px, 28.89999771118164px) translate(-26.133996963500977px, -28.89999771118164px) translate(0px, 0px);}76%{-webkit-transform: translate(26.133996963500977px, 28.89999771118164px) translate(-26.133996963500977px, -28.89999771118164px) translate(0px, 30px);transform: translate(26.133996963500977px, 28.89999771118164px) translate(-26.133996963500977px, -28.89999771118164px) translate(0px, 30px);}0%{-webkit-transform: translate(26.133996963500977px, 28.89999771118164px) translate(-26.133996963500977px, -28.89999771118164px) translate(0px, 30px);transform: translate(26.133996963500977px, 28.89999771118164px) translate(-26.133996963500977px, -28.89999771118164px) translate(0px, 30px);}100%{-webkit-transform: translate(26.133996963500977px, 28.89999771118164px) translate(-26.133996963500977px, -28.89999771118164px) translate(0px, 30px);transform: translate(26.133996963500977px, 28.89999771118164px) translate(-26.133996963500977px, -28.89999771118164px) translate(0px, 30px);}}@keyframes el_xXf-fM10HOG_HOT0VU87s_Animation{26%{-webkit-transform: translate(26.133996963500977px, 28.89999771118164px) translate(-26.133996963500977px, -28.89999771118164px) translate(0px, 30px);transform: translate(26.133996963500977px, 28.89999771118164px) translate(-26.133996963500977px, -28.89999771118164px) translate(0px, 30px);}31.33%{-webkit-transform: translate(26.133996963500977px, 28.89999771118164px) translate(-26.133996963500977px, -28.89999771118164px) translate(0px, 0px);transform: translate(26.133996963500977px, 28.89999771118164px) translate(-26.133996963500977px, -28.89999771118164px) translate(0px, 0px);}68%{-webkit-transform: translate(26.133996963500977px, 28.89999771118164px) translate(-26.133996963500977px, -28.89999771118164px) translate(0px, 0px);transform: translate(26.133996963500977px, 28.89999771118164px) translate(-26.133996963500977px, -28.89999771118164px) translate(0px, 0px);}76%{-webkit-transform: translate(26.133996963500977px, 28.89999771118164px) translate(-26.133996963500977px, -28.89999771118164px) translate(0px, 30px);transform: translate(26.133996963500977px, 28.89999771118164px) translate(-26.133996963500977px, -28.89999771118164px) translate(0px, 30px);}0%{-webkit-transform: translate(26.133996963500977px, 28.89999771118164px) translate(-26.133996963500977px, -28.89999771118164px) translate(0px, 30px);transform: translate(26.133996963500977px, 28.89999771118164px) translate(-26.133996963500977px, -28.89999771118164px) translate(0px, 30px);}100%{-webkit-transform: translate(26.133996963500977px, 28.89999771118164px) translate(-26.133996963500977px, -28.89999771118164px) translate(0px, 30px);transform: translate(26.133996963500977px, 28.89999771118164px) translate(-26.133996963500977px, -28.89999771118164px) translate(0px, 30px);}}@-webkit-keyframes el_MvqGoU_QHv-__feuMa0VN_Animation{26%{-webkit-transform: translate(150.98399353027344px, -0.0000019082497146882815px) translate(-150.98399353027344px, 0.0000019082497146882815px) translate(0px, 30px);transform: translate(150.98399353027344px, -0.0000019082497146882815px) translate(-150.98399353027344px, 0.0000019082497146882815px) translate(0px, 30px);}30%{-webkit-transform: translate(150.98399353027344px, -0.0000019082497146882815px) translate(-150.98399353027344px, 0.0000019082497146882815px) translate(0px, 0px);transform: translate(150.98399353027344px, -0.0000019082497146882815px) translate(-150.98399353027344px, 0.0000019082497146882815px) translate(0px, 0px);}50%{-webkit-transform: translate(150.98399353027344px, -0.0000019082497146882815px) translate(-150.98399353027344px, 0.0000019082497146882815px) translate(0px, 0px);transform: translate(150.98399353027344px, -0.0000019082497146882815px) translate(-150.98399353027344px, 0.0000019082497146882815px) translate(0px, 0px);}56.00%{-webkit-transform: translate(150.98399353027344px, -0.0000019082497146882815px) translate(-150.98399353027344px, 0.0000019082497146882815px) translate(0px, 30px);transform: translate(150.98399353027344px, -0.0000019082497146882815px) translate(-150.98399353027344px, 0.0000019082497146882815px) translate(0px, 30px);}100%{-webkit-transform: translate(150.98399353027344px, -0.0000019082497146882815px) translate(-150.98399353027344px, 0.0000019082497146882815px) translate(0px, 30px);transform: translate(150.98399353027344px, -0.0000019082497146882815px) translate(-150.98399353027344px, 0.0000019082497146882815px) translate(0px, 30px);}0%{-webkit-transform: translate(150.98399353027344px, -0.0000019082497146882815px) translate(-150.98399353027344px, 0.0000019082497146882815px) translate(0px, 30px);transform: translate(150.98399353027344px, -0.0000019082497146882815px) translate(-150.98399353027344px, 0.0000019082497146882815px) translate(0px, 30px);}}@keyframes el_MvqGoU_QHv-__feuMa0VN_Animation{26%{-webkit-transform: translate(150.98399353027344px, -0.0000019082497146882815px) translate(-150.98399353027344px, 0.0000019082497146882815px) translate(0px, 30px);transform: translate(150.98399353027344px, -0.0000019082497146882815px) translate(-150.98399353027344px, 0.0000019082497146882815px) translate(0px, 30px);}30%{-webkit-transform: translate(150.98399353027344px, -0.0000019082497146882815px) translate(-150.98399353027344px, 0.0000019082497146882815px) translate(0px, 0px);transform: translate(150.98399353027344px, -0.0000019082497146882815px) translate(-150.98399353027344px, 0.0000019082497146882815px) translate(0px, 0px);}50%{-webkit-transform: translate(150.98399353027344px, -0.0000019082497146882815px) translate(-150.98399353027344px, 0.0000019082497146882815px) translate(0px, 0px);transform: translate(150.98399353027344px, -0.0000019082497146882815px) translate(-150.98399353027344px, 0.0000019082497146882815px) translate(0px, 0px);}56.00%{-webkit-transform: translate(150.98399353027344px, -0.0000019082497146882815px) translate(-150.98399353027344px, 0.0000019082497146882815px) translate(0px, 30px);transform: translate(150.98399353027344px, -0.0000019082497146882815px) translate(-150.98399353027344px, 0.0000019082497146882815px) translate(0px, 30px);}100%{-webkit-transform: translate(150.98399353027344px, -0.0000019082497146882815px) translate(-150.98399353027344px, 0.0000019082497146882815px) translate(0px, 30px);transform: translate(150.98399353027344px, -0.0000019082497146882815px) translate(-150.98399353027344px, 0.0000019082497146882815px) translate(0px, 30px);}0%{-webkit-transform: translate(150.98399353027344px, -0.0000019082497146882815px) translate(-150.98399353027344px, 0.0000019082497146882815px) translate(0px, 30px);transform: translate(150.98399353027344px, -0.0000019082497146882815px) translate(-150.98399353027344px, 0.0000019082497146882815px) translate(0px, 30px);}}@-webkit-keyframes el_l9LXlULNUe1_RB2WddPX5_Animation{24%{-webkit-transform: translate(77.13999938964844px, 0px) translate(-77.13999938964844px, 0px) translate(0px, 30px);transform: translate(77.13999938964844px, 0px) translate(-77.13999938964844px, 0px) translate(0px, 30px);}32%{-webkit-transform: translate(77.13999938964844px, 0px) translate(-77.13999938964844px, 0px) translate(0px, 0px);transform: translate(77.13999938964844px, 0px) translate(-77.13999938964844px, 0px) translate(0px, 0px);}68%{-webkit-transform: translate(77.13999938964844px, 0px) translate(-77.13999938964844px, 0px) translate(0px, 0px);transform: translate(77.13999938964844px, 0px) translate(-77.13999938964844px, 0px) translate(0px, 0px);}76%{-webkit-transform: translate(77.13999938964844px, 0px) translate(-77.13999938964844px, 0px) translate(0px, 30px);transform: translate(77.13999938964844px, 0px) translate(-77.13999938964844px, 0px) translate(0px, 30px);}0%{-webkit-transform: translate(77.13999938964844px, 0px) translate(-77.13999938964844px, 0px) translate(0px, 30px);transform: translate(77.13999938964844px, 0px) translate(-77.13999938964844px, 0px) translate(0px, 30px);}100%{-webkit-transform: translate(77.13999938964844px, 0px) translate(-77.13999938964844px, 0px) translate(0px, 30px);transform: translate(77.13999938964844px, 0px) translate(-77.13999938964844px, 0px) translate(0px, 30px);}}@keyframes el_l9LXlULNUe1_RB2WddPX5_Animation{24%{-webkit-transform: translate(77.13999938964844px, 0px) translate(-77.13999938964844px, 0px) translate(0px, 30px);transform: translate(77.13999938964844px, 0px) translate(-77.13999938964844px, 0px) translate(0px, 30px);}32%{-webkit-transform: translate(77.13999938964844px, 0px) translate(-77.13999938964844px, 0px) translate(0px, 0px);transform: translate(77.13999938964844px, 0px) translate(-77.13999938964844px, 0px) translate(0px, 0px);}68%{-webkit-transform: translate(77.13999938964844px, 0px) translate(-77.13999938964844px, 0px) translate(0px, 0px);transform: translate(77.13999938964844px, 0px) translate(-77.13999938964844px, 0px) translate(0px, 0px);}76%{-webkit-transform: translate(77.13999938964844px, 0px) translate(-77.13999938964844px, 0px) translate(0px, 30px);transform: translate(77.13999938964844px, 0px) translate(-77.13999938964844px, 0px) translate(0px, 30px);}0%{-webkit-transform: translate(77.13999938964844px, 0px) translate(-77.13999938964844px, 0px) translate(0px, 30px);transform: translate(77.13999938964844px, 0px) translate(-77.13999938964844px, 0px) translate(0px, 30px);}100%{-webkit-transform: translate(77.13999938964844px, 0px) translate(-77.13999938964844px, 0px) translate(0px, 30px);transform: translate(77.13999938964844px, 0px) translate(-77.13999938964844px, 0px) translate(0px, 30px);}}@-webkit-keyframes el_hufOFin-zOM_R8RiEAM8cI1_Animation{22%{-webkit-transform: translate(201.98397827148438px, 28.904998779296875px) translate(-201.98397827148438px, -28.904998779296875px) translate(0px, 30px);transform: translate(201.98397827148438px, 28.904998779296875px) translate(-201.98397827148438px, -28.904998779296875px) translate(0px, 30px);}28.00%{-webkit-transform: translate(201.98397827148438px, 28.904998779296875px) translate(-201.98397827148438px, -28.904998779296875px) translate(0px, 0px);transform: translate(201.98397827148438px, 28.904998779296875px) translate(-201.98397827148438px, -28.904998779296875px) translate(0px, 0px);}68%{-webkit-transform: translate(201.98397827148438px, 28.904998779296875px) translate(-201.98397827148438px, -28.904998779296875px) translate(0px, 0px);transform: translate(201.98397827148438px, 28.904998779296875px) translate(-201.98397827148438px, -28.904998779296875px) translate(0px, 0px);}76%{-webkit-transform: translate(201.98397827148438px, 28.904998779296875px) translate(-201.98397827148438px, -28.904998779296875px) translate(0px, 30px);transform: translate(201.98397827148438px, 28.904998779296875px) translate(-201.98397827148438px, -28.904998779296875px) translate(0px, 30px);}0%{-webkit-transform: translate(201.98397827148438px, 28.904998779296875px) translate(-201.98397827148438px, -28.904998779296875px) translate(0px, 30px);transform: translate(201.98397827148438px, 28.904998779296875px) translate(-201.98397827148438px, -28.904998779296875px) translate(0px, 30px);}100%{-webkit-transform: translate(201.98397827148438px, 28.904998779296875px) translate(-201.98397827148438px, -28.904998779296875px) translate(0px, 30px);transform: translate(201.98397827148438px, 28.904998779296875px) translate(-201.98397827148438px, -28.904998779296875px) translate(0px, 30px);}}@keyframes el_hufOFin-zOM_R8RiEAM8cI1_Animation{22%{-webkit-transform: translate(201.98397827148438px, 28.904998779296875px) translate(-201.98397827148438px, -28.904998779296875px) translate(0px, 30px);transform: translate(201.98397827148438px, 28.904998779296875px) translate(-201.98397827148438px, -28.904998779296875px) translate(0px, 30px);}28.00%{-webkit-transform: translate(201.98397827148438px, 28.904998779296875px) translate(-201.98397827148438px, -28.904998779296875px) translate(0px, 0px);transform: translate(201.98397827148438px, 28.904998779296875px) translate(-201.98397827148438px, -28.904998779296875px) translate(0px, 0px);}68%{-webkit-transform: translate(201.98397827148438px, 28.904998779296875px) translate(-201.98397827148438px, -28.904998779296875px) translate(0px, 0px);transform: translate(201.98397827148438px, 28.904998779296875px) translate(-201.98397827148438px, -28.904998779296875px) translate(0px, 0px);}76%{-webkit-transform: translate(201.98397827148438px, 28.904998779296875px) translate(-201.98397827148438px, -28.904998779296875px) translate(0px, 30px);transform: translate(201.98397827148438px, 28.904998779296875px) translate(-201.98397827148438px, -28.904998779296875px) translate(0px, 30px);}0%{-webkit-transform: translate(201.98397827148438px, 28.904998779296875px) translate(-201.98397827148438px, -28.904998779296875px) translate(0px, 30px);transform: translate(201.98397827148438px, 28.904998779296875px) translate(-201.98397827148438px, -28.904998779296875px) translate(0px, 30px);}100%{-webkit-transform: translate(201.98397827148438px, 28.904998779296875px) translate(-201.98397827148438px, -28.904998779296875px) translate(0px, 30px);transform: translate(201.98397827148438px, 28.904998779296875px) translate(-201.98397827148438px, -28.904998779296875px) translate(0px, 30px);}}@-webkit-keyframes el_hufOFin-zOM_Animation{0%{opacity: 0;}22%{opacity: 0;}28.00%{opacity: 1;}68%{opacity: 1;}76%{opacity: 0;}100%{opacity: 0;}}@keyframes el_hufOFin-zOM_Animation{0%{opacity: 0;}22%{opacity: 0;}28.00%{opacity: 1;}68%{opacity: 1;}76%{opacity: 0;}100%{opacity: 0;}}@-webkit-keyframes el_l9LXlULNUe1_Animation{0%{opacity: 0;}24%{opacity: 0;}32%{opacity: 1;}68%{opacity: 1;}76%{opacity: 0;}100%{opacity: 0;}}@keyframes el_l9LXlULNUe1_Animation{0%{opacity: 0;}24%{opacity: 0;}32%{opacity: 1;}68%{opacity: 1;}76%{opacity: 0;}100%{opacity: 0;}}@-webkit-keyframes el_MvqGoU_QHv-_Animation{0%{opacity: 0;}26%{opacity: 0;}30%{opacity: 1;}50%{opacity: 1;}56.00%{opacity: 0;}100%{opacity: 0;}}@keyframes el_MvqGoU_QHv-_Animation{0%{opacity: 0;}26%{opacity: 0;}30%{opacity: 1;}50%{opacity: 1;}56.00%{opacity: 0;}100%{opacity: 0;}}@-webkit-keyframes el_xXf-fM10HOG_Animation{0%{opacity: 0;}26%{opacity: 0;}31.33%{opacity: 1;}68%{opacity: 1;}76%{opacity: 0;}100%{opacity: 0;}}@keyframes el_xXf-fM10HOG_Animation{0%{opacity: 0;}26%{opacity: 0;}31.33%{opacity: 1;}68%{opacity: 1;}76%{opacity: 0;}100%{opacity: 0;}}@-webkit-keyframes el_f0rV53Cqnb_Animation{0%{opacity: 0;}18%{opacity: 0;}30%{opacity: 1;}76%{opacity: 1;}86%{opacity: 0;}100%{opacity: 0;}}@keyframes el_f0rV53Cqnb_Animation{0%{opacity: 0;}18%{opacity: 0;}30%{opacity: 1;}76%{opacity: 1;}86%{opacity: 0;}100%{opacity: 0;}}@-webkit-keyframes el_Ls7FTZ1QCRl_Animation{0%{opacity: 0;}18%{opacity: 0;}22%{opacity: 1;}78%{opacity: 1;}82%{opacity: 0;}100%{opacity: 0;}}@keyframes el_Ls7FTZ1QCRl_Animation{0%{opacity: 0;}18%{opacity: 0;}22%{opacity: 1;}78%{opacity: 1;}82%{opacity: 0;}100%{opacity: 0;}}@-webkit-keyframes el_tDwl6wYWSwd_Animation{0%{opacity: 0;}14.00%{opacity: 0;}18%{opacity: 1;}82%{opacity: 1;}86%{opacity: 0;}100%{opacity: 0;}}@keyframes el_tDwl6wYWSwd_Animation{0%{opacity: 0;}14.00%{opacity: 0;}18%{opacity: 1;}82%{opacity: 1;}86%{opacity: 0;}100%{opacity: 0;}}@-webkit-keyframes el_O_t_6xLIuig_Animation{10%{opacity: 0;}14.00%{opacity: 1;}86%{opacity: 1;}90%{opacity: 0;}0%{opacity: 0;}100%{opacity: 0;}}@keyframes el_O_t_6xLIuig_Animation{10%{opacity: 0;}14.00%{opacity: 1;}86%{opacity: 1;}90%{opacity: 0;}0%{opacity: 0;}100%{opacity: 0;}}@-webkit-keyframes el_HwppGvD1w8y_Animation{0%{opacity: 0;}10%{opacity: 1;}90%{opacity: 1;}100%{opacity: 0;}}@keyframes el_HwppGvD1w8y_Animation{0%{opacity: 0;}10%{opacity: 1;}90%{opacity: 1;}100%{opacity: 0;}}#el_mKpgjxt_i *{-webkit-animation-duration: 5s;animation-duration: 5s;-webkit-animation-iteration-count: infinite;animation-iteration-count: infinite;-webkit-animation-timing-function: cubic-bezier(0, 0, 1, 1);animation-timing-function: cubic-bezier(0, 0, 1, 1);}#el_m7PP1ZgEi-{fill: #50cb69;fill-opacity: 0.1;}#el_-0d9lwaDRi{fill: #3cb054;}#el_RhYJZ5m2WK{fill: #3cb054;}#el_YkoV83icvY{fill: #3cb054;}#el_jbORAIU_Au{fill: #3cb054;}#el_XhvNa6_U1X{fill: #3cb054;}#el__68RqAsfSM{fill: #3cb054;}#el_v8d4VzAT6F{fill: #3cb054;}#el_8H6PMYWXtf{fill: #3cb054;}#el_0AKZQ1jGs5{fill: #3cb054;}#el_SMScot1-BS{fill: #3cb054;}#el_nzvxt3xNLx{fill: #fff;}#el_kdAChK0URY{fill: #3cb054;}#el_7HkRne6FU6e{fill: #fff;}#el_48gWrf0nH8h{fill: #3cb054;}#el_9AiVtnea18u{fill: #fff;}#el_-na2JGlIZhp{fill: #3cb054;}#el_oZLCQOTbhAe{fill: #fff;}#el_C6GqWbKM_CO{fill: #3cb054;}#el_bZdQldb85Rd{fill: #fff;}#el_3TtBnNhCcNv{fill: #3cb054;}#el_52bXHJwJOpD{fill: #fff;}#el_WIpVm4fIWc4{fill: #3cb054;}#el_GQoETMKSoVA{fill: #fff;}#el__jNbJ3CZ9R4{fill: #3cb054;}#el_jAk4-tqHRVu{fill: #fff;}#el_srEeggCpK_r{fill: #3cb054;}#el_-avMiMwfB4N{fill: #fff;}#el_fUQAQejJY12{fill: #3cb054;}#el_C_AT2EZ4jCe{fill: #fff;}#el_zlMZ5vu_lde{fill: #3cb054;}#el_hfqwi042uN6{fill: #fff;}#el_ny9JHGV6iEK{fill: #3cb054;}#el_Mic67EgJYJA{fill: #fff;}#el_m2JTp5FwHj_{fill: #3cb054;}#el_g0iJ-7Ty0YG{fill: #3cb054;fill-opacity: 0.2;}#el_YB9J4RPQ8rm{fill: #fff;}#el_xjfJK0eRgVG{fill: #3cb054;}#el_4MmEVq-mplP{fill: #3cb054;}#el_95wOvO6eVbY{fill: #fff;}#el_l4ZTnmqx3nu{fill: #3cb054;}#el_iO-evh7GAfs{fill: #3cb054;}#el_FcHCM3HLVMo{fill: #3cb054;}#el_034nyCgTWp3{fill: #3cb054;}#el_ksj-ebME-Yg{fill: #ade5b8;}#el_oDCqomt4iUj{fill: #3cb054;}#el_uTqOL39L95p{fill: #3cb054;}#el_PTxsc4svfhS{fill: #3cb054;}#el_fL1VGF0pNfw{fill: #3cb054;}#el_YpSRzWUEFq2{fill: #fff;}#el_veHIClMozl0{fill: #fff;-webkit-animation-name: el_veHIClMozl0_Animation;animation-name: el_veHIClMozl0_Animation;-webkit-animation-timing-function: cubic-bezier(0.42, 0, 0.58, 1);animation-timing-function: cubic-bezier(0.42, 0, 0.58, 1);}#el_dpSNcVi1JvU{fill: #3cb054;-webkit-animation-name: el_dpSNcVi1JvU_Animation;animation-name: el_dpSNcVi1JvU_Animation;-webkit-animation-timing-function: cubic-bezier(0.42, 0, 0.58, 1);animation-timing-function: cubic-bezier(0.42, 0, 0.58, 1);}#el_IuVCuanZZkB{fill: #ade5b8;}#el__luXJg0RKKY{fill: #3cb054;}#el_oRDPQAbGAlj{fill: #3cb054;}#el_irp5lv5FDl7{fill: #3cb054;}#el_hmQg90KyKrR{fill: #3cb054;}#el_EmWMDSdcN2Y{fill: #fff;}#el_WyYpQjYJaiJ{fill: #fff;-webkit-animation-name: el_WyYpQjYJaiJ_Animation;animation-name: el_WyYpQjYJaiJ_Animation;-webkit-animation-timing-function: cubic-bezier(0.42, 0, 0.58, 1);animation-timing-function: cubic-bezier(0.42, 0, 0.58, 1);}#el_xX63GpANaPZ{fill: #3cb054;-webkit-animation-name: el_xX63GpANaPZ_Animation;animation-name: el_xX63GpANaPZ_Animation;}#el_jdWMqByhYWc{fill: #ade5b8;}#el_uNMeyFVmvcu{fill: #3cb054;}#el_C7meglalg4k{fill: #3cb054;}#el_gim-KDP_teC{fill: #3cb054;}#el_CW-LCa9QPfc{fill: #3cb054;}#el_wxc0zgHUBNY{fill: #fff;}#el_dQloVhny5a2{fill: #fff;-webkit-animation-name: el_dQloVhny5a2_Animation;animation-name: el_dQloVhny5a2_Animation;-webkit-animation-timing-function: cubic-bezier(0.42, 0, 0.58, 1);animation-timing-function: cubic-bezier(0.42, 0, 0.58, 1);}#el_QLqmqFqGZxx{fill: #3cb054;-webkit-animation-name: el_QLqmqFqGZxx_Animation;animation-name: el_QLqmqFqGZxx_Animation;-webkit-animation-timing-function: cubic-bezier(0.42, 0, 0.58, 1);animation-timing-function: cubic-bezier(0.42, 0, 0.58, 1);}#el_7xxYK1tw4UV{fill: #ade5b8;}#el_UNmpX3rY18s{fill: #3cb054;}#el_Bh9rWlOkFM-{fill: #3cb054;}#el_v9QrrtJ7EW3{fill: #3cb054;}#el_Q89y2IwuvNt{fill: #3cb054;}#el_KLHQ-GqZ3zF{fill: #fff;}#el_ckhE76LeYqG{fill: #fff;-webkit-animation-name: el_ckhE76LeYqG_Animation;animation-name: el_ckhE76LeYqG_Animation;-webkit-animation-timing-function: cubic-bezier(0.42, 0, 0.58, 1);animation-timing-function: cubic-bezier(0.42, 0, 0.58, 1);}#el_2zX3l_A7Mof{fill: #3cb054;-webkit-animation-name: el_2zX3l_A7Mof_Animation;animation-name: el_2zX3l_A7Mof_Animation;-webkit-animation-timing-function: cubic-bezier(0.42, 0, 0.58, 1);animation-timing-function: cubic-bezier(0.42, 0, 0.58, 1);}#el_xJZZAi4kSEy{fill: #3cb054;}#el_b55nRBT_xZA{fill: #3cb054;}#el_JS6ujS92v0m{fill: #3cb054;}#el_rSv6YQ_HQs0{fill: #fff;}#el_DP9GoqST5j8{fill: #3cb054;}#el_qqWZdjl7a00{fill: #3cb054;}#el_X5onJ-DkuGs{fill: #fff;}#el_bsE1naiGmhp{fill: #3cb054;}#el_kRI0khxzRQE{fill: #3cb054;}#el_gqDBoXp_tb8{fill: #fff;}#el_oxJZIK7Lm1z{fill: #3cb054;}#el_0myFRMeeImf{fill: #3cb054;}#el_XKzUj6dqecj{fill: #fff;}#el_pdQSl44kEW9{fill: #3cb054;}#el_z1kaEA0IJ9e{fill: #3cb054;}#el_HwppGvD1w8y{-webkit-animation-name: el_HwppGvD1w8y_Animation;animation-name: el_HwppGvD1w8y_Animation;-webkit-animation-timing-function: cubic-bezier(0.42, 0, 0.58, 1);animation-timing-function: cubic-bezier(0.42, 0, 0.58, 1);}#el_O_t_6xLIuig{-webkit-animation-name: el_O_t_6xLIuig_Animation;animation-name: el_O_t_6xLIuig_Animation;-webkit-animation-timing-function: cubic-bezier(0.42, 0, 0.58, 1);animation-timing-function: cubic-bezier(0.42, 0, 0.58, 1);}#el_tDwl6wYWSwd{-webkit-animation-name: el_tDwl6wYWSwd_Animation;animation-name: el_tDwl6wYWSwd_Animation;-webkit-animation-timing-function: cubic-bezier(0.42, 0, 0.58, 1);animation-timing-function: cubic-bezier(0.42, 0, 0.58, 1);}#el_Ls7FTZ1QCRl{-webkit-animation-name: el_Ls7FTZ1QCRl_Animation;animation-name: el_Ls7FTZ1QCRl_Animation;-webkit-animation-timing-function: cubic-bezier(0.42, 0, 0.58, 1);animation-timing-function: cubic-bezier(0.42, 0, 0.58, 1);}#el_f0rV53Cqnb{-webkit-animation-name: el_f0rV53Cqnb_Animation;animation-name: el_f0rV53Cqnb_Animation;-webkit-animation-timing-function: cubic-bezier(0.42, 0, 0.58, 1);animation-timing-function: cubic-bezier(0.42, 0, 0.58, 1);}#el_xXf-fM10HOG{-webkit-animation-name: el_xXf-fM10HOG_Animation;animation-name: el_xXf-fM10HOG_Animation;-webkit-animation-timing-function: cubic-bezier(0.42, 0, 0.58, 1);animation-timing-function: cubic-bezier(0.42, 0, 0.58, 1);}#el_MvqGoU_QHv-{-webkit-animation-name: el_MvqGoU_QHv-_Animation;animation-name: el_MvqGoU_QHv-_Animation;-webkit-animation-timing-function: cubic-bezier(0.42, 0, 0.58, 1);animation-timing-function: cubic-bezier(0.42, 0, 0.58, 1);}#el_l9LXlULNUe1{-webkit-animation-name: el_l9LXlULNUe1_Animation;animation-name: el_l9LXlULNUe1_Animation;-webkit-animation-timing-function: cubic-bezier(0.42, 0, 0.58, 1);animation-timing-function: cubic-bezier(0.42, 0, 0.58, 1);}#el_hufOFin-zOM{-webkit-animation-name: el_hufOFin-zOM_Animation;animation-name: el_hufOFin-zOM_Animation;-webkit-animation-timing-function: cubic-bezier(0.42, 0, 0.58, 1);animation-timing-function: cubic-bezier(0.42, 0, 0.58, 1);}#el_hufOFin-zOM_R8RiEAM8cI1{-webkit-animation-name: el_hufOFin-zOM_R8RiEAM8cI1_Animation;animation-name: el_hufOFin-zOM_R8RiEAM8cI1_Animation;-webkit-animation-timing-function: cubic-bezier(0.42, 0, 0.58, 1);animation-timing-function: cubic-bezier(0.42, 0, 0.58, 1);}#el_l9LXlULNUe1_RB2WddPX5{-webkit-animation-name: el_l9LXlULNUe1_RB2WddPX5_Animation;animation-name: el_l9LXlULNUe1_RB2WddPX5_Animation;-webkit-animation-timing-function: cubic-bezier(0.42, 0, 0.58, 1);animation-timing-function: cubic-bezier(0.42, 0, 0.58, 1);}#el_MvqGoU_QHv-__feuMa0VN{-webkit-animation-name: el_MvqGoU_QHv-__feuMa0VN_Animation;animation-name: el_MvqGoU_QHv-__feuMa0VN_Animation;-webkit-animation-timing-function: cubic-bezier(0.42, 0, 0.58, 1);animation-timing-function: cubic-bezier(0.42, 0, 0.58, 1);}#el_xXf-fM10HOG_HOT0VU87s{-webkit-animation-name: el_xXf-fM10HOG_HOT0VU87s_Animation;animation-name: el_xXf-fM10HOG_HOT0VU87s_Animation;-webkit-animation-timing-function: cubic-bezier(0.42, 0, 0.58, 1);animation-timing-function: cubic-bezier(0.42, 0, 0.58, 1);}</style><defs/><title>user-driven-governance</title><g id="el_4iaeYQeQQp"><circle cx="125.82" cy="147.104" r="125.82" id="el_m7PP1ZgEi-"/></g><g id="el_f0rV53Cqnb"><path d="M65.19,188.859l121.876,70.365s.86.059.389,1.449l-.273.311a1.4,1.4,0,0,1-.783.21l-.393-.134L64.13,190.7s-.86-.059-.389-1.449l.644-.494A2.058,2.058,0,0,1,65.19,188.859Z" id="el_-0d9lwaDRi"/><path d="M94.555,181.473a1.114,1.114,0,0,1,.345.126l21.442,12.38c.457.3.477.357.53.868l1.219,25.117c-.012,1.113-1.955,1.634-2.118.1l-1.191-24.539L93.839,183.436a1.3,1.3,0,0,1-.523-1.042A1.1,1.1,0,0,1,94.555,181.473Z" id="el_RhYJZ5m2WK"/><path d="M199.194,205.873a1.088,1.088,0,0,1,.451,1.976L178.2,220.23a.983.983,0,0,1-.513.142l-43.5.7c-1.129-.067-1.384-2-.033-2.121l43.229-.7,21.2-12.242A1.026,1.026,0,0,1,199.194,205.873Z" id="el_YkoV83icvY"/><path d="M177.685,229.549a.984.984,0,0,1,.513.142l21.444,12.381c.916.625.339,2.511-1.061,1.836l-21.2-12.242-43.229-.7s-.878-.164-1.021-.842a1.115,1.115,0,0,1,1.055-1.28Z" id="el_jbORAIU_Au"/><path d="M117.146,228.853a1.12,1.12,0,0,1,.946,1.106l-1.219,25.117c-.057.543-.1.586-.53.868L94.9,268.323a.924.924,0,0,1-.835.1,1.1,1.1,0,0,1-.226-1.934L114.783,254.4l1.191-24.539S116.212,228.808,117.146,228.853Z" id="el_XhvNa6_U1X"/><path d="M52.165,205.873a1.128,1.128,0,0,1,.451.139l21.661,12.506,42.767.436s.877.157,1.025.835a1.114,1.114,0,0,1-1.046,1.286l-43.046-.439a.972.972,0,0,1-.518-.141l-21.9-12.646A1.086,1.086,0,0,1,52.165,205.873Z" id="el__68RqAsfSM"/><path d="M156.889,181.457a1.094,1.094,0,0,1,.468,1.977l-21.391,12.35-.741,24.261a1.3,1.3,0,0,1-.67.954,1.041,1.041,0,0,1-1.449-1.019l.759-24.852c.048-.553.092-.6.53-.886L156.3,181.6A1,1,0,0,1,156.889,181.457Z" id="el_v8d4VzAT6F"/><path d="M134.315,228.856a.951.951,0,0,1,.909,1.017l.741,24.261,21.391,12.35a1.3,1.3,0,0,1,.523,1.042,1.042,1.042,0,0,1-1.584.795l-21.9-12.645c-.465-.3-.486-.365-.53-.886l-.759-24.852A1.088,1.088,0,0,1,134.315,228.856Z" id="el_8H6PMYWXtf"/><path d="M117.178,228.855a1.074,1.074,0,0,1-.137,2.111l-42.767.436L52.613,243.908a1.324,1.324,0,0,1-1.191-.089,1.112,1.112,0,0,1,.13-1.747l21.9-12.646a.974.974,0,0,1,.518-.141l43.046-.439Z" id="el_0AKZQ1jGs5"/><path d="M186.812,188.751a1.435,1.435,0,0,1,.644.494s.715.482-.389,1.449L65.19,261.06l-.806.106-.644-.494a1.236,1.236,0,0,1,.076-1.175l.314-.274,121.877-70.365A2.069,2.069,0,0,1,186.812,188.751Z" id="el_SMScot1-BS"/><path d="M97.632,180.165c2.026,1.17,2.026,3.066,0,4.236a8.108,8.108,0,0,1-7.336,0c-2.026-1.17-2.026-3.066,0-4.236A8.108,8.108,0,0,1,97.632,180.165Z" id="el_nzvxt3xNLx"/><path d="M94.032,178.227c2.911.031,6.671,1.306,6.139,4.515-.729,4.4-10.005,5.013-12.123.878a2.962,2.962,0,0,1,.111-2.878C89.282,178.89,91.713,178.218,94.032,178.227Zm-.123,2.122a5.065,5.065,0,0,0-3.736,1.233c-.672.715.4,1.96,1.732,2.351,1.993.586,4.481.463,5.827-.93C98.8,181.9,96.38,180.339,93.909,180.349Z" id="el_kdAChK0URY"/><path d="M203.186,208.815a8.108,8.108,0,0,1-7.336,0c-2.026-1.17-2.026-3.066,0-4.236a8.108,8.108,0,0,1,7.336,0C205.212,205.749,205.212,207.645,203.186,208.815Z" id="el_7HkRne6FU6e"/><path d="M199.588,202.642c2.675.028,5.877.984,6.163,3.766.415,4.024-7.909,6.025-11.442,2.569a3.1,3.1,0,0,1-.594-3.82C194.835,203.306,197.274,202.635,199.588,202.642Zm-.124,2.121A5.062,5.062,0,0,0,195.73,206c-.665.709.4,1.961,1.733,2.351,1.99.587,4.48.463,5.826-.93C204.361,206.308,201.941,204.754,199.464,204.763Z" id="el_48gWrf0nH8h"/><path d="M203.187,241.107a8.108,8.108,0,0,0-7.336,0c-2.026,1.17-2.026,3.066,0,4.236a8.108,8.108,0,0,0,7.336,0C205.212,244.173,205.212,242.276,203.187,241.107Z" id="el_9AiVtnea18u"/><path d="M199.588,239.17c2.927.031,6.659,1.385,6.139,4.515-.738,4.468-10.056,4.92-12.126.876a2.957,2.957,0,0,1,.115-2.875C194.84,239.826,197.326,239.163,199.588,239.17Zm-.123,2.122a5.063,5.063,0,0,0-3.735,1.233c-.671.714.4,1.96,1.732,2.351,2.145.631,5.134.5,6.078-1.264a.95.95,0,0,0,.087-.229C203.96,241.926,201.5,241.286,199.465,241.292Z" id="el_-na2JGlIZhp"/><path d="M97.633,269.756c2.026-1.17,2.026-3.066,0-4.236a8.108,8.108,0,0,0-7.336,0c-2.026,1.17-2.026,3.066,0,4.236A8.108,8.108,0,0,0,97.633,269.756Z" id="el_oZLCQOTbhAe"/><path d="M94.033,263.585c2.676.028,5.877.984,6.164,3.766.41,4-7.87,5.966-11.4,2.612a3.11,3.11,0,0,1-.665-3.814C89.226,264.264,91.714,263.577,94.033,263.585Zm-.124,2.121a5.047,5.047,0,0,0-3.734,1.233c-.665.709.377,1.942,1.683,2.338,2.157.652,5.173.53,6.126-1.25a.963.963,0,0,0,.087-.229C98.406,266.339,95.948,265.7,93.908,265.705Z" id="el_C6GqWbKM_CO"/><path d="M55.347,204.578c2.026,1.17,2.026,3.066,0,4.236a8.108,8.108,0,0,1-7.336,0c-2.026-1.17-2.026-3.066,0-4.236A8.108,8.108,0,0,1,55.347,204.578Z" id="el_bZdQldb85Rd"/><path d="M51.746,202.64c2.676.029,5.876.986,6.163,3.766.411,3.972-7.883,6.049-11.441,2.569a3.1,3.1,0,0,1-.595-3.822C46.994,203.3,49.434,202.634,51.746,202.64Zm-.123,2.122A5.054,5.054,0,0,0,47.888,206c-.66.7.38,1.942,1.685,2.338,2.155.653,5.168.534,6.126-1.25a.953.953,0,0,0,.087-.229C56.122,205.388,53.615,204.756,51.624,204.762Z" id="el_3TtBnNhCcNv"/><path d="M160.9,184.4a8.108,8.108,0,0,1-7.336,0c-2.026-1.17-2.026-3.066,0-4.236a8.108,8.108,0,0,1,7.336,0C162.927,181.336,162.927,183.232,160.9,184.4Z" id="el_52bXHJwJOpD"/><path d="M157.3,178.229c2.675.028,5.877.984,6.163,3.766.416,4.057-7.947,5.987-11.442,2.569a3.1,3.1,0,0,1-.594-3.82C152.551,178.893,154.984,178.219,157.3,178.229Zm-.124,2.121a5.056,5.056,0,0,0-3.734,1.233c-.666.709.378,1.943,1.683,2.338,2.158.652,5.172.533,6.126-1.25a.935.935,0,0,0,.088-.229C161.673,180.994,159.21,180.342,157.179,180.35Z" id="el_WIpVm4fIWc4"/><path d="M160.9,265.52a8.108,8.108,0,0,0-7.336,0c-2.026,1.17-2.026,3.066,0,4.236a8.108,8.108,0,0,0,7.336,0C162.927,268.586,162.927,266.69,160.9,265.52Z" id="el_GQoETMKSoVA"/><path d="M157.3,263.583c2.676.029,5.877.985,6.163,3.767.414,4.011-7.945,5.988-11.441,2.569a3.1,3.1,0,0,1-.623-3.77C152.5,264.263,154.986,263.577,157.3,263.583Zm-.123,2.122a5.038,5.038,0,0,0-3.736,1.233c-.664.71.38,1.942,1.685,2.338,2.155.653,5.17.53,6.125-1.25a.951.951,0,0,0,.087-.229C161.677,266.342,159.221,265.7,157.18,265.705Z" id="el__jNbJ3CZ9R4"/><path d="M55.348,245.343c2.026-1.17,2.026-3.066,0-4.236a8.108,8.108,0,0,0-7.336,0c-2.026,1.17-2.026,3.066,0,4.236A8.108,8.108,0,0,0,55.348,245.343Z" id="el_jAk4-tqHRVu"/><path d="M51.748,239.171c2.926.031,6.659,1.385,6.139,4.515-.739,4.467-10.054,4.919-12.127.876a2.964,2.964,0,0,1,.115-2.877C46.993,239.838,49.428,239.164,51.748,239.171Zm-.124,2.121a5.056,5.056,0,0,0-3.734,1.233c-.662.707.38,1.941,1.684,2.338,2.157.655,5.183.511,6.125-1.251a.948.948,0,0,0,.088-.229C56.118,241.933,53.658,241.286,51.624,241.292Z" id="el_srEeggCpK_r"/><path d="M68.329,187.66c2.026,1.17,2.026,3.066,0,4.236a8.108,8.108,0,0,1-7.336,0c-2.026-1.17-2.026-3.066,0-4.236A8.108,8.108,0,0,1,68.329,187.66Z" id="el_-avMiMwfB4N"/><path d="M64.729,185.722c2.676.029,5.875.987,6.163,3.766.42,4.058-7.946,5.988-11.442,2.57a3.1,3.1,0,0,1-.595-3.822C59.976,186.386,62.469,185.714,64.729,185.722Zm-.123,2.122a5.066,5.066,0,0,0-3.736,1.233c-.67.714.4,1.96,1.732,2.351,1.993.586,4.481.463,5.827-.93C69.493,189.4,67.077,187.834,64.606,187.844Z" id="el_fUQAQejJY12"/><path d="M190.2,191.9a8.108,8.108,0,0,1-7.336,0c-2.026-1.17-2.026-3.066,0-4.236a8.108,8.108,0,0,1,7.336,0C192.228,188.83,192.228,190.727,190.2,191.9Z" id="el_C_AT2EZ4jCe"/><path d="M186.605,185.724c2.675.028,5.876.986,6.163,3.765.419,4.058-7.946,5.988-11.442,2.569a3.1,3.1,0,0,1-.594-3.82C181.852,186.387,184.342,185.714,186.605,185.724Zm-.124,2.121a5.06,5.06,0,0,0-3.734,1.233c-.667.711.378,1.943,1.683,2.338,2.157.652,5.172.533,6.126-1.25a.935.935,0,0,0,.088-.229C190.978,188.474,188.512,187.836,186.481,187.844Z" id="el_zlMZ5vu_lde"/><path d="M190.2,258.025a8.108,8.108,0,0,0-7.336,0c-2.026,1.17-2.026,3.066,0,4.236a8.108,8.108,0,0,0,7.336,0C192.23,261.091,192.23,259.194,190.2,258.025Z" id="el_hfqwi042uN6"/><path d="M186.609,256.09c2.673.027,5.874.987,6.16,3.765.42,4.067-7.945,5.988-11.442,2.57a3.1,3.1,0,0,1-.595-3.822C181.856,256.748,184.331,256.079,186.609,256.09Zm-.126,2.12c-1.651.017-4.041.408-4.073,1.918-.027,1.388,2.105,1.922,4.018,1.949,1.707.022,4.2-.4,4.234-1.92C190.692,258.749,188.445,258.2,186.484,258.21Z" id="el_ny9JHGV6iEK"/><path d="M68.329,262.26c2.026-1.17,2.026-3.066,0-4.236a8.108,8.108,0,0,0-7.336,0c-2.026,1.17-2.026,3.066,0,4.236A8.108,8.108,0,0,0,68.329,262.26Z" id="el_Mic67EgJYJA"/><path d="M64.729,256.089c2.675.027,5.876.986,6.163,3.765.419,4.068-7.946,5.988-11.442,2.569a3.1,3.1,0,0,1-.622-3.77C59.921,256.768,62.409,256.078,64.729,256.089Zm-.124,2.121c-1.651.017-4.039.4-4.07,1.919-.029,1.394,2.1,1.921,4.015,1.948,1.7.024,4.2-.351,4.234-1.918C68.814,258.749,66.565,258.2,64.6,258.209Z" id="el_m2JTp5FwHj_"/></g><g id="el_6RyPFyJ-B3i"><path d="M162.078,204.211c20.034,11.567,20.064,30.3.067,41.849s-52.45,11.528-72.484-.038-20.064-30.3-.067-41.849S142.043,192.644,162.078,204.211Z" id="el_g0iJ-7Ty0YG"/><path d="M107.292,194.4l-5.72,13.383-.228,31.416,48.406-.352.1-31.659-4.377-12.277-7.488-1.027-.41-10.734-23.847.234v11.175Z" id="el_YB9J4RPQ8rm"/><path d="M151.953,206.532v.078a2.752,2.752,0,0,1,.184,1.023V237.9a3,3,0,0,1-2.948,2.94H102.013a3,3,0,0,1-2.948-2.94V207.633a3.383,3.383,0,0,1,.184-1.1l4.975-12.36a3.075,3.075,0,0,1,1.105-1.321,2.817,2.817,0,0,1,1.659-.518h3.87v-8.838a3,3,0,0,1,2.948-2.956h23.588a3,3,0,0,1,2.948,2.956v8.838h3.87a2.817,2.817,0,0,1,1.659.518,3.075,3.075,0,0,1,1.105,1.321ZM115.28,184.973v13.257H135.92V184.973ZM108,196.767l-3.779,9.576h42.753l-3.779-9.576h-2.856v5.9H110.859v-5.9Zm-4.515,39.658h44.225l-.091-25.663H103.579Z" id="el_xjfJK0eRgVG"/><path d="M141.127,198.128H109.894l-1.448,4.6h34.3Z" id="el_4MmEVq-mplP"/><rect x="115.276" y="195.819" width="20.639" height="5.409" id="el_95wOvO6eVbY"/><rect x="101.446" y="209.229" width="47.629" height="29.052" id="el_l4ZTnmqx3nu"/></g><g id="el_HwppGvD1w8y"><path d="M123.832,198.68a.6.6,0,0,0,.893,0l7.314-7.287a.614.614,0,0,0,.174-.449.6.6,0,0,0-.174-.444l-.917-.893a.544.544,0,0,0-.434-.2.618.618,0,0,0-.459.2l-5.95,5.95-2.777-2.776a.618.618,0,0,0-.459-.2.543.543,0,0,0-.434.2l-.917.893a.6.6,0,0,0-.173.444.614.614,0,0,0,.173.449Z" id="el_iO-evh7GAfs"/></g><g id="el_tDwl6wYWSwd" data-name="Horiztonal dots"><path d="M209.79,152.43a1.432,1.432,0,0,1-.209,2.8,1.631,1.631,0,0,1-1.1-.533A1.451,1.451,0,0,1,209.79,152.43Zm-5.625,0a1.432,1.432,0,0,1-.209,2.8,1.631,1.631,0,0,1-1.1-.533A1.451,1.451,0,0,1,204.164,152.43Zm-5.625,0a1.432,1.432,0,0,1-.209,2.8,1.719,1.719,0,0,1-1.309-.894A1.449,1.449,0,0,1,198.539,152.43Zm-5.624,0a1.432,1.432,0,0,1-.21,2.8,1.719,1.719,0,0,1-1.309-.894A1.449,1.449,0,0,1,192.915,152.43Zm-5.625,0a1.432,1.432,0,0,1-.21,2.8,1.72,1.72,0,0,1-1.309-.894A1.449,1.449,0,0,1,187.29,152.43Zm-5.625,0a1.432,1.432,0,0,1-.209,2.8s-1.163-.18-1.372-1.09A1.454,1.454,0,0,1,181.665,152.43Zm-5.625,0a1.432,1.432,0,0,1-.209,2.8,1.719,1.719,0,0,1-1.309-.894A1.449,1.449,0,0,1,176.039,152.43Zm-5.625,0a1.432,1.432,0,0,1-.209,2.8s-1.163-.18-1.371-1.09A1.454,1.454,0,0,1,170.414,152.43Zm-5.624,0a1.432,1.432,0,0,1-.21,2.8s-1.324-.259-1.4-1.3A1.449,1.449,0,0,1,164.79,152.43Zm-5.625,0a1.432,1.432,0,0,1-.209,2.8s-1.324-.259-1.4-1.3A1.45,1.45,0,0,1,159.165,152.43Zm-5.625,0a1.432,1.432,0,0,1-.209,2.8s-1.324-.259-1.4-1.3A1.45,1.45,0,0,1,153.54,152.43Zm-5.625,0a1.432,1.432,0,0,1-.209,2.8,1.719,1.719,0,0,1-1.309-.894A1.449,1.449,0,0,1,147.914,152.43Zm-5.624,0a1.432,1.432,0,0,1-.21,2.8s-1.324-.259-1.4-1.3A1.45,1.45,0,0,1,142.29,152.43Zm-5.625,0a1.432,1.432,0,0,1-.21,2.8s-1.162-.18-1.371-1.09A1.454,1.454,0,0,1,136.665,152.43Zm-5.625,0a1.459,1.459,0,0,1,.747,2.424,2.187,2.187,0,0,1-.957.377,1.487,1.487,0,0,1-.956-2.44A1.537,1.537,0,0,1,131.04,152.43Z" id="el_FcHCM3HLVMo"/><path d="M42.418,152.43a1.426,1.426,0,0,1-.209,2.8,1.963,1.963,0,0,1-.792-.243A1.447,1.447,0,0,1,42.418,152.43Zm5.625,0a1.45,1.45,0,0,1,.747,2.424,2.187,2.187,0,0,1-.957.377C46.295,155.113,45.923,152.273,48.043,152.43Zm5.625,0a1.426,1.426,0,0,1-.21,2.8,1.963,1.963,0,0,1-.792-.243A1.447,1.447,0,0,1,53.669,152.43Zm5.625,0a1.426,1.426,0,0,1-.21,2.8,1.963,1.963,0,0,1-.792-.243A1.447,1.447,0,0,1,59.294,152.43Zm5.624,0a1.45,1.45,0,0,1,.747,2.424,2.19,2.19,0,0,1-.957.377C63.17,155.113,62.8,152.273,64.918,152.43Zm5.625,0a1.449,1.449,0,0,1,.747,2.424,2.187,2.187,0,0,1-.957.377,1.465,1.465,0,0,1-.956-2.44A1.537,1.537,0,0,1,70.543,152.43Zm5.625,0a1.45,1.45,0,0,1,.747,2.424,2.187,2.187,0,0,1-.957.377,1.464,1.464,0,0,1-.956-2.44A1.537,1.537,0,0,1,76.168,152.43Zm5.625,0a1.45,1.45,0,0,1,.747,2.424,2.187,2.187,0,0,1-.957.377,1.465,1.465,0,0,1-.957-2.44A1.54,1.54,0,0,1,81.794,152.43Zm5.624,0a1.459,1.459,0,0,1,.747,2.424,2.19,2.19,0,0,1-.957.377,1.465,1.465,0,0,1-.957-2.44A1.538,1.538,0,0,1,87.418,152.43Zm5.625,0a1.434,1.434,0,0,1-.209,2.8,1.719,1.719,0,0,1-1.309-.894A1.449,1.449,0,0,1,93.043,152.43Zm5.625,0a1.459,1.459,0,0,1,.747,2.424,2.187,2.187,0,0,1-.957.377,1.452,1.452,0,0,1-.956-2.44A1.537,1.537,0,0,1,98.668,152.43Zm5.625,0a1.432,1.432,0,0,1-.21,2.8s-1.162-.18-1.371-1.09A1.454,1.454,0,0,1,104.293,152.43Zm5.625,0a1.459,1.459,0,0,1,.747,2.424,2.19,2.19,0,0,1-.957.377C108.17,155.113,107.8,152.273,109.919,152.43Zm5.624,0a1.432,1.432,0,0,1-.209,2.8s-1.163-.18-1.372-1.09A1.454,1.454,0,0,1,115.543,152.43Zm5.625,0a1.459,1.459,0,0,1,.747,2.424,2.187,2.187,0,0,1-.957.377C119.42,155.113,119.047,152.273,121.168,152.43Z" id="el_034nyCgTWp3"/></g><g id="el_1IPtgniXSpb"><path d="M196.012,124.361c-9.793,5.654-9.81,14.811-.039,20.452s25.631,5.631,35.424-.022,9.81-14.811.039-20.452S205.805,118.707,196.012,124.361Z" id="el_ksj-ebME-Yg"/><path d="M204.346,63.6c1.9-1.092,3.2-2.826,6.525-2.878,7.684-.122,14.142,9.651,13.755,17.325-.118,2.334-1.083,4.809-3.269,5.991l-1.379.792s1.014.539,1.808,1a8.8,8.8,0,0,1,.905.591,14.249,14.249,0,0,1,5.971,11.067q.046,9.584,0,19.176a3.921,3.921,0,0,1-1.836,3.441l-3.19,1.842c0,4.725.022,9.45,0,14.175a3.953,3.953,0,0,1-1.752,3.394c-2.628,1.509-5.011,3.324-7.573,1.927-2.757-1.542-5.478-3.145-8.205-4.739a8.072,8.072,0,0,1-3.9-6.563l0-.117V112.094c-2.7-1.561-4.945-4.1-5.025-7.214v-.061q-.049-9.591,0-19.177c.009-.464.019-.5.033-.726a5.633,5.633,0,0,1,2.681-4.538c1.191-.689,2.377-1.387,3.572-2.062,0,0-2.264-5.02-2.264-8.137,0-2.517.839-5.17,3.047-6.516C204.28,63.644,204.318,63.621,204.346,63.6Zm6.608.872a2.393,2.393,0,0,0-1.218.352c-2.24,1.289-4.785,2.053-4.785,5.353a14.359,14.359,0,0,0,3.107,8.32,2.483,2.483,0,0,1,.366,1.087,1.98,1.98,0,0,1-2.3,1.861,2.3,2.3,0,0,0-.945.206c-1.181.684-2.372,1.341-3.548,2.048-.614.384-.694,1.27-.7,1.978-.033,6.384-.155,12.769,0,19.153a4.263,4.263,0,0,0,2.058,3.38l2.03,1.177a2.558,2.558,0,0,1,.889,1.191,1.851,1.851,0,0,1,.051.431c0,6.366-.153,12.727,0,19.088a4.238,4.238,0,0,0,2.053,3.38c2.705,1.58,5.389,3.2,8.137,4.7a2.544,2.544,0,0,0,.324.141l3.392-1.959a1.7,1.7,0,0,0,.022-.3V120.728a1.776,1.776,0,0,1,1.567-1.847l3.437-1.988a1.525,1.525,0,0,0,.021-.216c.159-6.384.031-12.769,0-19.153a10.394,10.394,0,0,0-5.1-8.5l-1.033-.6a13.63,13.63,0,0,1-4.995-1.767s-1.895-1.87-.426-3.131c.73-.623,1.849-.244,2.747-.792,2.715-1.57,5.647-2.761,4.5-7.791a14.334,14.334,0,0,0-7.776-10.017A4.763,4.763,0,0,0,210.954,64.474Z" id="el_oDCqomt4iUj"/><path d="M214.722,63.8q-3.394-1.959-5.718-.725-2.326,1.269-2.325,5.027A15.178,15.178,0,0,0,209,75.811a16.009,16.009,0,0,0,5.718,5.878q3.394,1.959,5.718.725,2.326-1.269,2.325-5.027a15.178,15.178,0,0,0-2.325-7.711A16.01,16.01,0,0,0,214.722,63.8Zm-6.031,16.651c-1.677-.968-3.1-1.146-4.274-.512-1.171.612-1.759,1.871-1.759,3.732V102.68a5.6,5.6,0,0,0,.879,2.869,5.888,5.888,0,0,0,2.136,2.211l2.012,1.161v19.012a5.677,5.677,0,0,0,.879,2.893,6.063,6.063,0,0,0,2.136,2.211l8.042,4.643a2.16,2.16,0,0,0,2.136.255,1.926,1.926,0,0,0,.879-1.878V117.047l2.012,1.161a2.105,2.105,0,0,0,2.136.255,1.892,1.892,0,0,0,.879-1.854V97.6a11.257,11.257,0,0,0-1.759-5.762,11.941,11.941,0,0,0-4.272-4.423l-1.383-.8a11.244,11.244,0,0,1-4.65-1.563,20.535,20.535,0,0,1-4.65-3.806Z" id="el_uTqOL39L95p"/><path d="M216.834,84.484l3.606-2.081L209.005,63.083l-3.721,2.145Z" id="el_PTxsc4svfhS"/><path d="M217.275,140.018l3.606-2.081-.187-17.377,1.608,0,3.6-2.081-.916-15.246-20.748-23.2-3.43,1.98,14.69,35.4Z" id="el_fL1VGF0pNfw"/><path d="M211.119,65.878q-3.394-1.959-5.718-.725-2.326,1.269-2.325,5.027a15.178,15.178,0,0,0,2.325,7.711,16.009,16.009,0,0,0,5.718,5.878q3.394,1.959,5.718.725,2.326-1.269,2.325-5.027a15.178,15.178,0,0,0-2.325-7.711A16.01,16.01,0,0,0,211.119,65.878Zm-6.031,16.651c-1.677-.968-3.1-1.146-4.274-.512-1.171.612-1.759,1.871-1.759,3.732V104.76a5.6,5.6,0,0,0,.879,2.869,5.888,5.888,0,0,0,2.136,2.211L204.082,111v19.012a5.677,5.677,0,0,0,.879,2.893,6.063,6.063,0,0,0,2.136,2.211l8.042,4.643a2.16,2.16,0,0,0,2.136.255,1.926,1.926,0,0,0,.879-1.878V119.127l2.012,1.161a2.105,2.105,0,0,0,2.136.255,1.892,1.892,0,0,0,.879-1.854V99.678a11.257,11.257,0,0,0-1.759-5.762,11.941,11.941,0,0,0-4.272-4.423l-1.383-.8a11.244,11.244,0,0,1-4.65-1.563,20.535,20.535,0,0,1-4.65-3.806Z" id="el_YpSRzWUEFq2"/><path d="M199.475,92.819a18.768,18.768,0,0,0-4.548.52,10.2,10.2,0,0,0-3.316,1.374,2.363,2.363,0,0,0-1.231,1.9v10.608c0,.825.561,1.556,1.682,2.2a12.084,12.084,0,0,0,4.382,1.355v2.508a2.369,2.369,0,0,0,1.232,1.9,10.2,10.2,0,0,0,3.316,1.374,20.142,20.142,0,0,0,9.1,0,10.2,10.2,0,0,0,3.316-1.374,2.369,2.369,0,0,0,1.231-1.9V102.672q0-1.23-1.682-2.2a12.182,12.182,0,0,0-4.382-1.35V96.611a2.363,2.363,0,0,0-1.232-1.9,10.2,10.2,0,0,0-3.316-1.374A18.762,18.762,0,0,0,199.475,92.819Z" id="el_veHIClMozl0"/><path d="M199.472,92.837a19.136,19.136,0,0,0-4.548.518,10.24,10.24,0,0,0-3.317,1.375,2.38,2.38,0,0,0-1.231,1.9v10.609q0,1.237,1.682,2.207a12.286,12.286,0,0,0,4.382,1.35V113.3a2.38,2.38,0,0,0,1.231,1.9,10.064,10.064,0,0,0,3.317,1.366,19.946,19.946,0,0,0,9.1,0A10.065,10.065,0,0,0,213.4,115.2a2.38,2.38,0,0,0,1.231-1.9V102.694q0-1.237-1.682-2.207a12.137,12.137,0,0,0-4.383-1.35V96.63a2.38,2.38,0,0,0-1.231-1.9,10.241,10.241,0,0,0-3.317-1.375A19.136,19.136,0,0,0,199.472,92.837Zm-.758,20.279v-1.852a12.024,12.024,0,0,0,3.056.946,21.035,21.035,0,0,0,7.533,0,12.025,12.025,0,0,0,3.056-.946v1.852a4.715,4.715,0,0,1-2.085,1.092,18.574,18.574,0,0,1-9.475,0A4.715,4.715,0,0,1,198.715,113.117Zm0-4.552v-2.126a10.6,10.6,0,0,0,3.056,1.156,17.746,17.746,0,0,0,7.533,0,10.6,10.6,0,0,0,3.056-1.156v2.126a4.719,4.719,0,0,1-2.085,1.092,18.574,18.574,0,0,1-9.475,0A4.719,4.719,0,0,1,198.715,108.564Zm6.822-2.838a15.561,15.561,0,0,1-4.833-.663c-1.326-.445-1.989-.978-1.989-1.609s.663-1.173,1.989-1.617a17.938,17.938,0,0,1,9.666,0c1.326.445,1.989.978,1.989,1.617s-.663,1.164-1.989,1.609A15.561,15.561,0,0,1,205.537,105.726Zm-12.886,1.326V105.2a13.405,13.405,0,0,0,3.79,1.043v2.272a14.573,14.573,0,0,1-2.558-.7A3.019,3.019,0,0,1,192.65,107.052Zm0-4.552v-2.126a11.646,11.646,0,0,0,4.121,1.326,1.869,1.869,0,0,0-.332.995v1.278a14.54,14.54,0,0,1-2.558-.711A2.86,2.86,0,0,1,192.65,102.5Zm6.822-2.838A15.561,15.561,0,0,1,194.639,99c-1.326-.445-1.989-.978-1.989-1.609s.663-1.173,1.989-1.617a17.938,17.938,0,0,1,9.666,0c1.326.445,1.99.97,1.99,1.593s-.616,1.14-1.848,1.585a17.256,17.256,0,0,0-4.264.663l-.189.048Z" id="el_dpSNcVi1JvU"/><path d="M145.008,94.913c-9.793,5.654-9.81,14.811-.039,20.452s25.631,5.631,35.424-.022,9.81-14.811.039-20.452S154.8,89.259,145.008,94.913Z" id="el_IuVCuanZZkB"/><path d="M160.046,31.276c4.729.08,8.713,4.008,11.16,8.269,2.841,4.95,4.26,12.206-.832,15.033l-1.4.806s1.444.741,2.357,1.35a14.16,14.16,0,0,1,6.327,11.311q.046,9.584,0,19.176a3.922,3.922,0,0,1-1.836,3.441l-3.19,1.842c0,4.725.022,9.45,0,14.175a3.933,3.933,0,0,1-1.752,3.394c-2.628,1.509-5.01,3.328-7.574,1.927-2.755-1.542-5.477-3.145-8.2-4.739a8.087,8.087,0,0,1-3.9-6.68V82.646c-2.672-1.542-4.978-4.116-5.025-7.275q-.042-9.591,0-19.177a5.859,5.859,0,0,1,2.662-5.236l.056-.028c1.186-.689,2.367-1.383,3.567-2.062a20.521,20.521,0,0,1-2.255-7.594c-.1-2.644.647-5.489,2.841-6.937.066-.042.127-.084.192-.122,1.284-.774,2.37-1.364,3.58-2.063A6,6,0,0,1,160.046,31.276Zm-.1,3.75a2.346,2.346,0,0,0-1.218.352c-2.242,1.294-4.786,2.1-4.786,5.353a14.347,14.347,0,0,0,3.107,8.32,2.31,2.31,0,0,1,.151,1.983c-.592,1.13-2.417.848-3.029,1.172h0c-1.181.684-2.381,1.35-3.548,2.048-.614.389-.694,1.275-.7,1.978-.033,6.384-.155,12.769,0,19.153a4.249,4.249,0,0,0,2.053,3.38l2.034,1.177a2.558,2.558,0,0,1,.889,1.191,1.851,1.851,0,0,1,.051.431c0,6.366-.153,12.727,0,19.088a4.241,4.241,0,0,0,2.053,3.38c2.705,1.58,5.39,3.2,8.137,4.7a2.67,2.67,0,0,0,.324.141l3.392-1.959a1.7,1.7,0,0,0,.022-.3V91.28a1.777,1.777,0,0,1,1.567-1.847l3.437-1.988a1.525,1.525,0,0,0,.021-.216c.159-6.384.031-12.769,0-19.153a10.42,10.42,0,0,0-5.1-8.5l-1.033-.6A13.648,13.648,0,0,1,162.7,57.17s-1.826-2.128-.156-3.225c.739-.488,1.7-.131,2.557-.656,2.732-1.575,5.632-2.827,4.5-7.786-.98-4.308-3.875-8.358-7.856-10.05A4.511,4.511,0,0,0,159.95,35.026Z" id="el__luXJg0RKKY"/><path d="M163.717,34.35q-3.394-1.959-5.718-.725-2.326,1.269-2.325,5.027A15.178,15.178,0,0,0,158,46.363a16.009,16.009,0,0,0,5.718,5.878q3.394,1.959,5.718.725,2.326-1.269,2.325-5.027a15.178,15.178,0,0,0-2.325-7.711A16.01,16.01,0,0,0,163.717,34.35ZM157.686,51c-1.677-.968-3.1-1.146-4.274-.512-1.171.612-1.759,1.871-1.759,3.732V73.232a5.6,5.6,0,0,0,.879,2.869,5.888,5.888,0,0,0,2.136,2.211l2.012,1.161V98.486a5.677,5.677,0,0,0,.879,2.893,6.063,6.063,0,0,0,2.136,2.211l8.042,4.643a2.16,2.16,0,0,0,2.136.255,1.926,1.926,0,0,0,.879-1.878V87.6l2.012,1.161a2.105,2.105,0,0,0,2.136.255,1.892,1.892,0,0,0,.879-1.854V68.15a11.257,11.257,0,0,0-1.759-5.762,11.941,11.941,0,0,0-4.272-4.423l-1.383-.8a11.244,11.244,0,0,1-4.65-1.563,20.535,20.535,0,0,1-4.65-3.806Z" id="el_oRDPQAbGAlj"/><path d="M165.83,55.036l3.606-2.081L158,33.635l-3.721,2.145Z" id="el_irp5lv5FDl7"/><path d="M166.271,110.57l3.606-2.081-.187-17.377,1.608,0,3.6-2.081-.916-15.246-20.748-23.2-3.43,1.98,14.69,35.4Z" id="el_hmQg90KyKrR"/><path d="M160.114,36.43Q156.72,34.47,154.4,35.7q-2.326,1.269-2.325,5.027a15.178,15.178,0,0,0,2.325,7.711,16.009,16.009,0,0,0,5.718,5.878q3.394,1.959,5.718.725,2.326-1.269,2.325-5.027a15.178,15.178,0,0,0-2.325-7.711A16.01,16.01,0,0,0,160.114,36.43ZM154.083,53.08c-1.677-.968-3.1-1.146-4.274-.512-1.171.612-1.759,1.871-1.759,3.732V75.312a5.6,5.6,0,0,0,.879,2.869,5.888,5.888,0,0,0,2.136,2.211l2.012,1.161v19.012a5.677,5.677,0,0,0,.879,2.893,6.063,6.063,0,0,0,2.136,2.211l8.042,4.643a2.16,2.16,0,0,0,2.136.255,1.926,1.926,0,0,0,.879-1.878V89.679l2.012,1.161a2.105,2.105,0,0,0,2.136.255,1.892,1.892,0,0,0,.879-1.854V70.23a11.257,11.257,0,0,0-1.759-5.762,11.941,11.941,0,0,0-4.272-4.423l-1.383-.8a11.244,11.244,0,0,1-4.65-1.563,20.535,20.535,0,0,1-4.65-3.806Z" id="el_EmWMDSdcN2Y"/><path d="M148.47,63.371a18.768,18.768,0,0,0-4.548.52,10.2,10.2,0,0,0-3.316,1.374,2.363,2.363,0,0,0-1.231,1.9V77.771c0,.825.561,1.556,1.682,2.2a12.084,12.084,0,0,0,4.382,1.355v2.508a2.369,2.369,0,0,0,1.232,1.9,10.2,10.2,0,0,0,3.316,1.374,20.142,20.142,0,0,0,9.1,0,10.2,10.2,0,0,0,3.316-1.374,2.369,2.369,0,0,0,1.231-1.9V73.224q0-1.23-1.682-2.2a12.182,12.182,0,0,0-4.382-1.35V67.163a2.363,2.363,0,0,0-1.232-1.9,10.2,10.2,0,0,0-3.316-1.374A18.762,18.762,0,0,0,148.47,63.371Z" id="el_WyYpQjYJaiJ"/><path d="M148.468,63.389a19.136,19.136,0,0,0-4.548.518,10.24,10.24,0,0,0-3.317,1.375,2.38,2.38,0,0,0-1.231,1.9V77.79q0,1.237,1.682,2.207a12.286,12.286,0,0,0,4.382,1.35v2.507a2.38,2.38,0,0,0,1.231,1.9,10.064,10.064,0,0,0,3.317,1.366,19.946,19.946,0,0,0,9.1,0,10.065,10.065,0,0,0,3.317-1.366,2.38,2.38,0,0,0,1.231-1.9V73.246q0-1.237-1.682-2.207a12.137,12.137,0,0,0-4.383-1.35V67.182a2.38,2.38,0,0,0-1.231-1.9,10.241,10.241,0,0,0-3.317-1.375A19.136,19.136,0,0,0,148.468,63.389Zm-.758,20.279V81.817a12.024,12.024,0,0,0,3.056.946,21.035,21.035,0,0,0,7.533,0,12.025,12.025,0,0,0,3.056-.946v1.852a4.715,4.715,0,0,1-2.085,1.092,18.574,18.574,0,0,1-9.475,0A4.715,4.715,0,0,1,147.71,83.669Zm0-4.552V76.99a10.6,10.6,0,0,0,3.056,1.156,17.746,17.746,0,0,0,7.533,0,10.6,10.6,0,0,0,3.056-1.156v2.126a4.719,4.719,0,0,1-2.085,1.092,18.574,18.574,0,0,1-9.475,0A4.719,4.719,0,0,1,147.71,79.116Zm6.822-2.838a15.561,15.561,0,0,1-4.833-.663c-1.326-.445-1.989-.978-1.989-1.609s.663-1.173,1.989-1.617a17.938,17.938,0,0,1,9.666,0c1.326.445,1.989.978,1.989,1.617s-.663,1.164-1.989,1.609A15.561,15.561,0,0,1,154.532,76.278ZM141.646,77.6V75.753a13.405,13.405,0,0,0,3.79,1.043v2.272a14.573,14.573,0,0,1-2.558-.7A3.019,3.019,0,0,1,141.646,77.6Zm0-4.552V70.926a11.646,11.646,0,0,0,4.121,1.326,1.869,1.869,0,0,0-.332.995v1.278a14.54,14.54,0,0,1-2.558-.711A2.86,2.86,0,0,1,141.646,73.052Zm6.822-2.838a15.561,15.561,0,0,1-4.833-.663c-1.326-.445-1.989-.978-1.989-1.609s.663-1.173,1.989-1.617a17.938,17.938,0,0,1,9.666,0c1.326.445,1.99.97,1.99,1.593s-.616,1.14-1.848,1.585a17.256,17.256,0,0,0-4.264.663l-.189.048Z" id="el_xX63GpANaPZ"/><path d="M55.547,124.361c9.793,5.654,9.81,14.811.039,20.452s-25.631,5.631-35.424-.022-9.81-14.811-.039-20.452S45.754,118.707,55.547,124.361Z" id="el_jdWMqByhYWc"/><path d="M40.629,60.724a6.156,6.156,0,0,1,3.058.844l.049.028c1.163.67,2.33,1.331,3.488,2.011a5.262,5.262,0,0,1,1.716,1.528c2.864,3.816,1.12,9.581-.858,13.167l.188.117c1.181.68,2.353,1.359,3.534,2.034a5.647,5.647,0,0,1,1.514,1.4,6.752,6.752,0,0,1,1.064,3.792q.042,9.591,0,19.177a8.131,8.131,0,0,1-3.952,6.656l-1.073.619c0,6,.028,12,0,17.991a8.072,8.072,0,0,1-3.9,6.623q-4.065,2.377-8.151,4.706a4.14,4.14,0,0,1-3.952.23c-2.638-1.5-5.413-2.7-5.428-5.574V121.952c-1.979-1.144-4.972-1.584-5.026-5.283q-.051-9.59,0-19.176a14.237,14.237,0,0,1,6.965-11.709l1.386-.8a2.712,2.712,0,0,1,.333-.15c-1.471-.848-2.951-1.641-3.791-3.276-2.522-4.912.03-11.353,3.8-15.759,2.276-2.663,5.348-4.922,8.743-5.067C40.429,60.724,40.529,60.724,40.629,60.724Zm-.075,3.75c-3.261.056-6.053,3.127-7.888,6.276-1.444,2.475-2.529,5.372-1.826,8.292a2.568,2.568,0,0,0,1.124,1.683l.07.038c1.756,1.017,3.485,2.39,4.848,2.32,0,0,2.011.352,1.972,1.922-.05,2.034-3.347,3.033-5.911,3.4A10.1,10.1,0,0,0,30.636,89.8a10.505,10.505,0,0,0-3.988,7.73c-.032,6.384-.161,12.769,0,19.153,0,.089.021.216.021.216l3.437,1.988s1.286.464,1.514,1.4a1.844,1.844,0,0,1,.053.445c0,5.137-.128,10.275,0,15.408,0,.094.021.22.021.22l3.392,1.959a1.661,1.661,0,0,0,.371-.164c2.721-1.556,5.464-3.07,8.139-4.7a4.2,4.2,0,0,0,2.005-3.4V111.011a2.543,2.543,0,0,1,.588-1.359,1.762,1.762,0,0,1,.352-.263c1.908-1.1,4.055-2.48,4.088-4.608q.042-9.548,0-19.1c-.014-.788-.1-1.65-.806-2.034-1.148-.666-2.3-1.327-3.445-1.992a1.172,1.172,0,0,0-.356-.164,2.171,2.171,0,0,0-.957,0c-1.623-.056-2.352-1.824-1.16-3.558,1.82-2.691,3.242-5.986,2.567-9.253-.417-2.025-2.907-2.911-4.806-3.947A2.18,2.18,0,0,0,40.553,64.474Z" id="el_uNMeyFVmvcu"/><path d="M36.837,63.8q3.394-1.959,5.718-.725,2.326,1.269,2.325,5.027a15.178,15.178,0,0,1-2.325,7.711,16.009,16.009,0,0,1-5.718,5.878q-3.394,1.959-5.718.725-2.326-1.269-2.325-5.027a15.178,15.178,0,0,1,2.325-7.711A16.01,16.01,0,0,1,36.837,63.8Zm6.031,16.651c1.677-.968,3.1-1.146,4.274-.512,1.171.612,1.759,1.871,1.759,3.732V102.68a5.6,5.6,0,0,1-.879,2.869,5.888,5.888,0,0,1-2.136,2.211l-2.012,1.161v19.012a5.677,5.677,0,0,1-.879,2.893,6.063,6.063,0,0,1-2.136,2.211l-8.042,4.643a2.16,2.16,0,0,1-2.136.255,1.926,1.926,0,0,1-.879-1.878V117.047l-2.012,1.161a2.105,2.105,0,0,1-2.136.255,1.892,1.892,0,0,1-.879-1.854V97.6a11.257,11.257,0,0,1,1.759-5.762A11.941,11.941,0,0,1,30.8,87.413l1.383-.8a11.244,11.244,0,0,0,4.65-1.563,20.535,20.535,0,0,0,4.65-3.806Z" id="el_C7meglalg4k"/><path d="M34.725,84.484,31.119,82.4,42.554,63.083l3.721,2.145Z" id="el_gim-KDP_teC"/><path d="M34.284,140.018l-3.606-2.081.187-17.377-1.608,0-3.6-2.081.916-15.246,20.748-23.2,3.43,1.98-14.69,35.4Z" id="el_CW-LCa9QPfc"/><path d="M40.441,65.878q3.394-1.959,5.718-.725,2.326,1.269,2.325,5.027a15.178,15.178,0,0,1-2.325,7.711,16.009,16.009,0,0,1-5.718,5.878q-3.394,1.959-5.718.725Q32.4,83.224,32.4,79.466a15.178,15.178,0,0,1,2.325-7.711A16.01,16.01,0,0,1,40.441,65.878Zm6.031,16.651c1.677-.968,3.1-1.146,4.274-.512,1.171.612,1.759,1.871,1.759,3.732V104.76a5.6,5.6,0,0,1-.879,2.869,5.888,5.888,0,0,1-2.136,2.211L47.477,111v19.012a5.677,5.677,0,0,1-.879,2.893,6.063,6.063,0,0,1-2.136,2.211l-8.042,4.643a2.16,2.16,0,0,1-2.136.255,1.926,1.926,0,0,1-.879-1.878V119.127l-2.012,1.161a2.105,2.105,0,0,1-2.136.255,1.892,1.892,0,0,1-.879-1.854V99.678a11.257,11.257,0,0,1,1.759-5.762,11.941,11.941,0,0,1,4.272-4.423l1.383-.8a11.244,11.244,0,0,0,4.65-1.563,20.535,20.535,0,0,0,4.65-3.806Z" id="el_wxc0zgHUBNY"/><path d="M52.084,92.819a18.768,18.768,0,0,1,4.548.52,10.2,10.2,0,0,1,3.316,1.374,2.363,2.363,0,0,1,1.231,1.9v10.608c0,.825-.561,1.556-1.682,2.2a12.084,12.084,0,0,1-4.382,1.355v2.508a2.369,2.369,0,0,1-1.232,1.9,10.2,10.2,0,0,1-3.316,1.374,20.142,20.142,0,0,1-9.1,0,10.2,10.2,0,0,1-3.316-1.374,2.369,2.369,0,0,1-1.231-1.9V102.672q0-1.23,1.682-2.2a12.182,12.182,0,0,1,4.382-1.35V96.611a2.363,2.363,0,0,1,1.232-1.9,10.2,10.2,0,0,1,3.316-1.374A18.762,18.762,0,0,1,52.084,92.819Z" id="el_dQloVhny5a2"/><path d="M52.087,92.837a19.136,19.136,0,0,1,4.548.518,10.24,10.24,0,0,1,3.317,1.375,2.38,2.38,0,0,1,1.231,1.9v10.609q0,1.237-1.682,2.207a12.286,12.286,0,0,1-4.382,1.35V113.3a2.38,2.38,0,0,1-1.231,1.9,10.064,10.064,0,0,1-3.317,1.366,19.946,19.946,0,0,1-9.1,0,10.065,10.065,0,0,1-3.317-1.366,2.38,2.38,0,0,1-1.231-1.9V102.694q0-1.237,1.682-2.207a12.137,12.137,0,0,1,4.383-1.35V96.63a2.38,2.38,0,0,1,1.231-1.9,10.241,10.241,0,0,1,3.317-1.375A19.136,19.136,0,0,1,52.087,92.837Zm.758,20.279v-1.852a12.024,12.024,0,0,1-3.056.946,21.035,21.035,0,0,1-7.533,0,12.025,12.025,0,0,1-3.056-.946v1.852a4.715,4.715,0,0,0,2.085,1.092,18.574,18.574,0,0,0,9.475,0A4.715,4.715,0,0,0,52.845,113.117Zm0-4.552v-2.126a10.6,10.6,0,0,1-3.056,1.156,17.746,17.746,0,0,1-7.533,0,10.6,10.6,0,0,1-3.056-1.156v2.126a4.719,4.719,0,0,0,2.085,1.092,16.666,16.666,0,0,0,4.737.614,16.67,16.67,0,0,0,4.737-.614A4.719,4.719,0,0,0,52.845,108.564Zm-6.822-2.838a15.561,15.561,0,0,0,4.833-.663c1.326-.445,1.989-.978,1.989-1.609s-.663-1.173-1.989-1.617a15.56,15.56,0,0,0-4.833-.663,15.56,15.56,0,0,0-4.833.663c-1.326.445-1.989.978-1.989,1.617s.663,1.164,1.989,1.609A15.561,15.561,0,0,0,46.023,105.726Zm12.886,1.326V105.2a13.405,13.405,0,0,1-3.79,1.043v2.272a14.573,14.573,0,0,0,2.558-.7A3.019,3.019,0,0,0,58.909,107.052Zm0-4.552v-2.126a11.646,11.646,0,0,1-4.121,1.326,1.869,1.869,0,0,1,.332.995v1.278a14.54,14.54,0,0,0,2.558-.711A2.86,2.86,0,0,0,58.909,102.5Zm-6.822-2.838A15.561,15.561,0,0,0,56.92,99c1.326-.445,1.989-.978,1.989-1.609s-.663-1.173-1.989-1.617a15.56,15.56,0,0,0-4.833-.663,15.56,15.56,0,0,0-4.833.663c-1.326.445-1.99.97-1.99,1.593s.616,1.14,1.848,1.585a17.256,17.256,0,0,1,4.264.663l.189.048Z" id="el_QLqmqFqGZxx"/><path d="M106.553,94.913c9.793,5.654,9.81,14.811.039,20.452S80.96,121,71.168,115.343s-9.81-14.811-.039-20.452S96.76,89.259,106.553,94.913Z" id="el_7xxYK1tw4UV"/><path d="M98.323,34.215c3.244,1.983,3.469,6.919,2.5,10.462a18.009,18.009,0,0,1-.642,1.894,20.8,20.8,0,0,1-1.092,2.283l.155.094c1.762,1.073,3.872,1.8,5.025,3.375a6.688,6.688,0,0,1,1.12,3.872q.042,9.591,0,19.177a8.145,8.145,0,0,1-3.952,6.656l-1.073.619c0,6,.028,12,0,17.991a8.124,8.124,0,0,1-3.9,6.623q-4.065,2.377-8.15,4.706a4.115,4.115,0,0,1-4.05.173c-1.98-1.209-4.58-1.978-5.174-4.223a5.185,5.185,0,0,1-.157-1.294V92.5c-1.965-1.139-4.97-1.509-5.026-5.283q-.051-9.59,0-19.176a14.186,14.186,0,0,1,6.965-11.709l1.386-.8a2.712,2.712,0,0,1,.333-.15A9,9,0,0,1,79,52.468c-2.243-3.736-.991-8.77,1.281-12.788,2.832-5.011,8.015-9.9,13.291-8.081a28.443,28.443,0,0,1,4.658,2.559C98.257,34.177,98.29,34.2,98.323,34.215Zm-6.763.811c-3.232.051-6.046,3.117-7.888,6.276a11.931,11.931,0,0,0-1.9,7.941,2.745,2.745,0,0,0,1.266,2.072c1.61.933,3.163,2.409,4.848,2.32a2.563,2.563,0,0,1,1.318.45,1.956,1.956,0,0,1-.509,3.178,13.58,13.58,0,0,1-4.833,1.711s-.878.455-1.368.759a10.421,10.421,0,0,0-4.841,8.344c-.032,6.384-.161,12.769,0,19.153,0,.089.021.216.021.216l3.437,1.988s1.488.516,1.567,1.847c0,5.137-.127,10.275,0,15.408,0,.094.021.22.021.22l3.392,1.959a1.7,1.7,0,0,0,.324-.141Q90.563,106.463,94.6,104a4.208,4.208,0,0,0,2.005-3.4V81.563A2.543,2.543,0,0,1,97.2,80.2a1.762,1.762,0,0,1,.352-.263c1.945-1.125,4.055-2.489,4.088-4.608q.042-9.548,0-19.1c-.014-.788-.1-1.65-.8-2.034l-3.45-1.992a2.5,2.5,0,0,0-1.312-.164c-1.642-.056-2.332-1.852-1.162-3.558C96.661,45.9,98,42.854,97.54,39.6c-.014-.122-.038-.244-.061-.366-.408-1.969-2.916-2.915-4.806-3.947a2.279,2.279,0,0,0-1.036-.258Z" id="el_UNmpX3rY18s"/><path d="M87.843,34.35q3.394-1.959,5.718-.725,2.326,1.269,2.325,5.027a15.178,15.178,0,0,1-2.325,7.711,16.009,16.009,0,0,1-5.718,5.878q-3.394,1.959-5.718.725Q79.8,51.7,79.8,47.938a15.178,15.178,0,0,1,2.325-7.711A16.01,16.01,0,0,1,87.843,34.35ZM93.874,51c1.677-.968,3.1-1.146,4.274-.512,1.171.612,1.759,1.871,1.759,3.732V73.232a5.6,5.6,0,0,1-.879,2.869,5.888,5.888,0,0,1-2.136,2.211L94.88,79.474V98.486A5.677,5.677,0,0,1,94,101.379a6.063,6.063,0,0,1-2.136,2.211l-8.042,4.643a2.16,2.16,0,0,1-2.136.255,1.926,1.926,0,0,1-.879-1.878V87.6L78.8,88.761a2.105,2.105,0,0,1-2.136.255,1.892,1.892,0,0,1-.879-1.854V68.15a11.257,11.257,0,0,1,1.759-5.762,11.941,11.941,0,0,1,4.272-4.423l1.383-.8a11.244,11.244,0,0,0,4.65-1.563,20.535,20.535,0,0,0,4.65-3.806Z" id="el_Bh9rWlOkFM-"/><path d="M85.731,55.036l-3.606-2.081L93.56,33.635l3.721,2.145Z" id="el_v9QrrtJ7EW3"/><path d="M85.29,110.57l-3.606-2.081.187-17.377-1.608,0-3.6-2.081.916-15.246,20.748-23.2,3.43,1.98-14.69,35.4Z" id="el_Q89y2IwuvNt"/><path d="M91.447,36.43q3.394-1.959,5.718-.725,2.326,1.269,2.325,5.027a15.178,15.178,0,0,1-2.325,7.711,16.009,16.009,0,0,1-5.718,5.878q-3.394,1.959-5.718.725Q83.4,53.776,83.4,50.018a15.178,15.178,0,0,1,2.325-7.711A16.01,16.01,0,0,1,91.447,36.43ZM97.477,53.08c1.677-.968,3.1-1.146,4.274-.512,1.171.612,1.759,1.871,1.759,3.732V75.312a5.6,5.6,0,0,1-.879,2.869,5.888,5.888,0,0,1-2.136,2.211l-2.012,1.161v19.012a5.677,5.677,0,0,1-.879,2.893,6.063,6.063,0,0,1-2.136,2.211l-8.042,4.643a2.16,2.16,0,0,1-2.136.255,1.926,1.926,0,0,1-.879-1.878V89.679L82.4,90.841a2.105,2.105,0,0,1-2.136.255,1.892,1.892,0,0,1-.879-1.854V70.23a11.257,11.257,0,0,1,1.759-5.762,11.941,11.941,0,0,1,4.272-4.423l1.383-.8a11.244,11.244,0,0,0,4.65-1.563,20.535,20.535,0,0,0,4.65-3.806Z" id="el_KLHQ-GqZ3zF"/><path d="M103.09,63.371a18.768,18.768,0,0,1,4.548.52,10.2,10.2,0,0,1,3.316,1.374,2.363,2.363,0,0,1,1.231,1.9V77.771c0,.825-.561,1.556-1.682,2.2a12.084,12.084,0,0,1-4.382,1.355v2.508a2.369,2.369,0,0,1-1.232,1.9,10.2,10.2,0,0,1-3.316,1.374,20.142,20.142,0,0,1-9.1,0,10.2,10.2,0,0,1-3.316-1.374,2.369,2.369,0,0,1-1.231-1.9V73.224q0-1.23,1.682-2.2a12.182,12.182,0,0,1,4.382-1.35V67.163a2.363,2.363,0,0,1,1.232-1.9,10.2,10.2,0,0,1,3.316-1.374A18.762,18.762,0,0,1,103.09,63.371Z" id="el_ckhE76LeYqG"/><path d="M103.093,63.389a19.136,19.136,0,0,1,4.548.518,10.24,10.24,0,0,1,3.317,1.375,2.38,2.38,0,0,1,1.231,1.9V77.79q0,1.237-1.682,2.207a12.286,12.286,0,0,1-4.382,1.35v2.507a2.38,2.38,0,0,1-1.231,1.9,10.064,10.064,0,0,1-3.317,1.366,19.946,19.946,0,0,1-9.1,0,10.065,10.065,0,0,1-3.317-1.366,2.38,2.38,0,0,1-1.231-1.9V73.246q0-1.237,1.682-2.207A12.137,12.137,0,0,1,94,69.688V67.182a2.38,2.38,0,0,1,1.231-1.9,10.241,10.241,0,0,1,3.317-1.375A19.136,19.136,0,0,1,103.093,63.389Zm.758,20.279V81.817a12.024,12.024,0,0,1-3.056.946,21.035,21.035,0,0,1-7.533,0,12.025,12.025,0,0,1-3.056-.946v1.852a4.715,4.715,0,0,0,2.085,1.092,18.574,18.574,0,0,0,9.475,0A4.715,4.715,0,0,0,103.851,83.669Zm0-4.552V76.99a10.6,10.6,0,0,1-3.056,1.156,17.746,17.746,0,0,1-7.533,0,10.6,10.6,0,0,1-3.056-1.156v2.126a4.719,4.719,0,0,0,2.085,1.092,18.574,18.574,0,0,0,9.475,0A4.719,4.719,0,0,0,103.851,79.116Zm-6.822-2.838a15.561,15.561,0,0,0,4.833-.663c1.326-.445,1.989-.978,1.989-1.609s-.663-1.173-1.989-1.617a17.938,17.938,0,0,0-9.666,0c-1.326.445-1.989.978-1.989,1.617s.663,1.164,1.989,1.609A15.561,15.561,0,0,0,97.029,76.278ZM109.915,77.6V75.753a13.405,13.405,0,0,1-3.79,1.043v2.272a14.573,14.573,0,0,0,2.558-.7A3.019,3.019,0,0,0,109.915,77.6Zm0-4.552V70.926a11.646,11.646,0,0,1-4.121,1.326,1.869,1.869,0,0,1,.332.995v1.278a14.54,14.54,0,0,0,2.558-.711A2.86,2.86,0,0,0,109.915,73.052Zm-6.822-2.838a15.561,15.561,0,0,0,4.833-.663c1.326-.445,1.989-.978,1.989-1.609s-.663-1.173-1.989-1.617a17.938,17.938,0,0,0-9.666,0c-1.326.445-1.99.97-1.99,1.593s.616,1.14,1.848,1.585a17.256,17.256,0,0,1,4.264.663l.189.048Z" id="el_2zX3l_A7Mof"/></g><g id="el_O_t_6xLIuig" data-name="First vertical"><path d="M125.985,180.507a1.474,1.474,0,0,1,1.276,1.4s-.436,1.615-1.665,1.381a1.466,1.466,0,0,1-1.148-1.381S124.75,180.453,125.985,180.507Zm0-5.63a1.491,1.491,0,0,1,1.276,1.407s-.651,1.8-1.914,1.308c-.63-.244-.9-1.308-.9-1.308A1.465,1.465,0,0,1,125.985,174.877Zm0-5.621a1.474,1.474,0,0,1,1.276,1.4s-1.02,2.256-2.354,1.038a2.11,2.11,0,0,1-.459-1.038A1.458,1.458,0,0,1,125.985,169.256Zm0-5.621a1.474,1.474,0,0,1,1.276,1.4s-1.02,2.256-2.354,1.038a2.143,2.143,0,0,1-.459-1.038A1.452,1.452,0,0,1,125.985,163.635Zm0-5.63a1.482,1.482,0,0,1,1.276,1.4s-.961,2.31-2.354,1.047a1.252,1.252,0,0,1-.459-1.047S124.75,157.95,125.985,158Zm0-5.621a1.474,1.474,0,0,1,1.276,1.4s-.651,1.8-1.914,1.308c-.63-.244-.9-1.308-.9-1.308A1.468,1.468,0,0,1,125.985,152.383Z" id="el_xJZZAi4kSEy"/></g><g id="el_Ls7FTZ1QCRl" data-name="Top vertical dots"><path d="M92.937,152.439a1.473,1.473,0,0,1,1.276,1.4s-1.02,2.252-2.354,1.038a2.148,2.148,0,0,1-.459-1.038A1.458,1.458,0,0,1,92.937,152.439Zm0-5.631a1.48,1.48,0,0,1,1.276,1.4s-.982,2.3-2.354,1.047a2.166,2.166,0,0,1-.459-1.047A1.46,1.46,0,0,1,92.937,146.808Zm0-5.622a1.473,1.473,0,0,1,1.276,1.4s-.436,1.61-1.665,1.381a1.464,1.464,0,0,1-1.148-1.381S91.7,141.125,92.937,141.186Zm0-5.622a1.473,1.473,0,0,1,1.276,1.4s-.436,1.61-1.665,1.381a1.48,1.48,0,0,1-1.148-1.381S91.7,135.5,92.937,135.564Zm0-5.631a1.473,1.473,0,0,1,1.276,1.4s-.571,1.707-1.791,1.355a1.309,1.309,0,0,1-1.021-1.355S91.7,129.881,92.937,129.933Zm0-5.622a1.473,1.473,0,0,1,1.276,1.4s-.982,2.287-2.354,1.038a2.147,2.147,0,0,1-.459-1.038A1.454,1.454,0,0,1,92.937,124.311Z" id="el_b55nRBT_xZA"/><path d="M159.083,152.439a1.473,1.473,0,0,1,1.276,1.4s-.651,1.795-1.914,1.311c-.63-.246-.9-1.311-.9-1.311A1.449,1.449,0,0,1,159.083,152.439Zm0-5.631a1.48,1.48,0,0,1,1.276,1.4s-.436,1.619-1.665,1.381a1.464,1.464,0,0,1-1.148-1.381S157.848,146.755,159.083,146.808Zm0-5.622a1.473,1.473,0,0,1,1.276,1.4s-.982,2.288-2.354,1.038a1.233,1.233,0,0,1-.459-1.038S157.848,141.125,159.083,141.186Zm0-5.622a1.473,1.473,0,0,1,1.276,1.4s-.982,2.288-2.354,1.038a1.233,1.233,0,0,1-.459-1.038S157.848,135.5,159.083,135.564Zm0-5.631a1.473,1.473,0,0,1,1.276,1.4s-.982,2.3-2.354,1.047a1.252,1.252,0,0,1-.459-1.047S157.848,129.881,159.083,129.933Zm0-5.622a1.473,1.473,0,0,1,1.276,1.4s-.961,2.305-2.354,1.038a1.233,1.233,0,0,1-.459-1.038S157.848,124.25,159.083,124.311Z" id="el_JS6ujS92v0m"/></g><g id="el_hufOFin-zOM_R8RiEAM8cI1" data-animator-group="true" data-animator-type="0"><g id="el_hufOFin-zOM" data-name="Check left"><path d="M217.628,52.343h4.282a3.517,3.517,0,0,0,3.516-3.516V32.421a3.517,3.517,0,0,0-3.516-3.516H205.5a3.517,3.517,0,0,0-3.516,3.516V48.828a3.517,3.517,0,0,0,3.516,3.516h4.282l3.921,6.159Z" id="el_rSv6YQ_HQs0"/><path d="M221.956,28.906h.09l.045,0h.045l.045,0,.045,0,.044,0,.045,0,.044,0,.044,0,.044,0,.043.009.044,0,.043.009.043.009.043.009.043.009.042.009.042.009.042.014.042.009.042.014.041.009.041.014.041.014.041.014.041.014.04.014.04.019.04.014.039.019.039.014.039.019.039.019.038.019.038.019.038.019.038.019.038.019.037.023.037.019.037.023.037.019.036.023.036.023.036.023.035.023.035.023.034.023.035.023.034.028.034.023.033.028.033.023.033.028.032.028.032.028.032.028.031.028.031.028.03.028.03.028.03.033.03.028.029.028.029.033.029.033.028.028.028.033.028.033.027.033.027.033.027.033.026.033.025.033.025.033.025.038.024.033.024.033.024.038.023.037.022.033.022.037.022.037.022.033.021.037.021.037.02.038.02.037.019.042.019.038.018.037.018.038.017.037.017.042.016.038.016.042.016.037.015.042.015.042.014.037.014.042.013.042.012.042.012.042.012.038.011.042.01.042.01.042.009.047.009.042.008.042.008.042.008.042.007.042.006.047.006.042.005.047,0,.042,0,.042,0,.047,0,.047,0,.042,0,.047V48.964l0,.042,0,.047,0,.042,0,.047,0,.042,0,.047-.005.042-.006.042-.006.047-.007.042-.008.042-.008.047-.008.042-.009.042-.009.042-.01.042-.01.042-.011.042-.012.042-.012.042-.012.042-.013.037-.014.042-.014.042-.015.037-.015.042-.016.042-.016.037-.016.042-.017.038-.017.037-.018.042-.018.038-.019.037-.019.038-.02.037L225,50.5l-.021.038-.021.037-.022.037-.022.033-.022.037-.022.037-.023.033-.024.037-.024.033-.024.037-.025.033-.025.033-.025.033-.026.038-.027.033-.026.033-.027.033-.028.028-.028.033-.028.033-.029.028-.029.033-.029.028-.03.033-.03.028-.03.033-.031.028-.031.028-.031.028-.032.028-.032.028-.032.023-.033.028-.033.028-.033.023-.034.028-.034.023-.035.023-.034.023-.035.028-.035.019-.036.023-.036.023-.036.023-.037.023-.037.019-.037.023-.037.019-.038.019-.038.023-.038.019-.038.019-.038.019-.039.014-.039.019-.039.019-.039.014-.04.019-.04.014-.04.014-.041.014-.041.014L223,52.17l-.041.014-.041.014-.042.009-.042.014-.042.009-.042.009-.042.009-.043.009-.043.009-.043.009-.043.009-.044.009-.043,0-.044,0-.044.009-.044,0-.045,0-.044,0-.045,0h-.045l-.045,0H222l-.045,0h-4.327L213.707,58.5l-3.921-6.159h-4.327l-.045,0h-.09l-.045,0h-.045l-.045,0-.044,0-.045,0-.044,0-.044-.009-.044,0-.043,0-.044-.009-.043-.009-.043-.009-.043-.009-.043-.009-.042-.009-.042-.009-.042-.009-.042-.014L204.5,52.2l-.041-.014-.041-.014-.041-.014-.041-.014-.041-.014-.04-.014-.04-.014-.04-.019-.039-.014-.039-.019-.039-.019-.039-.014L203.981,52l-.038-.019-.038-.019-.038-.023-.038-.019-.037-.019-.037-.023-.037-.019-.037-.023-.036-.023-.036-.023-.036-.023-.035-.019-.035-.028-.034-.023-.035-.023-.034-.023-.034-.028-.033-.023-.033-.028-.033-.028-.032-.023-.032-.028-.032-.028-.031-.028-.031-.028-.03-.028-.03-.033-.03-.028-.03-.033-.029-.028-.029-.033-.029-.028-.028-.033-.028-.033-.028-.028-.027-.033-.027-.033L202.739,51l-.026-.038-.025-.033-.025-.033-.025-.033-.024-.037-.024-.033-.024-.037-.023-.033-.022-.037-.023-.037-.022-.033-.022-.037-.021-.037-.021-.038-.02-.037-.02-.037-.019-.038-.019-.037-.018-.038-.018-.042-.017-.037-.017-.038-.016-.042-.016-.037-.016-.042-.015-.042-.015-.037-.014-.042-.014-.042-.013-.037-.012-.042-.012-.042-.012-.042L202.1,49.7l-.01-.042-.01-.042-.009-.042-.009-.042-.008-.042-.008-.047-.007-.042-.007-.042-.006-.047-.006-.042-.005-.042,0-.047,0-.042,0-.047,0-.042,0-.047,0-.042,0-.047V32.328l0-.042,0-.047,0-.042,0-.047,0-.047,0-.042,0-.042.005-.047.006-.042.006-.047.007-.042.007-.042.008-.042.009-.042.009-.042.009-.047.01-.042.01-.042.011-.042.012-.038.012-.042.012-.042.013-.042.014-.042.014-.037.015-.042.015-.042.016-.037.016-.042.016-.038.017-.042.017-.037.018-.038.018-.037.019-.038.019-.042.02-.037.02-.038.021-.037.021-.037.022-.033.022-.037.023-.037.022-.033.023-.037.023-.038.024-.033.024-.033.025-.038.025-.033.025-.033.026-.033.026-.033.027-.033.027-.033.028-.033.028-.033.028-.028.029-.033.029-.033.029-.028.03-.028.03-.033.03-.028.03-.028.031-.028.031-.028.032-.028.032-.028.032-.028.033-.028.033-.023.033-.028.034-.023.034-.028.035-.023.034-.023.035-.023.035-.023.036-.023.036-.023.036-.023.037-.019.037-.023.037-.019.037-.023.038-.019.038-.019.038-.019.038-.019.038-.019.039-.019.039-.019.039-.014.039-.019.04-.014.04-.019.04-.014.041-.014.041-.014.041-.014.041-.014.041-.009.042-.014.042-.009.042-.014.042-.009.042-.009.043-.009.043-.009.043-.009.043-.009.044,0,.043-.009.044,0,.044,0,.044,0,.045,0,.044,0,.045,0,.045,0h.045l.045,0h16.588ZM205.511,31.25h-.1l-.015,0h-.031l-.014,0h-.016l-.014,0h-.013l-.013,0h-.015l-.015,0h-.015l-.015,0-.012,0h-.014l-.016,0-.013,0-.013,0-.013,0-.013,0-.015,0-.015,0-.012,0-.014,0-.014,0-.011,0-.013,0-.013,0-.013.009-.013,0-.015,0-.012,0-.012.009-.013,0-.012.009-.011,0-.013,0-.013.009-.012.009-.012,0-.01.009-.012,0-.014.009-.011.009-.01,0-.013.009-.012.009-.011.009-.012.009-.01.009-.012.009-.011.009-.01,0-.011.009-.01.014-.012.009-.011.009-.008.009-.011.009-.011.009-.009.009-.009.009-.01.014-.01.009-.008.009-.009.014-.01.009-.009.009-.009.014-.008.009-.008.009-.008.014-.009.009-.009.014-.007.009-.007.014-.008.014-.007.009-.007.014-.008.009-.006.014-.007.009-.007.014-.007.014-.007.009-.006.014-.006.014-.006.014-.007.014-.005.009-.005.014-.006.009-.005.014-.005.014-.005.014,0,.014,0,.014,0,.009,0,.019,0,.009,0,.014,0,.014,0,.014,0,.014,0,.014,0,.014,0,.014,0,.014,0,.014,0,.014,0,.014,0,.014,0,.014v.019l0,.014V48.95l0,.014v.014l0,.014,0,.014,0,.014,0,.014,0,.014,0,.014,0,.014,0,.014,0,.014,0,.014,0,.014,0,.014,0,.014,0,.014,0,.014.005.014,0,.014,0,.009.005.014,0,.014.006.014.006.014.005.009.006.014.006.014.006.009.007.014.007.014.006.014.006.009.007.014.007.009.007.014.008.014.007.009.008.014.008.009.007.014.008.009.009.014.007.009.008.014.01.009.008.014.009.009.009.009.009.014.009.009.008.009.01.014.01.009.01.009.01.009.009.009.01.009.011.014.01.009.009.009.01.009.012.009.012.009.009.009.01.009.012,0,.012.009.012.009.011.009.011.009.012,0,.011.009.013.009.012.009.01,0,.012.009.015.009.011,0,.011,0,.013.009.013,0,.012.009.012,0,.014,0,.01,0,.013.009.015,0,.013,0,.013,0,.014.009.012,0,.014,0,.014,0,.012,0,.013,0h.013l.015,0,.015,0,.014,0,.011,0,.014,0h.016l.012,0,.015,0h.015l.013,0h.015l.013,0h.016l.014,0h.031l.012,0h.061l.016,0h5.6l2.635,4.139L216.342,50h5.6l.016,0h.061l.013,0h.03l.014,0h.016l.013,0h.015l.013,0h.015l.015,0,.012,0h.016l.014,0,.011,0,.013,0,.016,0,.015,0,.013,0h.013l.012,0,.014,0,.014,0,.012,0,.013-.009.013,0,.013,0,.015,0,.013-.009.01,0,.014,0,.012,0,.011-.009.014,0,.014-.009.011,0,.011,0,.015-.009.012-.009.01,0,.012-.009.014-.009.011-.009.011,0,.011-.009.011-.009.012-.009.012-.009.012,0,.01-.009.01-.009.011-.009.013-.009.01-.009.009-.009.011-.009.012-.014.009-.009.009-.009.011-.009.009-.009.01-.009.01-.014.008-.009.01-.009.009-.014.009-.009.009-.009.008-.014.009-.009.008-.014.007-.009.009-.014.008-.009.007-.014.008-.009.008-.014.007-.009.007-.014.007-.009.007-.014.007-.014.006-.009.007-.014.007-.014.007-.014.006-.009.006-.014.006-.014.005-.009.006-.014.006-.014,0-.014.005-.014,0-.009,0-.014,0-.014,0-.014,0-.014,0-.014,0-.014,0-.014,0-.014,0-.014,0-.014,0-.014,0-.009,0-.014,0-.019,0-.014,0-.014,0-.014v-.014l0-.014V32.3l0-.019v-.014l0-.014,0-.014,0-.014,0-.014,0-.014,0-.014,0-.014,0-.014,0-.014,0-.014,0-.014,0-.014,0-.014,0-.009,0-.019,0-.009,0-.014,0-.014L223.007,32,223,31.99l0-.009-.006-.019-.006-.009,0-.009-.006-.014-.007-.014-.007-.014-.006-.014-.007-.009-.007-.014-.007-.014-.007-.009-.007-.014-.008-.014-.007-.009-.007-.009-.008-.014-.007-.014-.008-.009-.008-.009-.009-.014-.009-.014-.008-.009-.008-.009-.009-.014-.009-.009-.009-.009-.01-.014-.008-.009-.009-.009-.011-.014-.009-.009-.009-.009-.011-.009-.011-.009-.009-.009-.01-.009-.012-.009-.01-.014-.011-.009-.009,0-.011-.009-.012-.009-.01-.009-.012-.009-.011-.009-.012-.009-.013-.009-.009,0-.011-.009-.014-.009-.012,0-.01-.009-.012,0-.013-.009-.013-.009-.012,0-.011,0-.012-.009-.013,0-.012-.009-.012,0-.014,0-.013,0-.013-.009-.013,0-.013,0-.012,0-.014,0-.014,0-.012,0-.014,0-.015,0-.013,0-.012,0-.013,0-.014,0-.016,0h-.014l-.012,0-.015,0h-.015l-.015,0h-.015l-.013,0h-.013l-.014,0h-.016l-.014,0h-.031l-.015,0h-16.49Z" id="el_DP9GoqST5j8"/><path d="M211.674,44.881a.6.6,0,0,0,.893,0l7.314-7.287a.614.614,0,0,0,.174-.449.6.6,0,0,0-.174-.444l-.917-.893a.544.544,0,0,0-.434-.2.618.618,0,0,0-.459.2l-5.95,5.95-2.777-2.776a.618.618,0,0,0-.459-.2.543.543,0,0,0-.434.2l-.917.893a.6.6,0,0,0-.173.444.614.614,0,0,0,.173.449Z" id="el_qqWZdjl7a00"/></g></g><g id="el_l9LXlULNUe1_RB2WddPX5" data-animator-group="true" data-animator-type="0"><g id="el_l9LXlULNUe1" data-name="Check left two"><path d="M92.78,23.439h4.282a3.517,3.517,0,0,0,3.516-3.516V3.517A3.517,3.517,0,0,0,97.062,0H80.656A3.517,3.517,0,0,0,77.14,3.517V19.923a3.517,3.517,0,0,0,3.516,3.516h4.282L88.859,29.6Z" id="el_X5onJ-DkuGs"/><path d="M97.108,0h.09l.045,0h.045l.045,0,.045,0,.045,0,.044,0,.044,0,.044,0,.044,0,.044.009.044,0,.043.009.043.009.043.009.043.009L97.9.1l.042.009.042.014.042.009.042.014.041.009.041.014.041.014L98.23.2l.04.014.04.014.04.019.039.014.04.019.039.014.039.019.039.019.038.019.038.019.038.019L98.7.4l.038.019.038.023.037.019.037.023.036.019.036.023.036.023.036.023L99.027.6l.035.023L99.1.648l.034.023L99.165.7,99.2.723l.033.028.033.023L99.3.8l.032.028.032.028.031.028.031.028.031.028.03.028.03.028.03.033.03.028.03.028.029.033.029.033.029.028.028.033.027.033.027.033.027.033.026.033.026.033.026.033.025.033.025.038.024.033.024.033.023.038.023.037.023.033.022.037.022.037.021.033.021.037.021.037.02.038.02.037.019.042.019.038.018.037.018.038.017.037.017.042.016.038.016.042.015.037.015.042.015.042.014.037.014.042.013.042.013.042.012.042.012.038.011.042.011.042.01.042.01.047.009.042.008.042.008.042.007.042.007.042.007.047.006.042.006.047,0,.042,0,.042,0,.047,0,.047,0,.042,0,.047V20.059l0,.042,0,.047,0,.042,0,.047,0,.042,0,.047-.006.042-.006.042-.007.047-.007.042-.007.042-.008.047-.008.042-.009.042-.01.042-.01.042-.011.042-.011.042-.012.042-.012.042-.013.042-.013.037-.014.042-.014.042-.015.037-.015.042-.015.042-.016.037-.016.042-.017.038-.017.037-.018.042-.018.038-.019.037-.019.038-.02.037-.02.037-.021.038-.021.037-.021.037-.022.033-.022.037-.023.037L100,21.85l-.023.037-.024.033-.024.037-.025.033-.025.033-.026.033-.026.038-.026.033-.027.033-.027.033-.027.028-.028.033-.029.033-.029.028-.029.033-.03.028-.03.033-.03.028-.03.033-.03.028-.031.028-.031.028-.031.028-.032.028-.032.023-.033.028-.033.028-.033.023-.034.028-.034.023-.034.023-.035.023-.035.028-.035.019-.036.023-.036.023-.036.023-.037.023-.037.019-.037.023-.038.019-.038.019-.037.023-.038.019-.038.019-.038.019-.039.014-.039.019-.039.019-.039.014-.04.019-.04.014-.04.014-.04.014-.041.014-.041.014-.041.014-.041.014-.042.009-.042.014-.042.009-.042.009-.042.009-.043.009-.043.009-.043.009-.043.009-.044.009-.044,0-.044,0-.044.009-.044,0-.044,0-.045,0-.045,0h-.045l-.045,0h-.09l-.045,0H92.78L88.859,29.6l-3.922-6.159H80.61l-.045,0h-.09l-.045,0h-.045l-.045,0-.045,0-.044,0-.044,0-.044-.009-.044,0-.044,0-.043-.009-.043-.009-.043-.009-.043-.009-.043-.009-.043-.009-.042-.009-.042-.009-.042-.014-.041-.009-.042-.014-.041-.014-.041-.014-.041-.014-.04-.014-.04-.014-.04-.014-.04-.019-.04-.014-.039-.019-.039-.019-.038-.014-.039-.019-.038-.019-.038-.019-.038-.023-.037-.019-.037-.019-.037-.023-.037-.019-.036-.023L78.8,22.9l-.036-.023-.035-.023-.035-.019-.035-.028-.035-.023-.034-.023-.034-.023-.033-.028-.034-.023-.033-.028-.033-.028-.032-.023-.032-.028-.032-.028-.031-.028-.031-.028-.031-.028-.03-.033-.03-.028-.03-.033-.029-.028-.029-.033-.029-.028-.028-.033L78,22.22l-.027-.028-.027-.033-.027-.033-.026-.033-.026-.038-.026-.033-.025-.033-.025-.033-.024-.037-.024-.033-.023-.037-.023-.033-.022-.037-.023-.037-.022-.033-.022-.037-.021-.037-.021-.038-.02-.037-.02-.037-.019-.038-.019-.037-.018-.038-.018-.042-.017-.037-.017-.038L77.4,21.25l-.016-.037-.015-.042-.015-.042-.015-.037-.014-.042-.014-.042-.013-.037-.013-.042-.012-.042-.011-.042-.011-.042-.011-.042-.01-.042-.01-.042-.009-.042-.008-.042-.008-.047-.007-.042-.007-.042-.006-.047-.006-.042-.005-.042-.005-.047,0-.042,0-.047,0-.042,0-.047,0-.042V3.381l0-.047,0-.042,0-.047,0-.047,0-.042.005-.042.005-.047.006-.042.006-.047.007-.042.007-.042.008-.042.008-.042.009-.042.01-.047.01-.042.011-.042.011-.042.011-.038.012-.042.013-.042.013-.042.014-.042.014-.037.015-.042.015-.042.015-.037.016-.042.016-.038.017-.042.017-.037.018-.038.018-.037.019-.038.019-.042.02-.037.02-.038.021-.037.021-.037.022-.033.022-.037.023-.037.022-.033.023-.037.023-.038.024-.033.024-.033.025-.038.025-.033.026-.033.026-.033.026-.033.027-.033.027-.033L78,1.216l.028-.033.028-.028.029-.033.029-.033.029-.028.03-.028L78.2,1l.03-.028.031-.028.031-.028.031-.028.032-.028.032-.028L78.42.8l.033-.028.033-.023.034-.028L78.553.7l.034-.028.034-.023.035-.023L78.691.6l.035-.023.035-.023L78.8.531l.036-.023L78.87.489l.037-.023.037-.019.037-.023L79.018.4l.038-.019.038-.019.038-.019L79.171.33l.038-.019.039-.019.039-.014.039-.019.04-.014.04-.019.04-.014L79.488.2l.041-.014L79.57.17l.041-.014.042-.009.041-.014.042-.009.042-.014L79.82.1l.043-.009L79.9.081l.043-.009.043-.009.043-.009.043,0,.044-.009.044,0,.044,0,.044,0,.044,0,.045,0,.045,0,.045,0h.045l.045,0H97.108ZM80.665,2.345h-.1l-.012,0h-.031l-.015,0H80.49l-.014,0h-.016l-.015,0H80.43l-.013,0H80.4l-.014,0-.012,0h-.014l-.016,0-.014,0-.013,0-.013,0-.012,0-.015,0-.015,0-.012,0-.012,0-.016,0-.014,0-.011,0-.013,0-.013.009-.013,0-.014,0-.013,0-.012.009-.011,0-.014.009-.013,0-.011,0-.013.009-.011,0-.012.009-.014.009-.012.009-.01,0-.011.009-.013.009-.013.009-.011,0-.011.009-.01.009-.012.009-.011.009-.012.009-.011.009-.009,0-.011.014-.01.009-.012.009-.01.009-.01.009-.011.009-.009.009-.009.009-.01.014-.009.009-.01.009-.01.014-.008.009-.008.009-.01.014-.009.009-.007.009-.008.014-.009.009-.007.014-.009.014-.008.009-.007.009L79.66,2.9l-.008.014-.007.009-.007.014-.007.009-.007.014-.007.014-.007.009L79.6,3l-.006.014-.007.014-.006.009-.005.014-.006.014-.006.014-.005.009-.005.014,0,.014,0,.014,0,.014,0,.009,0,.019,0,.009,0,.014,0,.014,0,.014,0,.014,0,.014,0,.014,0,.014,0,.014,0,.014,0,.014,0,.014,0,.014,0,.014,0,.019V20.059l0,.014,0,.014,0,.014,0,.014,0,.014,0,.014,0,.014,0,.014,0,.014,0,.014,0,.014,0,.014,0,.014,0,.014,0,.014,0,.014,0,.014,0,.014,0,.009,0,.014.005.014.005.014.006.014.006.009.006.014.006.014.006.009.007.014.006.014.007.014.007.009.007.014.007.009.007.014.007.014.007.009.008.014.008.009.008.014.007.009.008.014.008.009.009.014.009.009.008.014.008.009.01.009.009.014.008.009.011.014.008.009.009.009.012.009.009.009.009.009.01.009.01.009.012.014.01.009.009.009.011.009.013.009.01.009.011.009.012.009.009,0,.012.009.013.009.011.009.013.009.011,0,.01.009.012,0,.014.009.011.009.013,0,.012.009.012,0,.013.009.013,0,.012.009.012,0,.014,0,.012.009.013,0,.013,0,.011,0,.013,0,.016.009.014,0,.012,0,.012,0,.015,0,.013,0,.015,0,.015,0h.011l.014,0,.014,0,.014,0h.017l.014,0,.012,0h.013l.015,0h.016l.013,0h.016l.014,0h.031l.015,0h.059l.014,0h5.6l2.635,4.139L91.493,21.1h5.6l.014,0h.059l.015,0h.031l.014,0h.016l.013,0h.015l.015,0H97.3l.012,0,.015,0h.016l.014,0,.014,0,.013,0h.011l.015,0,.015,0,.013,0,.015,0,.012,0,.012,0,.014,0,.015-.009.014,0,.011,0,.013,0,.013,0,.012-.009.014,0,.012,0,.012-.009.014,0,.013-.009.011,0,.013-.009.012,0,.011-.009.014-.009.012,0,.01-.009.011,0,.013-.009.011-.009.012-.009.012-.009.009,0,.012-.009.011-.009.009-.009.013-.009.011-.009.009-.009.01-.009.011-.014.01-.009.01-.009.01-.009.009-.009.011-.009.009-.009.009-.014.01-.009.008-.009.009-.014.009-.009.009-.009.009-.014L98,20.622l.009-.014.008-.009.007-.009.008-.014.008-.014.008-.009.007-.014.007-.009.007-.014.007-.009.007-.014.007-.014.007-.009.006-.014.007-.014.006-.009.006-.014.006-.014.006-.014.006-.009.006-.014,0-.014.005-.014,0-.014.005-.009,0-.014,0-.014,0-.014,0-.014,0-.014,0-.014,0-.014,0-.014,0-.014,0-.014,0-.014,0-.014,0-.014,0-.014,0-.014,0-.014,0-.014,0-.014,0-.014V3.4l0-.014,0-.019,0-.014,0-.014,0-.014,0-.014,0-.014,0-.014,0-.014,0-.014,0-.014,0-.014,0-.014,0-.014,0-.014,0-.014,0-.014,0-.009,0-.014-.005-.014,0-.014-.005-.014,0-.009-.006-.014-.007-.014-.005-.014-.006-.009-.007-.014L98.113,3l-.006-.014L98.1,2.973l-.007-.014-.007-.014-.007-.009-.007-.014-.007-.009L98.058,2.9l-.008-.014-.007-.009-.008-.009-.008-.014-.008-.014-.009-.009L98,2.819,97.994,2.8l-.01-.009-.01-.014-.008-.009-.008-.009-.011-.014-.01-.009-.009-.009-.01-.014-.009-.009L97.9,2.7l-.011-.009-.009-.009-.01-.009-.011-.009-.011-.009-.011-.014-.009,0-.011-.009-.011-.009L97.794,2.6l-.012-.009-.01-.009-.011-.009-.011,0-.013-.009-.013-.009-.011-.009-.01,0-.012-.009-.014-.009-.013-.009-.01,0L97.642,2.5l-.011,0-.013,0L97.6,2.477l-.012,0-.012-.009-.012,0-.015,0-.013,0-.013-.009-.013,0-.011,0-.014,0-.015,0-.012,0-.012,0-.015,0-.015,0-.013,0-.013,0-.013,0-.014,0-.015,0h-.014l-.012,0-.015,0H97.3l-.013,0h-.015l-.015,0h-.016l-.013,0h-.014l-.014,0h-.031l-.013,0H80.665Z" id="el_bsE1naiGmhp"/><path d="M86.826,15.977a.6.6,0,0,0,.892,0L95.033,8.69a.614.614,0,0,0,.174-.449.6.6,0,0,0-.174-.444L94.115,6.9a.543.543,0,0,0-.434-.2.618.618,0,0,0-.459.2l-5.951,5.95L84.5,10.078a.618.618,0,0,0-.459-.2.544.544,0,0,0-.434.2l-.917.893a.6.6,0,0,0-.173.444.614.614,0,0,0,.173.449Z" id="el_kRI0khxzRQE"/></g></g><g id="el_MvqGoU_QHv-__feuMa0VN" data-animator-group="true" data-animator-type="0"><g id="el_MvqGoU_QHv-"><path d="M166.625,23.438h4.28a3.517,3.517,0,0,0,3.516-3.516V3.516A3.517,3.517,0,0,0,170.9,0H154.5a3.517,3.517,0,0,0-3.516,3.516V19.922a3.517,3.517,0,0,0,3.516,3.516h4.282L162.7,29.6Z" id="el_gqDBoXp_tb8"/><path d="M170.951,0h.089l.047,0h.042l.047,0,.042,0,.047,0,.042,0,.047,0,.042,0,.042,0,.047.009.042,0,.042.009.042.009.042.009.042.009.047.009.042.009.038.014.042.009.042.014.042.009.042.014.042.014.038.014.042.014.042.014.038.019.042.014.037.019.038.014.042.019.037.019.038.019.037.019.042.019L172.54.4l.042.019.033.023.038.019.037.023.037.019.038.023.033.023.038.023.033.023.037.023.033.023.037.023.033.028.033.023.033.028.033.023L173.14.8l.033.028.033.028.033.028.028.028.033.028.033.028.028.028.028.033.033.028.028.028.028.033.028.033.028.028.028.033.028.033.028.033.028.033.023.033.028.033.023.033.023.033.028.038.023.033.023.033.023.038.023.037.023.033.023.037.019.037.023.033.019.037.023.037.019.038.019.037.019.042.019.038.019.037.019.038.019.037.014.042.019.038.014.042.014.037.019.042.014.042.014.037.014.042.009.042.014.042.014.042.009.038.009.042.014.042.009.042.009.047.009.042.009.042,0,.042.009.042.009.042,0,.047,0,.042,0,.047,0,.042,0,.042,0,.047,0,.047v.042l0,.047V20.058l0,.042v.047l0,.042,0,.047,0,.042,0,.047,0,.042,0,.042,0,.047-.009.042-.009.042,0,.047-.009.042-.009.042-.009.042-.009.042-.014.042-.009.042-.009.042-.014.042-.014.042-.009.037-.014.042-.014.042-.014.037-.019.042-.014.042-.014.037-.019.042-.014.038-.019.037-.019.042-.019.038-.019.037-.019.038-.019.037L174,21.6l-.023.038-.019.037-.023.037-.019.033-.023.037-.023.037-.023.033-.023.037-.023.033-.023.037-.028.033-.023.033-.023.033-.028.038-.023.033-.028.033-.028.033-.028.028-.028.033-.028.033-.028.028-.028.033-.028.028-.033.033-.028.028-.028.033-.033.028-.033.028-.028.028-.033.028-.033.028-.033.023-.033.028-.033.028-.033.023-.033.028-.033.023-.037.023-.033.023-.037.028-.033.019-.038.023-.033.023-.038.023-.037.023-.037.019-.033.023-.037.019-.042.019-.033.023-.042.019-.037.019-.038.019-.037.014-.042.019-.038.019-.037.014-.042.019-.038.014-.042.014-.042.014-.038.014-.042.014-.042.014-.042.014-.042.009-.042.014-.038.009-.042.009-.047.009-.042.009-.042.009-.042.009-.042.009-.042.009-.047,0-.042,0-.042.009-.047,0-.042,0-.047,0-.042,0h-.047l-.042,0h-.094l-.042,0h-4.327L162.7,29.6l-3.921-6.159h-4.327l-.045,0h-.09l-.045,0h-.045l-.045,0-.045,0-.044,0-.044,0-.044-.009-.044,0-.044,0-.044-.009-.043-.009-.043-.009-.043-.009-.043-.009-.042-.009-.042-.009-.042-.009-.042-.014-.042-.009-.041-.014-.041-.014-.041-.014-.041-.014-.04-.014-.04-.014-.04-.014-.039-.019-.04-.014-.039-.019-.039-.019-.039-.014-.038-.019-.038-.019-.038-.019-.038-.023-.038-.019-.037-.019-.037-.023-.037-.019-.036-.023-.036-.023-.036-.023-.036-.023-.035-.019-.035-.028-.035-.023-.034-.023-.034-.023-.034-.028-.033-.023-.033-.028-.033-.028-.032-.023-.032-.028-.031-.028-.031-.028L152.1,22.5l-.03-.028-.03-.033-.03-.028-.03-.033-.03-.028-.029-.033-.029-.028-.028-.033-.028-.033-.027-.028-.027-.033-.027-.033-.026-.033-.026-.038-.026-.033-.025-.033-.025-.033-.024-.037-.024-.033-.023-.037-.023-.033-.023-.037-.022-.037-.022-.033-.021-.037-.021-.037-.021-.038-.02-.037-.02-.037-.019-.038-.019-.037-.018-.038-.018-.042-.017-.037-.017-.038-.016-.042-.016-.037-.015-.042-.015-.042-.015-.037-.014-.042L151.154,21l-.013-.037-.013-.042-.012-.042-.012-.042-.011-.042-.011-.042-.01-.042-.01-.042-.009-.042-.008-.042-.008-.047-.007-.042-.007-.042-.007-.047-.006-.042-.006-.042,0-.047,0-.042,0-.047,0-.042,0-.047,0-.042V3.38l0-.047,0-.042,0-.047,0-.047,0-.042,0-.042.006-.047.006-.042.007-.047.007-.042.007-.042.008-.042.008-.042.009-.042.01-.047.01-.042.011-.042.011-.042.012-.038.012-.042.013-.042.013-.042.014-.042.014-.037.015-.042.015-.042.015-.037.016-.042.016-.038.017-.042.017-.037.018-.038.018-.037.019-.038.019-.042.02-.037.02-.038.021-.037.021-.037.021-.033.022-.037.022-.037.023-.033.023-.037.023-.038.024-.033.024-.033.025-.038.025-.033.026-.033.026-.033.026-.033.027-.033.027-.033.027-.033.028-.033.028-.028.029-.033.029-.033.03-.028.03-.028.03-.033.03-.028.03-.028.031-.028.031-.028L152.2.858l.032-.028L152.263.8,152.3.773l.033-.023.033-.028L152.4.7,152.43.67l.034-.023L152.5.623,152.534.6l.035-.023L152.6.553,152.64.53l.036-.023.036-.019.037-.023.037-.019.037-.023L152.861.4,152.9.384l.038-.019.038-.019.038-.019.039-.019.039-.019.039-.014.04-.019.039-.014.04-.019.04-.014.04-.014.041-.014.041-.014.041-.014.041-.009.042-.014.042-.009.042-.014L153.663.1,153.7.089l.043-.009.043-.009.043-.009.043-.009.044,0,.044-.009.044,0,.044,0,.044,0,.044,0,.045,0,.045,0,.045,0h.045l.045,0h16.588ZM154.508,2.344h-.1l-.013,0h-.031l-.014,0h-.014l-.014,0H154.3l-.015,0h-.015l-.013,0h-.015l-.015,0-.012,0h-.014l-.016,0-.014,0-.013,0-.013,0-.012,0-.015,0-.015,0-.012,0-.012,0-.016,0-.013,0-.011,0-.013,0-.013.009-.013,0-.015,0-.012,0-.012.009-.012,0-.014.009-.013,0-.011,0-.013.009-.011,0-.012.009-.014.009-.012.009-.01,0-.011.009-.013.009-.013.009-.011,0-.011.009-.01.009-.012.009-.012.009-.011.009-.011.009-.01,0-.011.014-.01.009-.011.009-.01.009-.01.009-.011.009-.009.009-.009.009-.01.014-.009.009-.009.009-.01.014-.008.009-.008.009-.01.014-.01.009-.007.009-.008.014-.009.014-.007.009-.008.009-.009.014-.007.009L153.5,2.9l-.008.014-.007.009-.007.014-.007.009-.007.014-.007.014-.006.009L153.448,3l-.006.014-.007.014-.006.009-.005.014-.006.014-.006.014-.005.009L153.4,3.1l-.005.014,0,.014,0,.014,0,.009,0,.014,0,.014,0,.014,0,.014,0,.014,0,.014,0,.014,0,.014,0,.014,0,.014,0,.014,0,.014,0,.014,0,.014,0,.014,0,.019V20.058l0,.014,0,.014,0,.014,0,.014,0,.014,0,.019,0,.009,0,.014,0,.014,0,.014,0,.014,0,.014,0,.014,0,.014,0,.014,0,.014,0,.014,0,.014,0,.009.005.014.005.014.005.014.005.014.006.009.006.014.006.014.006.014.006.009.007.014.006.014.007.009.007.014.007.009.007.014.007.014.008.009.007.014.008.009.008.014.007.014.008.009.007.009.009.014.009.009.008.014.009.009.009.009.009.014.009.009.011.014.009.009.008.009.012.009.009.009.01.009.01.009.01.009.011.014.011.009.009.009.011.009.012.009.01.009.012.009.012.009.009,0,.012.009.012.009.011.009.013.009.011,0,.01.009.012,0,.014.009.011.009.012,0,.013.009.011,0,.013.009.014,0,.012.009.012,0,.014,0,.012.009.013,0,.013,0,.011,0,.014,0,.015.009.014,0,.012,0,.012,0,.015,0,.012,0,.015,0,.015,0h.011l.014,0,.014,0,.014,0h.016l.015,0,.012,0h.013l.015,0h.015l.013,0h.016l.014,0h.031l.015,0h.059l.014,0h5.6l2.634,4.139,2.634-4.139h5.6l.014,0h.061l.014,0h.028l.014,0h.019l.014,0h.014l.014,0h.014l.014,0,.014,0h.014l.014,0,.014,0,.014,0h.009l.014,0,.019,0,.009,0,.014,0,.014,0,.009,0,.014,0L171.35,21l.009,0,.014,0,.009,0,.014,0,.014-.009.014,0,.009,0,.014-.009.014,0,.014-.009.009,0,.014-.009.009,0,.014-.009.009-.009.014,0,.009-.009.014,0,.009-.009.014-.009.009-.009.014-.009.009,0,.009-.009.014-.009.009-.009.014-.009.009-.009.009-.009.009-.009.009-.014.014-.009.009-.009.009-.009.009-.009.009-.009.009-.009.009-.014.009-.009.009-.009.009-.014.009-.009.009-.009.009-.014.009-.009.009-.014,0-.009.009-.009.009-.014,0-.014.009-.009.009-.014,0-.009.009-.014,0-.009.009-.014,0-.014.009-.009,0-.014,0-.014.009-.009,0-.014,0-.014,0-.014.009-.014,0-.009,0-.014,0-.014,0-.014,0-.009,0-.014,0-.014,0-.014,0-.014,0-.014,0-.014v-.014l0-.014,0-.014V20.17l0-.014,0-.014v-.014l0-.014V20.1l0-.014v-.028l0-.014v-.033l0-.014V3.436l0-.014V3.394l0-.019V3.347l0-.014V3.319l0-.014V3.291l0-.014,0-.014V3.248l0-.014,0-.014V3.206l0-.014,0-.014,0-.014,0-.014,0-.009,0-.014,0-.014,0-.014,0-.014,0-.009,0-.014-.009-.014,0-.014,0-.009,0-.014L171.954,3l0-.014,0-.009-.009-.014,0-.014-.009-.009,0-.014-.009-.009,0-.014-.009-.014,0-.009-.009-.009-.009-.014-.009-.014-.009-.009,0-.009-.009-.014-.009-.009-.009-.014-.009-.009,0-.009-.014-.014-.009-.009-.009-.009-.009-.009-.009-.014-.009-.009-.009-.009-.009-.009-.009-.009-.014-.009-.009-.009-.009-.014-.009,0-.014-.009-.009-.009-.014-.009-.009-.009-.009-.009-.014-.009-.009,0-.014-.009-.009-.009-.014-.009-.009,0-.009-.009-.014-.009-.014-.009-.009,0-.014-.009-.014,0-.009,0-.014-.009-.014,0-.009-.009-.014,0-.014,0-.009,0-.014-.009-.014,0-.009,0-.014,0-.019,0-.009,0-.014,0-.014,0-.014,0-.014,0-.009,0-.014,0-.014,0-.014,0h-.019l-.009,0-.014,0h-.014l-.014,0h-.014l-.014,0h-.019l-.014,0h-.014l-.009,0h-.033l-.014,0h-16.49Z" id="el_oxJZIK7Lm1z"/><path d="M164.363,11.439l2.479,2.48a.74.74,0,0,1,.223.546.834.834,0,0,1-.223.571l-.545.542a.812.812,0,0,1-.57.224.729.729,0,0,1-.545-.224L162.7,13.1l-2.479,2.476a.73.73,0,0,1-.545.224.813.813,0,0,1-.57-.224l-.545-.542a.836.836,0,0,1-.223-.571.741.741,0,0,1,.223-.546l2.479-2.48-2.479-2.48a.741.741,0,0,1-.223-.546.829.829,0,0,1,.223-.571l.545-.546a.829.829,0,0,1,.57-.22.743.743,0,0,1,.545.22l2.479,2.48,2.48-2.48a.742.742,0,0,1,.545-.22.828.828,0,0,1,.57.22l.545.546a.828.828,0,0,1,.223.571.74.74,0,0,1-.223.546Z" id="el_0myFRMeeImf"/></g></g><g id="el_xXf-fM10HOG_HOT0VU87s" data-animator-group="true" data-animator-type="0"><g id="el_xXf-fM10HOG" data-name="Check right"><path d="M41.776,52.342h4.28a3.517,3.517,0,0,0,3.516-3.516V32.42A3.517,3.517,0,0,0,46.055,28.9H29.65a3.517,3.517,0,0,0-3.516,3.516V48.826a3.517,3.517,0,0,0,3.516,3.516h4.282L37.852,58.5Z" id="el_XKzUj6dqecj"/><path d="M46.1,28.9h.089l.047,0h.042l.047,0,.042,0,.047,0,.042,0,.047,0,.042,0,.042,0,.047.009.042,0,.042.009.042.009.042.009.042.009.047.009.042.009.038.014.042.009.042.014.042.009.042.014.042.014.038.014.042.014.042.014.038.019.042.014.037.019.038.014.042.019.037.019.038.019.037.019.042.019.033.019.042.019.033.023.038.019.037.023.037.019.038.023.033.023.038.023.033.023.037.023.033.023.037.023.033.028.033.023.033.028.033.023.033.028.033.028.033.028.033.028.028.028.033.028.033.028.028.028.028.033.033.028.028.028.028.033.028.033.028.028.028.033.028.033.028.033.028.033.023.033.028.033.023.033.023.033.028.038.023.033.023.033.023.038.023.037.023.033.023.037.019.037.023.033.019.037.023.037.019.038.019.037.019.042.019.038.019.037.019.038.019.037.014.042.019.038.014.042.014.037.019.042.014.042.014.037.014.042.009.042.014.042.014.042.009.038.009.042.014.042.009.042.009.047.009.042.009.042,0,.042.009.042.009.042,0,.047,0,.042,0,.047,0,.042,0,.042,0,.047,0,.047v.042l0,.047V48.962l0,.042v.047l0,.042,0,.047,0,.042,0,.047,0,.042,0,.042,0,.047-.009.042-.009.042,0,.047-.009.042-.009.042-.009.042-.009.042-.014.042-.009.042-.009.042-.014.042-.014.042-.009.037-.014.042-.014.042-.014.037-.019.042-.014.042-.014.037-.019.042-.014.038-.019.037-.019.042-.019.038-.019.037-.019.038-.019.037-.019.037-.023.038-.019.037-.023.037-.019.033-.023.037-.023.037-.023.033-.023.037-.023.033-.023.037-.028.033-.023.033-.023.033L48.821,51l-.023.033-.028.033-.028.033-.028.028-.028.033-.028.033-.028.028-.028.033-.028.028-.033.033-.028.028-.028.033-.033.028-.033.028-.028.028-.033.028-.033.028-.033.023-.033.028-.033.028-.033.023-.033.028-.033.023-.037.023-.033.023-.037.028-.033.019-.038.023-.033.023-.038.023-.037.023-.037.019-.033.023-.037.019-.042.019-.033.023-.042.019-.037.019-.038.019-.037.014-.042.019-.038.019-.037.014-.042.019-.038.014-.042.014-.042.014-.038.014-.042.014-.042.014-.042.014-.042.009-.042.014-.038.009-.042.009-.047.009-.042.009-.042.009-.042.009-.042.009-.042.009-.047,0-.042,0-.042.009-.047,0-.042,0-.047,0-.042,0H46.28l-.042,0h-.094l-.042,0H41.776L37.852,58.5l-3.921-6.159H29.6l-.045,0h-.09l-.045,0H29.38l-.045,0-.045,0-.044,0-.044,0-.044-.009-.044,0-.044,0-.044-.009-.043-.009-.043-.009-.043-.009-.043-.009-.042-.009-.042-.009-.042-.009-.042-.014-.042-.009-.041-.014-.041-.014-.041-.014-.041-.014-.04-.014-.04-.014-.04-.014-.039-.019-.04-.014-.039-.019-.039-.019-.039-.014-.038-.019-.038-.019-.038-.019-.038-.023-.038-.019-.037-.019-.037-.023-.037-.019-.036-.023-.036-.023-.036-.023-.036-.023-.035-.019-.035-.028-.035-.023-.034-.023-.034-.023-.034-.028-.033-.023-.033-.028-.033-.028-.032-.023-.032-.028-.031-.028-.031-.028-.031-.028-.03-.028-.03-.033-.03-.028-.03-.033-.03-.028-.029-.033-.029-.028-.028-.033-.028-.033-.027-.028-.027-.033-.027-.033L26.884,51l-.026-.038-.026-.033-.025-.033-.025-.033-.024-.037-.024-.033-.023-.037-.023-.033-.023-.037-.022-.037-.022-.033-.021-.037-.021-.037-.021-.038-.02-.037-.02-.037-.019-.038-.019-.037-.018-.038-.018-.042-.017-.037-.017-.038-.016-.042-.016-.037-.015-.042-.015-.042-.015-.037-.014-.042-.014-.042-.013-.037-.013-.042-.012-.042-.012-.042-.011-.042-.011-.042-.01-.042-.01-.042-.009-.042-.008-.042-.008-.047-.007-.042-.007-.042-.007-.047-.006-.042-.006-.042,0-.047,0-.042,0-.047,0-.042,0-.047,0-.042V32.284l0-.047,0-.042,0-.047,0-.047,0-.042,0-.042.006-.047.006-.042.007-.047.007-.042.007-.042.008-.042.008-.042.009-.042.01-.047.01-.042.011-.042.011-.042.012-.038.012-.042.013-.042.013-.042.014-.042.014-.037.015-.042.015-.042.015-.037.016-.042.016-.038.017-.042.017-.037.018-.038.018-.037.019-.038.019-.042.02-.037.02-.038.021-.037.021-.037.021-.033.022-.037.022-.037.023-.033.023-.037.023-.038.024-.033.024-.033.025-.038.025-.033.026-.033.026-.033.026-.033.027-.033.027-.033.027-.033.028-.033.028-.028.029-.033.029-.033.03-.028.03-.028.03-.033.03-.028.03-.028.031-.028.031-.028.031-.028.032-.028.032-.028.033-.028.033-.023.033-.028.034-.023.034-.028.034-.023.035-.023.035-.023.035-.023.036-.023.036-.023.036-.023.036-.019.037-.023.037-.019.037-.023.038-.019.038-.019.038-.019.038-.019.038-.019.039-.019.039-.019.039-.014.04-.019.039-.014.04-.019.04-.014.04-.014.041-.014.041-.014.041-.014.041-.009.042-.014.042-.009.042-.014L28.814,29l.042-.009.043-.009.043-.009.043-.009.043-.009.044,0,.044-.009.044,0,.044,0,.044,0,.044,0,.045,0,.045,0,.045,0h.045l.045,0H46.1ZM29.657,31.248h-.1l-.015,0h-.031l-.014,0h-.016l-.014,0h-.013l-.013,0h-.015l-.015,0H29.4l-.015,0-.012,0h-.014l-.016,0-.014,0-.013,0-.013,0-.012,0-.015,0-.015,0-.012,0-.014,0-.014,0-.011,0-.013,0-.013,0-.013.009-.013,0-.015,0-.012,0-.012.009-.014,0-.012.009-.011,0-.013,0-.013.009-.013.009-.012,0-.01.009-.012,0L29,31.445l-.011.009-.01,0-.013.009-.012.009-.011.009-.012.009-.01.009-.012.009-.011.009-.009,0-.011.009-.011.014-.011.009-.01.009-.009.009-.011.009-.011.009-.009.009-.009.009-.01.014-.01.009-.008.009-.009.014-.009.009-.009.009-.009.014-.009.009-.008.009-.008.014-.009.014-.008.009-.007.009-.008.014-.008.014-.007.009-.007.014-.008.009-.007.014-.007.009-.007.014-.006.014-.007.009L28.6,31.9l-.006.014-.007.014-.006.014-.005.009-.006.014-.006.009-.005.014L28.553,32l-.005.014,0,.014,0,.014,0,.009,0,.014,0,.014,0,.014,0,.014,0,.014,0,.014,0,.014,0,.014,0,.014,0,.014,0,.014,0,.014,0,.014,0,.014,0,.014,0,.019V48.962l0,.014,0,.014,0,.014,0,.014,0,.014,0,.019,0,.009,0,.014,0,.014,0,.014,0,.014,0,.014,0,.014,0,.014,0,.014,0,.014,0,.014,0,.014,0,.009.005.014,0,.014.006.014.005.014.005.009.006.014.006.014.006.009.006.014.007.014.007.014.006.009.007.014.007.009.007.014.007.014.007.009.007.014.008.009.007.014.008.014.009.009.007.009.008.014.01.009.008.014.009.009.009.009.009.014.01.009.009.009.01.014.01.009.009.009.01.009.01.009.01.009.011.014.01.009.009.009.011.009.012.009.011.009.01.009.01.009.012,0,.012.009.012.009.011.009.011.009.011,0L29,49.8l.014.009.012.009.01,0,.013.009.014.009.011,0,.011,0,.013.009.014,0,.012.009.012,0,.014,0,.01,0,.012.009.015,0,.013,0,.014,0,.013.009.012,0,.014,0,.014,0,.012,0,.012,0H29.3l.015,0,.015,0,.013,0,.012,0,.014,0h.016l.012,0,.015,0h.015l.013,0h.015l.013,0h.016l.014,0h.031l.012,0H29.6l.016,0h5.6l2.634,4.139L40.487,50h5.6l.014,0h.061l.014,0h.028l.014,0h.019l.014,0h.014l.014,0h.014l.014,0,.014,0h.014l.014,0,.014,0,.009,0,.019,0,.014,0h.014l.009,0,.014,0,.014,0,.014,0,.009,0,.014-.009.014,0,.014,0,.014,0,.014-.009.009,0,.014,0,.009,0,.014-.009.014,0,.014-.009.009,0,.009,0,.014-.009.014-.009.009,0,.014-.009.014-.009.009-.009.009,0,.014-.009.009-.009.014-.009.009-.009.014-.009.009,0,.009-.009.009-.009.014-.009.009-.009.009-.009.009-.009.014-.014.009-.009.009-.009.009-.009.009-.009.009-.009.009-.014.009-.009.009-.009.009-.014.009-.009.009-.009.009-.014L47,49.525l.009-.014,0-.009.009-.009.009-.014,0-.014.009-.009.009-.014,0-.009.009-.014,0-.009.009-.014,0-.014.009-.009,0-.014,0-.014.009-.014,0-.009,0-.014,0-.014.009-.009,0-.014,0-.014,0-.014,0-.014,0-.009,0-.014,0-.014,0-.014,0-.014,0-.014,0-.014v-.014l0-.014,0-.014v-.014l0-.014,0-.014v-.014l0-.014V49l0-.014v-.028l0-.014v-.033l0-.014V32.34l0-.014V32.3l0-.019v-.028l0-.014v-.014l0-.014v-.014l0-.014,0-.014v-.014l0-.014,0-.014V32.11l0-.014,0-.014,0-.014,0-.014,0-.009,0-.014,0-.014,0-.014,0-.014,0-.014,0-.009-.009-.014,0-.014,0-.009,0-.014-.009-.014,0-.014,0-.009-.009-.014,0-.014-.009-.009,0-.014-.009-.009,0-.014-.009-.009-.009-.014,0-.014-.009-.009-.009-.014L47,31.731l0-.009-.009-.014-.009-.009-.009-.014-.009-.009-.009-.009-.009-.014-.009-.009-.009-.009-.009-.009-.009-.014-.009-.009-.009-.009-.014-.009,0-.009-.014-.009-.009-.009-.009-.014-.014-.009-.009,0-.009-.009-.014-.009-.009-.009-.009-.009-.014-.009-.009-.009-.014-.009-.009,0-.009-.009-.014-.009-.014,0-.009-.009-.014,0-.009-.009-.014-.009-.014,0-.009,0-.014-.009-.014,0-.009-.009-.014,0-.014,0-.009,0-.014-.009-.014,0-.014,0-.009,0-.014,0-.014,0-.014,0-.014,0-.014,0-.014,0-.009,0-.014,0-.014,0-.014,0h-.019l-.009,0-.014,0h-.014l-.014,0h-.019l-.009,0h-.014l-.014,0h-.019l-.009,0h-.033l-.014,0H29.657Z" id="el_pdQSl44kEW9"/><path d="M35.82,44.879a.6.6,0,0,0,.893,0l7.314-7.287a.614.614,0,0,0,.174-.449.6.6,0,0,0-.174-.444l-.917-.893a.544.544,0,0,0-.434-.2.618.618,0,0,0-.459.2l-5.95,5.95L33.49,38.981a.618.618,0,0,0-.459-.2.543.543,0,0,0-.434.2l-.917.893a.6.6,0,0,0-.173.444.614.614,0,0,0,.173.449Z" id="el_z1kaEA0IJ9e"/></g></g></svg>