<?xml version="1.0" encoding="utf-8"?>
<!-- Generator: Adobe Illustrator 23.0.1, SVG Export Plug-In . SVG Version: 6.00 Build 0)  -->
<svg version="1.1" id="Layer_1" xmlns:serif="http://www.serif.com/"
	 xmlns="http://www.w3.org/2000/svg" xmlns:xlink="http://www.w3.org/1999/xlink" x="0px" y="0px" viewBox="0 0 612 792"
	 style="enable-background:new 0 0 612 792;" xml:space="preserve">
<style type="text/css">
	.st0{fill:none;}
	.st1{fill-rule:evenodd;clip-rule:evenodd;fill:#50CB69;fill-opacity:0.1;}
	.st2{fill-rule:evenodd;clip-rule:evenodd;fill:#3CB054;}
	.st3{clip-path:url(#SVGID_2_);}
	.st4{fill:#FFFFFF;}
	.st5{fill-rule:evenodd;clip-rule:evenodd;fill:#FFFFFF;fill-opacity:0.9;}
	.st6{fill:#3CB054;}
	.st7{fill-rule:evenodd;clip-rule:evenodd;fill:#FFFFFF;fill-opacity:0.502;}
	.st8{fill-rule:evenodd;clip-rule:evenodd;fill:#FFFFFF;}
	.st9{fill-rule:evenodd;clip-rule:evenodd;fill:#2F8340;}
	.st10{fill-rule:evenodd;clip-rule:evenodd;fill:#3C9D50;}
</style>
<g id="Trustless-Base-Layer" transform="matrix(1,0,0,1.6,0,2800)" serif:id="Trustless Base Layer">
	<rect y="-1693.8" class="st0" width="612" height="382.5"/>
	<g transform="matrix(0.910372,0,0,0.568983,-2752.51,-347.66)">
		<circle class="st1" cx="3353.2" cy="-2029.7" r="141"/>
	</g>
	<g transform="matrix(1,-0,-0,0.625,0,0)">
		<g transform="matrix(0.99769,0,0,0.998154,0,0)">
			
				<image style="overflow:visible;enable-background:new    ;" width="378" height="242" id="_Image1" xlink:href="4404BCFCCD2B09C5.png"  transform="matrix(0.477 0 0 0.4772 209.6529 -2383.761)">
			</image>
		</g>
	</g>
	<g transform="matrix(0.769359,-0.277619,0.769359,0.277619,-3449.19,-718.801)">
		<polygon class="st2" points="3734.7,1035.2 3838,1035.2 3838,1138.5 3734.7,1138.5 		"/>
		<g>
			<defs>
				<polygon id="SVGID_1_" points="3734.7,1035.2 3838,1035.2 3838,1138.5 3734.7,1138.5 				"/>
			</defs>
			<clipPath id="SVGID_2_">
				<use xlink:href="#SVGID_1_"  style="overflow:visible;"/>
			</clipPath>
			<g class="st3">
				<g transform="matrix(0.649892,0.649892,-1.12565,1.12565,947.014,3536.18)">
					<g transform="matrix(0.99866,0,0,0.994924,0,0)">
						
							<image style="overflow:visible;enable-background:new    ;" width="333" height="175" id="_Image3" xlink:href="4404BCFCCD2B09C7.png"  transform="matrix(0.4775 0 0 0.4757 220.5481 -2395.0764)">
						</image>
					</g>
				</g>
			</g>
		</g>
	</g>
	<g transform="matrix(0.335195,0.120953,-0.335195,0.120953,-819.119,-37.8284)">
		<path class="st4" d="M-4352.5-7584.5c0.3-0.1,0.3-0.1,0.6-0.2l214.2,0c2,0.2,4.5,4,2.1,4.3h-214.2
			C-4351.5-7580.6-4353.8-7583.3-4352.5-7584.5z"/>
		<g transform="matrix(0.718831,-5.55112e-17,5.55112e-17,0.718831,1167.42,-92.3104)">
			<path class="st4" d="M-7658.1-10474.4c0.4-0.2,0.5-0.2,0.9-0.3h52.4c1.3,0.1,1.6,0.2,2.8,1.4l54.7,51.7c5.4,5.5,0.1,5.7-2.7,3.2
				l-53.2-50.3l-51.3,0C-7657-10469.2-7659.8-10473-7658.1-10474.4z"/>
		</g>
		<g transform="matrix(5.55112e-17,0.718831,-0.718831,1.11022e-16,4304.47,-3148.48)">
			<path class="st4" d="M-6299.3,11842.3c-0.7-1.8,1.9-5,4.3-5.2h52.4c0.7,0.1,0.8,0.1,1.1,0.4l54.7,51.7c1.3,1.6-2.6,7.1-5.1,5.2
				l-54.3-51.3l-52.1,0C-6299.3,11842.7-6299.1,11842.5-6299.3,11842.3z"/>
		</g>
		<g transform="matrix(-0.718831,5.55112e-17,5.55112e-17,0.718831,7360.63,-92.3104)">
			<path class="st4" d="M16070.2-10474.3c-0.5-0.4-0.6-0.3-1.1-0.4h-52.4c-2.8,0.2-6.3,5.7-3,6h51.8l54.3,51.3c0,0,5.4,0.2,5.5-4
				c0-0.5-0.2-0.9-0.4-1.2C16106.7-10439.8,16088.5-10457.1,16070.2-10474.3z"/>
		</g>
		<g transform="matrix(-5.55112e-17,-0.718831,-0.718831,1.11022e-16,4304.47,3044.74)">
			<path class="st4" d="M14765.9,11894.2c0.6-1,0-2.7-1.4-4l-54.7-51.7c-1.4-1.2-1.6-1.3-2.8-1.4l-52.4,0c-2.7,0.2-0.9,5.7,3,6h51
				l53.5,50.6C14763.6,11894.8,14765.1,11895,14765.9,11894.2z"/>
		</g>
		<g transform="matrix(0.718831,-5.55112e-17,5.55112e-17,0.718831,1167.42,63.1407)">
			<path class="st4" d="M-7658.1-10587.3c0.2-0.1,0.3-0.2,0.9-0.3h52.9l53.2-51.3c0,0,1.7-0.9,3.7,0.8c1.6,1.3,2.2,3.4,1.4,4.4
				l-53.6,51.7c-0.5,0.4-0.6,0.3-1.1,0.4h-53.6C-7656.7-10581.8-7659.8-10585.7-7658.1-10587.3z"/>
		</g>
		<g transform="matrix(5.55112e-17,0.718831,-0.718831,1.11022e-16,4149.01,-3148.48)">
			<path class="st4" d="M-6299.2,11729.5c-0.9-1.7,1.8-5.2,4.2-5.3h52.1l52.4-50.6c2.9-2.3,6.2-0.3,2.5,3.4l-53.6,51.7
				c-1.4,1.3-1.6,1.3-2.9,1.4h-53.6C-6299,11730.1-6298.7,11730.2-6299.2,11729.5z"/>
		</g>
		<g transform="matrix(-0.718831,5.55112e-17,5.55112e-17,0.718831,7360.63,63.1407)">
			<path class="st4" d="M16124.7-10639c-0.9-0.5-2.5,0-3.8,1.2l-52.1,50.3l-52.4,0c-2.9,0.5-6,5.7-2.7,5.9h53.6
				c1.4-0.1,1.6-0.2,2.9-1.4l53.6-51.7C16125.3-10636.3,16125.8-10638.2,16124.7-10639z"/>
		</g>
		<g transform="matrix(-5.55112e-17,-0.718831,-0.718831,1.11022e-16,4149.01,3044.74)">
			<path class="st4" d="M14765.9,11677.8c0.9-1.9-3.1-6.6-5.3-5l-53.2,51.3l-53.2,0c-2.2,0.6-0.2,5.6,3.3,5.9h53.6
				c0.7-0.1,0.8-0.1,1.1-0.4l53.6-51.7C14765.8,11678,14765.8,11677.9,14765.9,11677.8z"/>
		</g>
		<g transform="matrix(5.55112e-17,1,-1,1.11022e-16,4212.15,-4315.9)">
			<path class="st4" d="M-3375.8,8457.3c-0.5-2.4,2-3.5,3.1-3.7h214.2c1.8,0.2,0.5,4-2.1,4.3h-214.2
				C-3375.1,8457.9-3375.4,8458-3375.8,8457.3z"/>
		</g>
		<g transform="matrix(1,0,0,1,-3.48501,3.88723)">
			<ellipse class="st2" cx="-4333" cy="-7623.6" rx="3.1" ry="1.8"/>
		</g>
		<g transform="matrix(1,-1.11022e-16,5.55112e-17,1,-3.48501,3.88723)">
			<path class="st4" d="M-4339.3-7630.1c2.8-2.6,8.1-3.8,12.6,1.7c7.2,8.8-5.2,20.3-13.1,9.1
				C-4342.9-7623.7-4341.9-7627.6-4339.3-7630.1z M-4335.8-7626.2c-1.9,2-2.8,6.7,1.5,6.9c4.1,0.2,7.7-4,4.9-7.6
				C-4331.2-7629.2-4333.9-7628.1-4335.8-7626.2z"/>
		</g>
		<g transform="matrix(6.12323e-17,1,-1,6.12323e-17,4208.27,-4319.38)">
			<ellipse class="st2" cx="-3355.9" cy="8414.8" rx="3.1" ry="1.8"/>
		</g>
		<g transform="matrix(5.55112e-17,1,-1,1.11022e-16,4208.27,-4319.38)">
			<path class="st4" d="M-3362.5,8421.1c-2.8-3-3.9-9.8,3.4-13.8c9-4.9,18,8.3,6.6,14.8C-3356.7,8424.5-3360.1,8423.5-3362.5,8421.1
				z M-3358.5,8417.6c2,1.9,6.7,2.9,6.9-1.5c0.1-3.9-3.2-7.2-7.2-5.2C-3361.4,8412.2-3360.4,8415.7-3358.5,8417.6z"/>
		</g>
		<g transform="matrix(-1,0,0,1,8531.54,3.88723)">
			<ellipse class="st2" cx="12682.5" cy="-7623.6" rx="3.1" ry="1.8"/>
		</g>
		<g transform="matrix(-1,1.11022e-16,5.55112e-17,1,8531.54,3.88723)">
			<path class="st4" d="M12688.7-7630.1c-3-2.8-9.8-3.9-13.8,3.4c-5,9.2,8.3,18,14.8,6.6
				C12692.2-7624.3,12690.9-7628,12688.7-7630.1z M12685.3-7626.2c1.9,2,2.9,6.7-1.5,6.9c-4.1,0.2-8.2-4.2-4.8-7.8
				C12680.9-7629.1,12683.6-7627.9,12685.3-7626.2z"/>
		</g>
		<g transform="matrix(-6.12323e-17,-1,-1,6.12323e-17,4208.27,4215.64)">
			<ellipse class="st2" cx="11705.4" cy="8414.8" rx="3.1" ry="1.8"/>
		</g>
		<g transform="matrix(-5.55112e-17,-1,-1,1.11022e-16,4208.27,4215.64)">
			<path class="st4" d="M11711.9,8421.1c2.6-2.8,3.8-8.2-1.8-12.7c-8.5-6.9-19.3,3.9-10,12.4c0.3,0.3,0.7,0.6,1,0.8
				C11705.5,8424.7,11709.3,8423.7,11711.9,8421.1z M11708,8417.6c-2,1.9-6.7,2.9-6.9-1.5c-0.2-4.1,4.1-8.4,7.8-4.8
				C11710.9,8413.2,11709.7,8415.9,11708,8417.6z"/>
		</g>
		<g transform="matrix(1,0,0,1,-3.48501,159.338)">
			<ellipse class="st2" cx="-4333" cy="-7704.7" rx="3.1" ry="1.8"/>
		</g>
		<g transform="matrix(1,-1.11022e-16,5.55112e-17,1,-3.48501,159.338)">
			<path class="st4" d="M-4339.3-7711.2c3-2.8,9.8-3.9,13.8,3.4c5,9.2-8.3,17.9-14.8,6.6
				C-4342.7-7705.5-4341.7-7708.8-4339.3-7711.2z M-4335.8-7707.3c-1.9,2-2.9,6.7,1.5,6.9c3.9,0.1,7.2-3.2,5.2-7.2
				C-4330.4-7710.2-4333.9-7709.2-4335.8-7707.3z"/>
		</g>
		<g transform="matrix(6.12323e-17,1,-1,6.12323e-17,4052.82,-4319.38)">
			<ellipse class="st2" cx="-3355.9" cy="8333.7" rx="3.1" ry="1.8"/>
		</g>
		<g transform="matrix(5.55112e-17,1,-1,1.11022e-16,4052.82,-4319.38)">
			<path class="st4" d="M-3362.5,8340c-2.6-2.8-3.8-8.1,1.7-12.6c7.8-6.4,18.5,2.3,11.2,11.2c-0.3,0.4-0.7,0.8-1.1,1.1
				c-0.3,0.3-0.7,0.6-1,0.8C-3356,8343.6-3359.9,8342.6-3362.5,8340z M-3358.5,8336.5c2,1.9,6.7,2.8,6.9-1.5
				c0.2-4.1-3.9-7.8-7.6-4.9C-3361.6,8331.9-3360.4,8334.6-3358.5,8336.5z"/>
		</g>
		<g transform="matrix(-1,0,0,1,8531.54,159.338)">
			<ellipse class="st2" cx="12682.5" cy="-7704.7" rx="3.1" ry="1.8"/>
		</g>
		<g transform="matrix(-1,1.11022e-16,5.55112e-17,1,8531.54,159.338)">
			<path class="st4" d="M12688.7-7711.2c-3-2.8-9.9-3.9-13.8,3.5c-4.8,9.2,8.3,17.9,14.9,6.5
				C12692.2-7705.5,12691.2-7708.8,12688.7-7711.2z M12685.3-7707.3c1.9,2,2.9,6.7-1.5,6.9c-4.1,0.2-8.3-4.2-4.8-7.8
				C12681-7710.2,12683.6-7709,12685.3-7707.3z"/>
		</g>
		<g transform="matrix(-6.12323e-17,-1,-1,6.12323e-17,4052.82,4215.64)">
			<ellipse class="st2" cx="11705.4" cy="8333.7" rx="3.1" ry="1.8"/>
		</g>
		<g transform="matrix(-5.55112e-17,-1,-1,1.11022e-16,4052.82,4215.64)">
			<path class="st4" d="M11711.9,8340c2.8-3,3.9-9.9-3.5-13.8c-9-4.8-17.8,8.3-6.5,14.9C11706.2,8343.4,11709.5,8342.4,11711.9,8340
				z M11708,8336.5c-2,1.9-6.7,2.9-6.9-1.5c-0.1-3.9,3.1-7.2,7.2-5.2C11710.9,8331.1,11709.9,8334.6,11708,8336.5z"/>
		</g>
		<g transform="matrix(1,0,0,1,-33.485,81.6128)">
			<ellipse class="st2" cx="-4317.3" cy="-7664.1" rx="3.1" ry="1.8"/>
		</g>
		<g transform="matrix(1,-1.11022e-16,5.55112e-17,1,-33.485,81.6128)">
			<path class="st4" d="M-4323.6-7670.7c2.7-2.6,8.1-3.8,12.6,1.7c7,8.4-3.9,19.3-12.3,10.1c-0.3-0.3-0.6-0.7-0.8-1
				C-4327.2-7664.2-4326.3-7668.1-4323.6-7670.7z M-4320.1-7666.8c-1.9,2-2.9,6.7,1.5,6.9c3.9,0.1,7.2-3.2,5.2-7.2
				C-4314.7-7669.7-4318.1-7668.8-4320.1-7666.8z"/>
		</g>
		<g transform="matrix(6.12323e-17,1,-1,6.12323e-17,4130.54,-4349.38)">
			<ellipse class="st2" cx="-3340.3" cy="8374.2" rx="3.1" ry="1.8"/>
		</g>
		<g transform="matrix(5.55112e-17,1,-1,1.11022e-16,4130.54,-4349.38)">
			<path class="st4" d="M-3346.8,8380.5c-2.8-3-3.9-9.8,3.4-13.8c9.2-5,17.9,8.3,6.6,14.8C-3341,8384-3344.4,8383-3346.8,8380.5z
				 M-3342.9,8377c2,1.9,6.7,2.9,6.9-1.5c0.1-3.9-3.2-7.2-7.2-5.2C-3345.9,8371.7-3345,8375-3342.9,8377z"/>
		</g>
		<g transform="matrix(-1,0,0,1,8561.54,81.6128)">
			<ellipse class="st2" cx="12698.1" cy="-7664.1" rx="3.1" ry="1.8"/>
		</g>
		<g transform="matrix(-1,1.11022e-16,5.55112e-17,1,8561.54,81.6128)">
			<path class="st4" d="M12704.4-7670.7c-3-2.8-9.8-3.9-13.8,3.4c-5,9.2,8.3,17.9,14.8,6.6
				C12707.8-7664.9,12706.6-7668.5,12704.4-7670.7z M12700.9-7666.8c1.9,2,2.9,6.7-1.5,6.9c-3.9,0.2-7.2-3.1-5.3-7.1
				C12695.4-7669.6,12699-7668.7,12700.9-7666.8z"/>
		</g>
		<g transform="matrix(-6.12323e-17,-1,-1,6.12323e-17,4130.54,4245.64)">
			<ellipse class="st2" cx="11721.1" cy="8374.2" rx="3.1" ry="1.8"/>
		</g>
		<g transform="matrix(-5.55112e-17,-1,-1,1.11022e-16,4130.54,4245.64)">
			<path class="st4" d="M11727.6,8380.5c2.8-3,3.8-9.9-3.4-13.8c-9.2-5-17.9,8.3-6.6,14.8
				C11721.8,8383.9,11725.4,8382.7,11727.6,8380.5z M11723.7,8377c-2,1.9-6.7,2.9-6.9-1.5c-0.2-3.9,3.1-7.2,7.1-5.3
				C11726.5,8371.6,11725.6,8375.2,11723.7,8377z"/>
		</g>
	</g>
	<g>
		<g transform="matrix(0.769359,-0.277619,0.769359,0.277619,-3449.18,-758.802)">
			<polygon class="st5" points="3697.1,1072.8 3800.4,1072.8 3800.4,1176.1 3697.1,1176.1 			"/>
		</g>
		<g transform="matrix(0.769359,-0.277619,0.769359,0.277619,-3449.18,-758.802)">
			<path class="st6" d="M3800.4,1176.1h-103.3v-103.3h103.3C3800.4,1107.2,3800.4,1141.6,3800.4,1176.1z M3699.6,1075.2v98.4h98.4
				v-98.4C3765.2,1075.2,3732.4,1075.2,3699.6,1075.2z"/>
		</g>
	</g>
	<g>
		<g transform="matrix(0.769359,-0.277619,0.769359,0.277619,-3449.18,-798.802)">
			<polygon class="st5" points="3659.5,1110.4 3762.8,1110.4 3762.8,1213.7 3659.5,1213.7 			"/>
		</g>
		<g transform="matrix(0.769359,-0.277619,0.769359,0.277619,-3449.18,-798.802)">
			<path class="st6" d="M3762.8,1213.7h-103.3v-103.3h103.3C3762.8,1144.8,3762.8,1179.2,3762.8,1213.7z M3662,1112.8v98.4h98.4
				v-98.4C3727.6,1112.8,3694.8,1112.8,3662,1112.8z"/>
		</g>
	</g>
	<g>
		<g transform="matrix(0.769359,-0.277619,0.769359,0.277619,-3449.18,-838.802)">
			<polygon class="st5" points="3621.9,1147.9 3725.2,1147.9 3725.2,1251.3 3621.9,1251.3 			"/>
		</g>
		<g transform="matrix(0.769359,-0.277619,0.769359,0.277619,-3449.18,-838.802)">
			<path class="st6" d="M3725.2,1251.3h-103.3v-103.3h103.3C3725.2,1182.4,3725.2,1216.8,3725.2,1251.3z M3624.4,1150.4v98.4h98.4
				v-98.4C3690,1150.4,3657.2,1150.4,3624.4,1150.4z"/>
		</g>
	</g>
	<g>
		<g transform="matrix(0.769359,-0.277619,0.769359,0.277619,-3449.18,-878.802)">
			<polygon class="st7" points="3584.3,1185.5 3687.6,1185.5 3687.6,1288.9 3584.3,1288.9 			"/>
		</g>
		<g transform="matrix(0.769359,-0.277619,0.769359,0.277619,-3449.18,-878.802)">
			<path class="st6" d="M3587.7,1288l-0.1,0.9c-0.3,0.5-0.3,0.5-0.8,0.9l-0.9,0.4h-2.2c-0.6-0.1-0.6-0.4-0.6-0.6v-2.2
				c0.1-0.5,0.1-0.5,0.4-0.9l0.4-0.4c0.5-0.3,0.5-0.3,1-0.5l0.7,0.2l0.1,0.4v1.5h1.5C3587.1,1287.6,3587.4,1287.7,3587.7,1288z
				 M3585.6,1275.3v4.3l-0.4,0.9l-0.4,0.4c-0.5,0.3-0.5,0.3-1,0.5l-0.7-0.2l-0.1-0.4v-4.3l0.4-0.9l0.4-0.4c0.5-0.3,0.5-0.3,1-0.5
				l0.7,0.2C3585.5,1275.1,3585.5,1275.2,3585.6,1275.3z M3598.4,1288c0.1,1.4-0.9,1.8-0.9,1.8l-0.9,0.4h-4.3l-0.6-0.4l0-0.4
				c0.2-0.5,0.2-0.5,0.5-1l0.4-0.4c0.5-0.3,0.5-0.3,0.9-0.4h4.3C3597.8,1287.6,3598.2,1287.7,3598.4,1288z M3585.6,1264.6v4.3
				l-0.4,0.9c0,0-0.4,1-1.8,0.9l-0.4-0.6v-4.3c0.1-0.5,0.1-0.5,0.4-0.9l0.9-0.8l0.9-0.1C3585.2,1264,3585.4,1264.2,3585.6,1264.6z
				 M3609.2,1288c0.1,1.4-0.9,1.8-0.9,1.8l-0.9,0.4h-4.3l-0.6-0.4l0-0.4c0.2-0.5,0.2-0.5,0.5-1l0.9-0.7l0.5-0.1h4.3
				C3608.6,1287.6,3609,1287.7,3609.2,1288z M3585.6,1253.8v4.3l-0.4,0.9l-0.4,0.4c-0.5,0.3-0.5,0.3-1,0.5l-0.7-0.2l-0.1-0.4v-4.3
				l0.4-0.9l0.4-0.4c0.5-0.3,0.5-0.3,1-0.5l0.7,0.2C3585.5,1253.6,3585.5,1253.7,3585.6,1253.8z M3620,1288c0.1,1.4-0.9,1.8-0.9,1.8
				l-0.9,0.4h-4.3l-0.6-0.4l0-0.4c0.2-0.5,0.2-0.5,0.5-1l0.4-0.4c0.5-0.3,0.5-0.3,0.9-0.4h4.3
				C3619.4,1287.6,3619.7,1287.7,3620,1288z M3585.6,1243.1v4.3l-0.4,0.9l-0.4,0.4c-0.5,0.3-0.5,0.3-1,0.5l-0.7-0.2l-0.1-0.4v-4.3
				l0.4-0.9l0.4-0.4c0.5-0.3,0.5-0.3,1-0.5l0.7,0.2C3585.5,1242.8,3585.5,1242.9,3585.6,1243.1z M3630.7,1288
				c0.1,1.4-0.9,1.8-0.9,1.8l-0.9,0.4h-4.3l-0.6-0.4l0-0.4c0.2-0.5,0.2-0.5,0.5-1l0.9-0.7l0.5-0.1h4.3
				C3630.1,1287.6,3630.5,1287.7,3630.7,1288z M3585.6,1232.3v4.3l-0.4,0.9l-0.4,0.4c-0.5,0.3-0.5,0.3-1,0.5l-0.4,0
				c-0.3-0.2-0.3-0.2-0.4-0.6v-4.3l0.4-0.9c1.4-1.5,1.8-0.9,1.8-0.9S3585.4,1231.9,3585.6,1232.3z M3641.5,1288
				c0.1,1.4-0.9,1.8-0.9,1.8l-0.9,0.4h-4.3l-0.6-0.4l0-0.4c0.2-0.5,0.2-0.5,0.5-1l0.4-0.4c0.5-0.3,0.5-0.3,0.9-0.4h4.3
				C3640.9,1287.6,3641.2,1287.7,3641.5,1288z M3585.6,1221.5v4.3l-0.4,0.9l-0.4,0.4c-0.5,0.3-0.5,0.3-1,0.5l-0.4,0
				c-0.3-0.2-0.3-0.2-0.4-0.6v-4.3l0.4-0.9l0.9-0.8l0.9-0.1C3585.2,1220.9,3585.4,1221.1,3585.6,1221.5z M3652.2,1288
				c0.1,1.4-0.9,1.8-0.9,1.8l-0.9,0.4h-4.3l-0.6-0.4l0-0.4c0.2-0.5,0.2-0.5,0.5-1l0.9-0.7l0.5-0.1h4.3
				C3651.7,1287.6,3652,1287.7,3652.2,1288z M3585.6,1210.8v4.3l-0.4,0.9l-0.4,0.4c-0.5,0.3-0.5,0.3-1,0.5l-0.7-0.2l-0.1-0.4v-4.3
				l0.4-0.9l0.4-0.4c0.5-0.3,0.5-0.3,1-0.5l0.7,0.2C3585.5,1210.5,3585.5,1210.6,3585.6,1210.8z M3663,1288c0.1,1.4-0.9,1.8-0.9,1.8
				l-0.9,0.4h-4.3l-0.6-0.4l0-0.4c0.2-0.5,0.2-0.5,0.5-1l0.9-0.7l0.5-0.1h4.3C3662.4,1287.6,3662.8,1287.7,3663,1288z M3585.6,1200
				v4.3l-0.4,0.9l-0.4,0.4c-0.5,0.3-0.5,0.3-1,0.5l-0.7-0.2l-0.1-0.4v-4.3l0.4-0.9l0.4-0.4c0.5-0.3,0.5-0.3,1-0.5l0.7,0.2
				C3585.5,1199.8,3585.5,1199.9,3585.6,1200z M3673.8,1288c0,0.5-0.2,1.1-0.9,1.8l-0.9,0.4h-4.3c-0.4-0.1-0.4-0.1-0.6-0.4
				c0,0-0.6-0.4,0.9-1.8l0.9-0.4h4.3C3673.2,1287.6,3673.5,1287.7,3673.8,1288z M3585.6,1189.2v4.3l-0.4,0.9c0,0-0.4,1-1.8,0.9
				l-0.4-0.6v-4.3c0.1-0.5,0.1-0.5,0.4-0.9l0.9-0.8l0.9-0.1C3585.2,1188.6,3585.4,1188.8,3585.6,1189.2z M3684.5,1288
				c0,0.5-0.2,1.1-0.9,1.8l-0.9,0.4h-4.3l-0.6-0.4c0-0.5,0.2-1.1,0.9-1.8l0.9-0.4h4.3C3684,1287.6,3684.3,1287.7,3684.5,1288z
				 M3592,1184.7l-0.1,0.9l-0.8,0.9l-0.9,0.4h-4.3l-0.6-0.4l0.1-0.9l0.3-0.5c0.4-0.4,0.4-0.4,0.9-0.7l0.5-0.1h4.3
				C3591.4,1184.3,3591.7,1184.4,3592,1184.7z M3688.9,1281.8v4.3l-0.1,0.5c-0.3,0.5-0.3,0.5-0.7,0.9l-0.5,0.3
				c-0.5,0.2-0.5,0.2-0.9,0.1l-0.4-0.6v-4.3l0.4-0.9l0.9-0.8c0.5-0.2,0.5-0.2,0.9-0.1C3688.5,1281.2,3688.8,1281.4,3688.9,1281.8z
				 M3602.7,1184.7c0.1,1.4-0.9,1.8-0.9,1.8l-0.9,0.4h-4.3l-0.6-0.4l0-0.4c0.2-0.5,0.2-0.5,0.5-1l0.9-0.7l0.5-0.1h4.3
				C3602.2,1184.3,3602.5,1184.4,3602.7,1184.7z M3688.9,1271v4.3c0,0-0.3,1.4-1.7,1.9l-0.4,0c-0.3-0.2-0.3-0.2-0.4-0.6v-4.3
				c0.1-0.5,0.1-0.5,0.4-0.9l0.4-0.4c0.5-0.3,0.5-0.3,1-0.5l0.7,0.2C3688.8,1270.8,3688.9,1270.9,3688.9,1271z M3613.5,1184.7
				l-0.1,0.9c-1.1,1.6-1.7,1.2-1.7,1.2h-4.3l-0.6-0.4l0-0.4c0.2-0.5,0.2-0.5,0.5-1l0.9-0.7l0.5-0.1h4.3
				C3612.9,1184.3,3613.3,1184.4,3613.5,1184.7z M3688.9,1260.3v4.3l-0.4,0.9l-0.9,0.8l-0.9,0.1l-0.4-0.6v-4.3l0.4-0.9
				c0.3-0.3,0.5-0.6,1.4-0.9l0.7,0.2C3688.8,1260,3688.9,1260.1,3688.9,1260.3z M3624.3,1184.7l-0.1,0.9l-0.8,0.9
				c-0.5,0.3-0.5,0.3-0.9,0.4h-4.3c-0.4-0.1-0.4-0.1-0.6-0.4l0.1-0.9l0.8-0.9l0.9-0.4h4.3C3623.7,1184.3,3624,1184.4,3624.3,1184.7z
				 M3688.9,1249.5v4.3l-0.1,0.5c-0.3,0.5-0.3,0.5-0.7,0.9l-1,0.5l-0.7-0.2l-0.1-0.4v-4.3l0.4-0.9l0.4-0.4c0.5-0.3,0.5-0.3,1-0.5
				l0.7,0.2C3688.8,1249.3,3688.9,1249.4,3688.9,1249.5z M3635,1184.7l-0.1,0.9l-0.8,0.9l-0.9,0.4h-4.3l-0.4-0.1
				c-0.2-0.3-0.2-0.3-0.2-0.7l0.2-0.5c0.3-0.5,0.3-0.5,0.8-0.9l0.9-0.4h4.3C3634.4,1184.3,3634.8,1184.4,3635,1184.7z
				 M3688.9,1238.7v4.3l-0.4,0.9l-0.4,0.4c-0.5,0.3-0.5,0.3-1,0.5l-0.7-0.2l-0.1-0.4v-4.3l0.4-0.9l0.4-0.4c0.5-0.3,0.5-0.3,1-0.5
				l0.7,0.2C3688.8,1238.5,3688.9,1238.6,3688.9,1238.7z M3645.8,1184.7l-0.1,0.9c-1.1,1.6-1.7,1.2-1.7,1.2h-4.3l-0.4-0.1
				c-0.2-0.3-0.2-0.3-0.2-0.7l0.5-1l0.9-0.7l0.5-0.1h4.3C3645.2,1184.3,3645.5,1184.4,3645.8,1184.7z M3688.9,1228v4.3l-0.4,0.9
				l-0.4,0.4c-0.5,0.3-0.5,0.3-1,0.5l-0.7-0.2l-0.1-0.4v-4.3l0.4-0.9l0.4-0.4c0.5-0.3,0.5-0.3,1-0.5l0.7,0.2
				C3688.8,1227.7,3688.9,1227.9,3688.9,1228z M3656.6,1184.7l-0.1,0.9c-0.3,0.5-0.3,0.5-0.8,0.9l-0.9,0.4h-4.3
				c-0.5-0.1-0.7-0.5-0.5-1.2l0.8-0.9l0.9-0.4h4.3C3656,1184.3,3656.3,1184.4,3656.6,1184.7z M3688.9,1217.2v4.3
				c0,0,0.4,0.6-1.2,1.7l-0.9,0.1l-0.4-0.6v-4.3c0.1-0.5,0.1-0.5,0.4-0.9l0.4-0.4c0.5-0.3,0.5-0.3,1-0.5l0.7,0.2
				C3688.8,1217,3688.9,1217.1,3688.9,1217.2z M3667.3,1184.7c0,0.4,0,0.4-0.1,0.9l-0.3,0.5c-0.4,0.4-0.4,0.4-0.9,0.7l-0.5,0.1h-4.3
				l-0.4-0.1c-0.2-0.3-0.2-0.3-0.2-0.7c0,0-0.2-0.7,1.4-1.6l0.5-0.1h4.3C3666.7,1184.3,3667.1,1184.4,3667.3,1184.7z M3688.9,1206.4
				v4.3l-0.4,0.9l-0.4,0.4c-0.5,0.3-0.5,0.3-1,0.5l-0.7-0.2l-0.1-0.4v-4.3c0,0-0.4-0.6,1.2-1.7l0.9-0.1
				C3688.5,1205.9,3688.8,1206,3688.9,1206.4z M3678.1,1184.7l-0.1,0.9c-0.3,0.5-0.3,0.5-0.8,0.9l-0.9,0.4h-4.3
				c-0.2-0.1-0.6-0.1-0.6-0.8l0.2-0.5c0.3-0.5,0.3-0.5,0.8-0.9l0.9-0.4h4.3C3677.5,1184.3,3677.8,1184.4,3678.1,1184.7z
				 M3688.9,1195.7v4.3l-0.4,0.9l-0.4,0.4c-0.5,0.3-0.5,0.3-1,0.5l-0.7-0.2l-0.1-0.4v-4.3l0.4-0.9l0.4-0.4c0.5-0.3,0.5-0.3,1-0.5
				l0.7,0.2C3688.8,1195.4,3688.9,1195.6,3688.9,1195.7z M3688.7,1184.5l0.2,0.4v4.3c-0.3,1.6-1.2,1.7-1.2,1.7l-0.9,0.1l-0.4-0.6
				v-3.7h-3.7c-0.4-0.1-0.4-0.1-0.6-0.4l0.1-0.9l0.8-0.9l0.9-0.4L3688.7,1184.5C3688.7,1184.4,3688.7,1184.5,3688.7,1184.5z"/>
		</g>
	</g>
	<g transform="matrix(2.10883,0,0,1.31802,-641.297,-5726.73)">
		<circle class="st8" cx="502.8" cy="3235.6" r="4.3"/>
	</g>
	<g transform="matrix(2.10883,0,0,1.31802,-641.297,-5726.73)">
		<path class="st6" d="M502.8,3225.5c4.6,0,9,3.6,9.9,8.1c0.7,3.3-0.4,6.9-2.9,9.3c-2.8,2.7-7.2,3.6-10.9,2.1
			c-3.2-1.3-5.7-4.5-6.2-7.9c-0.6-4.3,1.8-8.8,5.8-10.7C499.8,3225.8,501.3,3225.5,502.8,3225.5z M502.7,3226.4
			c-4.2,0-8.2,3.2-9,7.4c-0.6,3,0.4,6.3,2.6,8.5c2.5,2.5,6.6,3.3,10,1.9c3.9-1.6,6.3-6,5.6-10.1c-0.7-4.2-4.5-7.6-8.9-7.7
			C502.9,3226.4,502.8,3226.4,502.7,3226.4z"/>
	</g>
	<g transform="matrix(1.47877,0,0,0.924229,-217.893,-3923.82)">
		<circle class="st8" cx="421" cy="2636.2" r="3.7"/>
	</g>
	<g transform="matrix(1.47877,0,0,0.924229,-217.893,-3923.82)">
		<path class="st6" d="M421,2625.9c4.7,0,9.2,3.7,10.1,8.4c0.9,4.6-1.8,9.7-6.1,11.5c-3.7,1.6-8.3,0.7-11.2-2
			c-3.2-3-4.1-8.2-2.1-12.1c1.7-3.4,5.3-5.6,9.1-5.7C420.9,2625.9,421,2625.9,421,2625.9z M420.9,2627.1c-4.2,0-8.1,3.2-8.8,7.4
			c-0.7,4,1.6,8.4,5.4,10c4.2,1.8,9.6-0.2,11.7-4.4c1.7-3.4,0.9-7.8-1.8-10.4C425.6,2628.1,423.3,2627.1,420.9,2627.1z"/>
	</g>
	<g transform="matrix(1.47877,0,0,0.924229,-173.468,-3963.82)">
		<circle class="st8" cx="405.3" cy="2658.8" r="2.3"/>
	</g>
	<g transform="matrix(1.47877,0,0,0.924229,-173.468,-3963.82)">
		<path class="st6" d="M405.3,2648.4c4.8,0,9.2,3.7,10.1,8.5c1.1,5.8-3.7,12.2-10.1,12.2c-4.9,0-9.5-3.8-10.3-8.8
			c-0.9-5.6,3.7-11.6,9.6-11.9C404.9,2648.4,405.1,2648.4,405.3,2648.4z M405.2,2649.7c-4.2,0-8.1,3.3-8.8,7.4
			c-1,5.7,4.3,11.8,10.7,10.5c4.6-0.9,8-5.8,7.1-10.5c-0.8-4-4.5-7.3-8.8-7.4C405.3,2649.7,405.3,2649.7,405.2,2649.7z"/>
	</g>
	<g transform="matrix(1.47877,0,0,0.924229,-217.893,-4003.82)">
		<circle class="st8" cx="421" cy="2681.4" r="1"/>
	</g>
	<g transform="matrix(1.47877,0,0,0.924229,-217.893,-4003.82)">
		<path class="st6" d="M421,2671c4.8,0,9.3,3.7,10.1,8.5c1,5.8-3.7,12.2-10.2,12.2c-4.9,0-9.6-4-10.2-8.9
			c-0.8-5.7,3.9-11.7,10.1-11.8C420.9,2671,421,2671,421,2671z M420.9,2672.3c-4.2,0-8.1,3.3-8.9,7.4c-0.9,5.1,3.3,10.6,8.9,10.7
			c4.3,0,8.4-3.5,9-7.8c0.7-5-3.4-10.1-8.8-10.3C421.1,2672.3,421,2672.3,420.9,2672.3z"/>
	</g>
	<g transform="matrix(1,0,0,0.625,38.0604,-2557.94)">
		<path class="st6" d="M397.9,1679.8c0.1,0.2,0.2,0.3,0.2,0.5c0,0.2-0.1,0.4-0.2,0.5l-0.8,0.8l-1.9-1.9l0.8-0.8
			c0.1-0.1,0.3-0.2,0.5-0.2s0.4,0.1,0.5,0.2L397.9,1679.8z M391.1,1683.7l3.4-3.4l1.9,1.9l-3.8,3.8v2.1c0,0.4-0.1,0.7-0.4,1
			s-0.6,0.4-1,0.4h-8.1c-0.4,0-0.7-0.1-1-0.4c-0.3-0.3-0.4-0.6-0.4-1v-11.7c0-0.4,0.1-0.7,0.4-1c0.3-0.3,0.6-0.4,1-0.4h5.7
			c0.4,0,0.7,0.1,1,0.4l2.4,2.4c0.3,0.3,0.4,0.6,0.4,1v2.1l-1.3,1.3v-2.2h-2.9c-0.2,0-0.3-0.1-0.5-0.2c-0.1-0.1-0.2-0.3-0.2-0.5
			v-2.9h-4.5v11.7h8.1v-1.3h-1.8c-0.2,0-0.5-0.1-0.6-0.2c-0.2-0.1-0.3-0.3-0.4-0.5c-0.1-0.1-0.1-0.2-0.3-0.2s-0.2,0.1-0.3,0.2
			l-0.2,0.4c-0.1,0.2-0.2,0.3-0.4,0.3h0c-0.2,0-0.3-0.1-0.4-0.3l-0.5-1.4l-0.3,0.9c-0.1,0.3-0.2,0.5-0.4,0.6
			c-0.2,0.1-0.5,0.2-0.7,0.2h-0.3c-0.1,0-0.2,0-0.3-0.1c-0.1-0.1-0.1-0.2-0.1-0.3c0-0.1,0-0.2,0.1-0.3c0.1-0.1,0.2-0.1,0.3-0.1h0.3
			c0.1,0,0.3-0.1,0.3-0.2l0.5-1.5c0.1-0.2,0.1-0.3,0.3-0.4c0.1-0.1,0.2-0.1,0.4-0.1c0.1,0,0.3,0,0.4,0.1c0.1,0.1,0.2,0.2,0.3,0.4
			l0.4,1.1c0.3-0.2,0.6-0.3,1-0.2c0.4,0.1,0.7,0.3,0.8,0.6c0.1,0.1,0.1,0.2,0.3,0.2h0.7l0.4-1.4
			C390.8,1684.2,390.9,1683.9,391.1,1683.7z M389.1,1676.6v2.1h2.1L389.1,1676.6z"/>
	</g>
	<g transform="matrix(1,0,0,0.625,-5.3527,-2517.94)">
		<path class="st6" d="M415.2,1646.4c0.1,0.2,0.2,0.4,0.2,0.6c0,0.2-0.1,0.4-0.2,0.6l-5.2,7.7c-0.1,0.2-0.2,0.3-0.4,0.4
			c-0.2,0.1-0.4,0.2-0.6,0.2c-0.4,0-0.8-0.2-1-0.5c-0.3-0.3-0.3-0.7-0.2-1.1l1-4.3h-2.7c-0.4,0-0.7-0.2-1-0.5
			c-0.3-0.3-0.4-0.7-0.3-1.1l1.5-5.9c0-0.3,0.2-0.5,0.4-0.7c0.2-0.2,0.5-0.3,0.8-0.3h3.6c0.4,0,0.8,0.2,1,0.5
			c0.3,0.3,0.3,0.7,0.2,1.1l-0.8,2.5h2.6c0.2,0,0.5,0.1,0.7,0.2C414.9,1646.1,415,1646.2,415.2,1646.4z M409,1654.5l4.9-7.4h-4.4
			l1.3-4.1l-3.6,0l-1.4,5.8h4.4L409,1654.5z"/>
	</g>
	<g transform="matrix(1,0,0,0.625,134.515,-2519.27)">
		<path class="st6" d="M279.7,1648.9c1.8,0.1,3,3.2,0.8,4.1c-1.6,0.7-3.7-1.2-2.7-3C278.1,1649.3,278.8,1648.9,279.7,1648.9z
			 M279.6,1650.3c-0.7,0-0.9,1.8,0.3,1.4c0.1,0,0.2-0.1,0.2-0.1c0.1-0.1,0.1-0.1,0.2-0.2c0-0.1,0.1-0.1,0.1-0.2
			C280.4,1650.8,280.1,1650.3,279.6,1650.3z"/>
	</g>
	<g transform="matrix(1,0,0,0.625,93.3479,-2519.27)">
		<path class="st6" d="M301.2,1648.9c1.8,0.1,3,3.2,0.8,4.1c-1.6,0.7-3.7-1.2-2.7-3C299.7,1649.3,300.3,1648.9,301.2,1648.9z
			 M301.1,1650.3c-0.7,0-0.9,1.8,0.3,1.4c0.1,0,0.2-0.1,0.2-0.1c0.1-0.1,0.1-0.1,0.2-0.2c0-0.1,0.1-0.1,0.1-0.2
			C301.9,1650.8,301.6,1650.3,301.1,1650.3z"/>
	</g>
	<g transform="matrix(1,0,0,0.625,-9.08891,-2597.94)">
		<path class="st6" d="M415.5,1708.5c1,0,1.9,0.1,2.7,0.3c0.8,0.2,1.5,0.5,2,0.8c0.5,0.3,0.7,0.7,0.7,1.1v6.3c0,0.5-0.3,0.9-1,1.3
			c-0.7,0.4-1.5,0.6-2.6,0.8v1.5c0,0.4-0.2,0.8-0.7,1.1c-0.5,0.3-1.1,0.6-2,0.8c-0.8,0.2-1.7,0.3-2.7,0.3s-1.9-0.1-2.7-0.3
			c-0.8-0.2-1.5-0.5-2-0.8c-0.5-0.3-0.7-0.7-0.7-1.1v-6.3c0-0.5,0.3-0.9,1-1.3c0.7-0.4,1.5-0.7,2.6-0.8v-1.5c0-0.4,0.2-0.8,0.7-1.1
			c0.5-0.3,1.1-0.6,2-0.8C413.6,1708.6,414.5,1708.5,415.5,1708.5z M415.9,1720.5v-1.1c-0.5,0.2-1.1,0.4-1.8,0.6
			c-0.7,0.1-1.4,0.2-2.2,0.2c-0.8,0-1.5-0.1-2.2-0.2c-0.7-0.1-1.3-0.3-1.8-0.6v1.1c0.2,0.2,0.6,0.4,1.2,0.6c0.8,0.2,1.8,0.4,2.8,0.4
			c1,0,2-0.1,2.8-0.4C415.3,1721,415.7,1720.8,415.9,1720.5z M415.9,1717.8v-1.3c-0.5,0.3-1.1,0.5-1.8,0.7c-0.7,0.2-1.4,0.2-2.2,0.2
			c-0.8,0-1.5-0.1-2.2-0.2c-0.7-0.2-1.3-0.4-1.8-0.7v1.3c0.2,0.2,0.6,0.4,1.2,0.6c0.8,0.2,1.8,0.4,2.8,0.4c1,0,2-0.1,2.8-0.4
			C415.3,1718.3,415.7,1718.1,415.9,1717.8z M411.9,1716.2c1.1,0,2.1-0.1,2.9-0.4c0.8-0.3,1.2-0.6,1.2-1c0-0.4-0.4-0.7-1.2-1
			c-0.8-0.3-1.7-0.4-2.9-0.4s-2.1,0.1-2.9,0.4c-0.8,0.3-1.2,0.6-1.2,1c0,0.4,0.4,0.7,1.2,1C409.8,1716,410.8,1716.2,411.9,1716.2z
			 M419.5,1716.9v-1.1c-0.6,0.3-1.3,0.5-2.2,0.6v1.3c0.6-0.1,1.1-0.2,1.5-0.4C419.2,1717.2,419.4,1717.1,419.5,1716.9z
			 M419.5,1714.3v-1.3c-0.6,0.4-1.4,0.6-2.4,0.8c0.1,0.2,0.2,0.4,0.2,0.6v0.8c0.6-0.1,1.1-0.3,1.5-0.4
			C419.2,1714.6,419.4,1714.4,419.5,1714.3z M415.5,1712.6c1.1,0,2.1-0.1,2.9-0.4c0.8-0.3,1.2-0.6,1.2-1c0-0.4-0.4-0.7-1.2-1
			c-0.8-0.3-1.7-0.4-2.9-0.4s-2.1,0.1-2.9,0.4c-0.8,0.3-1.2,0.6-1.2,0.9c0,0.4,0.4,0.7,1.1,0.9c0.9,0,1.8,0.2,2.5,0.4l0.1,0H415.5z"
			/>
	</g>
	<g transform="matrix(0.0423795,0,0,0.0264872,792.721,180.155)">
		<path class="st2" d="M-8820-62308.4c168.9,0,306,137.1,306,306s-137.1,306-306,306c-168.9,0-306-137.1-306-306
			S-8988.9-62308.4-8820-62308.4z M-8778.4-61839.9c-5.5,0.5-9.8,0.6-12.4,0.6c-86.2,0.2-156.2-70-156.2-156.3c0-0.7,0-1.4,0-2.1
			v-2.2h0v-165.6h0l0,0l0,0c52.3-0.8,181.4,10.6,252.6,109.6c18.4,25.7,29.3,57.1,29.3,91c0,20.4-3.9,39.9-11,57.8l0-0.1
			c-4.6,12.1-16.7,37.1-48.4,52.9c-5.1,2.5-10.3,4.7-15.5,6.4c22.7-87-7-213.1-139-273.7
			C-8798.9-62071.8-8735.5-61946.6-8778.4-61839.9z"/>
	</g>
	<g transform="matrix(1,0,0,0.625,128.722,-2513.36)">
		<path class="st6" d="M251.4,1579.3c0.7,0.1,0.7,0.3,0.8,0.6c0.3,0.6-0.2,1.3-0.9,1.3c0,0-1.1-0.3-0.9-1.1
			C250.4,1579.5,251.2,1579.3,251.4,1579.3z M255.2,1579.3c0.7,0.1,0.7,0.3,0.8,0.6c0.3,0.6-0.2,1.3-0.9,1.3c0,0-0.6-0.1-0.8-0.5
			C253.9,1580.1,254.3,1579.3,255.2,1579.3C255.1,1579.3,255.2,1579.3,255.2,1579.3z M259,1579.3c0.7,0.1,0.7,0.3,0.8,0.6
			c0.3,0.6-0.2,1.3-0.9,1.3c0,0-0.6-0.1-0.8-0.5C257.8,1580.1,258.1,1579.3,259,1579.3C259,1579.3,259,1579.3,259,1579.3z"/>
	</g>
	<g transform="matrix(2.48081,0,0,0.625,-845.728,-2473.36)">
		<path class="st6" d="M494.1,1545.9c0.4,0.2,0.5,1.8,0,1.9c0,0-0.4-0.2-0.4-0.8C493.7,1546.4,493.9,1545.8,494.1,1545.9z
			 M495.7,1545.9c0.4,0.2,0.5,1.8,0,1.9c0,0-0.5-0.3-0.4-1.2C495.3,1546.1,495.5,1545.8,495.7,1545.9z M497.2,1545.9
			c0.4,0.2,0.5,1.8,0,1.9c0,0-0.4-0.2-0.4-1C496.8,1546.3,497,1545.8,497.2,1545.9z M498.8,1545.9c0.2,0.1,0.2,0.2,0.3,0.5
			c0.1,0.6-0.1,1.4-0.3,1.4c0,0-0.5-0.3-0.4-1.2C498.4,1546.1,498.6,1545.8,498.8,1545.9z M500.3,1545.9c0.4,0.2,0.5,1.8,0,1.9
			c0,0-0.5-0.3-0.4-1.2C499.9,1546.1,500.1,1545.8,500.3,1545.9z M501.8,1545.9c0.4,0.2,0.5,1.8,0,1.9c0,0-0.3-0.2-0.4-0.8
			C501.4,1546.4,501.6,1545.8,501.8,1545.9z M503.4,1545.9c0.4,0.2,0.5,1.8,0,1.9c0,0-0.3-0.2-0.4-0.8
			C502.9,1546.4,503.1,1545.8,503.4,1545.9z M504.9,1545.9c0.4,0.2,0.5,1.8,0,1.9c0,0-0.4-0.2-0.4-1
			C504.5,1546.3,504.7,1545.8,504.9,1545.9z M506.5,1545.9c0.4,0.2,0.4,0.7,0.3,1.2c0,0.5-0.4,0.7-0.4,0.7
			C505.7,1547.7,506.1,1545.8,506.5,1545.9z"/>
	</g>
	<g transform="matrix(1,0,0,0.625,128.722,-2433.36)">
		<path class="st6" d="M251.4,1512.5c0.5,0.1,0.5,0.2,0.6,0.3c0.5,0.5,0.1,1.6-0.7,1.6c0,0-0.4,0-0.7-0.3
			C250.1,1513.6,250.4,1512.4,251.4,1512.5z M255.2,1512.5c0.5,0.1,0.5,0.2,0.6,0.3c0.5,0.5,0.1,1.6-0.7,1.6c0,0-1.6-0.7-0.7-1.6
			c0.1-0.1,0.3-0.2,0.4-0.2C255,1512.5,255.1,1512.5,255.2,1512.5z M259,1512.5c0.5,0.1,0.5,0.2,0.6,0.3c0.5,0.5,0.1,1.6-0.7,1.6
			c0,0-1.6-0.7-0.7-1.6c0.1-0.1,0.3-0.2,0.4-0.2C258.8,1512.5,258.9,1512.5,259,1512.5z"/>
	</g>
	<g transform="matrix(2.04829,0,0,0.625,-575.349,-2380.51)">
		<path class="st6" d="M467.1,1468.3c0.5,0.2,0.6,1.8-0.1,1.9c0,0-0.4-0.2-0.5-0.8C466.5,1468.9,466.8,1468.3,467.1,1468.3z
			 M469,1468.3c0.5,0.2,0.6,1.8-0.1,1.9c0,0-0.4-0.2-0.5-0.8C468.4,1468.9,468.7,1468.3,469,1468.3z M470.8,1468.3
			c0.3,0.1,0.3,0.4,0.4,0.6c0.1,0.6-0.1,1.3-0.4,1.3c0,0-0.4-0.2-0.5-0.8C470.3,1468.9,470.5,1468.3,470.8,1468.3z M472.7,1468.3
			c0.5,0.2,0.6,1.8-0.1,1.9c0,0-0.2,0-0.4-0.3C472,1469.3,472.2,1468.3,472.7,1468.3z M474.6,1468.3c0.5,0.2,0.6,1.8-0.1,1.9
			c0,0-0.4-0.2-0.5-0.8C474,1468.9,474.3,1468.3,474.6,1468.3z"/>
	</g>
	<g transform="matrix(1,0,0,0.625,128.722,-2513.36)">
		
			<rect x="269.6" y="1640.7" transform="matrix(-1.673642e-04 -1 1 -1.673642e-04 -1371.7563 1911.2808)" class="st6" width="0" height="1.4"/>
	</g>
	<g transform="matrix(1,0,0,0.625,154.353,-2513.36)">
		
			<rect x="256.2" y="1640.7" transform="matrix(-1.055533e-04 -1 1 -1.055533e-04 -1385.1505 1897.8031)" class="st6" width="0" height="1.4"/>
	</g>
	<g transform="matrix(0.932306,-0.336417,0,0.457155,-13.1758,-950.456)">
		<polygon class="st9" points="336,-822.6 421.2,-822.6 421.2,-800.3 336,-800.3 		"/>
	</g>
	<g transform="matrix(-0.932288,-0.336411,0,0.457155,1268.26,-950.463)">
		<polygon class="st10" points="1038.5,-305.6 1123.8,-305.6 1123.8,-283.2 1038.5,-283.2 		"/>
	</g>
</g>
</svg>
